<svg width="70" height="70" viewBox="0 0 70 70" fill="none" xmlns="http://www.w3.org/2000/svg">
<g clip-path="url(#clip0_4726_117667)">
<g clip-path="url(#clip1_4726_117667)">
<path d="M45 20C31.1929 20 20 31.1929 20 45C20 58.8071 31.1929 70 45 70C58.8071 70 70 58.8071 70 45C70 31.1929 58.8071 20 45 20ZM37.5604 27.2047C40.4186 26.0071 43.5713 25.5176 46.6775 25.7887C50.2617 26.1017 53.6506 27.4008 56.4957 29.5151L56.4684 27.7076L59.3977 27.6634L59.4959 34.1642L53.0006 34.7557L52.7349 31.838L54.4888 31.6783C52.1309 29.9972 49.3539 28.9633 46.4227 28.7073C41.1786 28.2494 36.0006 30.3659 32.5706 34.369L30.3459 32.4628C32.3006 30.1814 34.7953 28.3633 37.5604 27.2047ZM53.944 38.233L49.2029 51.767H46.7748L51.5161 38.233H53.944ZM37.0334 48.4051V46.5517L41.5447 40.2731H44.49L40.3954 46.1494H42.4355V44.4397H45.1223V46.1494H46.6164V48.4051H45.1223V50.3303H42.3493V48.4051H37.0334ZM31.645 42.3708C30.9123 42.3708 30.2514 42.7013 29.8491 43.3478L27.7371 42.1696C28.4986 40.9053 29.9209 40.072 31.9036 40.072C34.2168 40.072 35.8115 41.2645 35.8115 43.1322C35.8115 44.1092 35.5386 45 34.1018 46.3218L32.2053 48.0746H36.0845V50.3303H28.2544V48.5487L32.0187 45.0287C32.8232 44.2816 32.9382 43.8219 32.9382 43.4052C32.9382 42.7587 32.5071 42.3708 31.645 42.3708ZM52.4396 62.7953C50.0942 63.778 47.5504 64.2841 44.9965 64.2841C44.4383 64.2841 43.8797 64.26 43.3225 64.2112C39.7383 63.8982 36.3494 62.5991 33.5044 60.4849L33.5316 62.2923L30.6023 62.3365L30.5041 55.8358L36.9994 55.2443L37.2651 58.1619L35.5112 58.3217C37.8691 60.0028 40.6461 61.0367 43.5773 61.2927C48.8215 61.7508 53.9993 59.6341 57.4293 55.631L59.654 57.5372C57.6993 59.8185 55.2047 61.6367 52.4396 62.7953ZM62.2628 42.0547L58.7142 50.3303H55.6107L59.0015 42.5288H56.3579V44.0805H53.9298V40.2731H62.2628V42.0547Z" fill="white"/>
</g>
<path d="M31.4853 17.1652C31.5347 18.3466 31.1135 19.4994 30.3141 20.3707C29.5146 21.242 28.4022 21.7605 27.2209 21.8127C27.1518 21.8159 27.0828 21.8175 27.014 21.8175C26.7001 21.8173 26.3872 21.7833 26.0806 21.7162C25.1708 23.1208 23.9779 24.3202 22.5781 25.2374C21.1783 26.1547 19.6025 26.7696 17.9514 27.043C17.7561 27.6168 17.3665 28.1042 16.8499 28.4211C16.3334 28.7381 15.7223 28.8645 15.1224 28.7787C14.5225 28.6929 13.9714 28.4002 13.5644 27.9512C13.1574 27.5021 12.9201 26.925 12.8934 26.3195C12.8668 25.7141 13.0526 25.1184 13.4186 24.6353C13.7846 24.1523 14.3079 23.8124 14.898 23.6742C15.4881 23.5361 16.1079 23.6085 16.6503 23.8789C17.1926 24.1492 17.6235 24.6006 17.8684 25.155C20.1929 24.7251 22.2928 23.4931 23.8022 21.6738C25.3116 19.8546 26.1347 17.5633 26.1281 15.1994C26.1281 9.61473 21.5846 5.07129 16 5.07129C10.4153 5.07129 5.87183 9.61473 5.87183 15.1994C5.87152 16.9263 6.31286 18.6246 7.15389 20.1328C7.18239 20.1826 7.20379 20.2361 7.21745 20.2918C7.29869 20.5176 7.29 20.766 7.1932 20.9855C7.09639 21.2051 6.91888 21.379 6.69739 21.4714C6.15505 21.6996 5.57255 21.8171 4.98414 21.817C4.91489 21.817 4.84549 21.8154 4.77595 21.8122C3.59513 21.7594 2.48343 21.2406 1.68461 20.3693C0.885785 19.4981 0.465044 18.3457 0.514639 17.1647C0.534577 16.6938 0.523452 16.2736 0.512577 15.8673C0.502452 15.4847 0.49189 15.0891 0.509265 14.6763C0.561119 13.5232 1.05714 12.4349 1.89342 11.6393C2.72971 10.8438 3.8414 10.4026 4.99564 10.4084C6.84914 6.1676 11.0837 3.19629 16 3.19629C20.9162 3.19629 25.1508 6.1676 27.0043 10.4084C28.1587 10.4018 29.2707 10.8426 30.1072 11.6382C30.9436 12.4338 31.4394 13.5224 31.4906 14.6756C31.508 15.089 31.4975 15.4846 31.4873 15.8672C31.4765 16.2735 31.4653 16.6939 31.4853 17.1652ZM23.8628 15.1994C23.8623 16.404 23.5852 17.5924 23.0528 18.6729C22.5204 19.7535 21.7469 20.6973 20.7921 21.4317C19.8372 22.166 18.7264 22.6712 17.5454 22.9084C16.3644 23.1455 15.1447 23.1082 13.9803 22.7994L10.7978 24.6374C10.6372 24.7301 10.4527 24.7731 10.2677 24.761C10.0826 24.7489 9.90534 24.6822 9.75822 24.5693C9.61111 24.4564 9.50077 24.3024 9.44117 24.1268C9.38157 23.9512 9.37538 23.7619 9.42339 23.5828L10.2368 20.5485C8.88977 19.0926 8.14029 17.1829 8.13745 15.1994C8.13745 10.8627 11.6644 7.33479 16 7.33479C20.3355 7.33479 23.8628 10.8627 23.8628 15.1994ZM13.814 15.1994C13.814 14.9508 13.7152 14.7123 13.5394 14.5365C13.3636 14.3607 13.1252 14.2619 12.8765 14.2619H12.875C12.6896 14.2623 12.5085 14.3175 12.3546 14.4208C12.2006 14.524 12.0808 14.6705 12.0101 14.8419C11.9394 15.0132 11.9211 15.2016 11.9574 15.3834C11.9938 15.5651 12.0832 15.732 12.2144 15.8629C12.3456 15.9939 12.5126 16.083 12.6944 16.119C12.8763 16.1551 13.0647 16.1364 13.2359 16.0654C13.4071 15.9944 13.5534 15.8742 13.6563 15.7201C13.7593 15.5659 13.8142 15.3848 13.8142 15.1994H13.814ZM16.9376 15.1994C16.9376 15.1687 16.9359 15.1381 16.9326 15.1075C16.9297 15.0769 16.9251 15.0464 16.919 15.0163C16.9134 14.9863 16.9058 14.9566 16.8964 14.9275C16.8877 14.8982 16.8771 14.8694 16.8658 14.8407C16.8546 14.8119 16.8408 14.785 16.8265 14.7582C16.8122 14.7311 16.7965 14.7049 16.7796 14.6794C16.7625 14.6537 16.7441 14.6289 16.7245 14.605C16.7053 14.5811 16.6846 14.5584 16.6627 14.5369C16.6415 14.515 16.6183 14.4944 16.5946 14.4744C16.5708 14.4557 16.5458 14.4369 16.5201 14.42C16.4947 14.4031 16.4685 14.3874 16.4415 14.3732C16.4145 14.3588 16.3865 14.3457 16.3583 14.3338C16.3301 14.322 16.3013 14.3118 16.2721 14.3032C16.2136 14.2844 16.1532 14.2722 16.0921 14.2669C16.0003 14.2581 15.9076 14.2625 15.8171 14.28C15.7869 14.2862 15.7571 14.2939 15.7278 14.3032C15.6985 14.3118 15.6697 14.322 15.6415 14.3338C15.6134 14.3457 15.5853 14.3588 15.5584 14.3732C15.5315 14.3875 15.5053 14.4032 15.4796 14.42C15.4539 14.4369 15.429 14.4557 15.4059 14.4744C15.3815 14.4944 15.359 14.515 15.3371 14.5369C15.3152 14.5584 15.2945 14.5812 15.2752 14.605C15.2558 14.6289 15.2377 14.6537 15.2209 14.6794C15.2037 14.7048 15.1879 14.7311 15.1734 14.7582C15.159 14.7849 15.146 14.8125 15.1346 14.8407C15.1227 14.8691 15.1123 14.8981 15.1033 14.9275C15.0946 14.9563 15.0871 14.9863 15.0809 15.0163C15.0747 15.0464 15.0701 15.0769 15.0671 15.1075C15.064 15.1382 15.0627 15.1688 15.0627 15.1994C15.0627 15.23 15.064 15.2613 15.0671 15.2919C15.0702 15.3223 15.0748 15.3526 15.0809 15.3825C15.0871 15.4125 15.0946 15.4425 15.1033 15.4719C15.1123 15.5012 15.1227 15.53 15.1346 15.5582C15.146 15.5866 15.159 15.6143 15.1734 15.6413C15.1877 15.6682 15.204 15.6944 15.2209 15.72C15.2377 15.7455 15.2559 15.7701 15.2752 15.7938C15.2947 15.8177 15.3154 15.8407 15.3371 15.8625C15.359 15.8838 15.3815 15.905 15.4059 15.9244C15.4294 15.9439 15.454 15.9621 15.4796 15.9788C15.5053 15.9957 15.5315 16.0119 15.5584 16.0263C15.6127 16.0546 15.6693 16.078 15.7278 16.0963C15.7571 16.105 15.7871 16.1125 15.8171 16.1188C15.8773 16.1311 15.9387 16.1372 16.0002 16.1369C16.2485 16.1363 16.4866 16.0377 16.6627 15.8625C16.7059 15.8187 16.745 15.771 16.7796 15.72C16.7965 15.6944 16.8121 15.6682 16.8265 15.6413C16.8408 15.6144 16.854 15.5863 16.8658 15.5582C16.8777 15.53 16.8877 15.5007 16.8964 15.4719C16.9057 15.4426 16.9133 15.4128 16.919 15.3825C16.9251 15.3526 16.9296 15.3223 16.9326 15.2919C16.9358 15.2611 16.9374 15.2302 16.9375 15.1993L16.9376 15.1994ZM20.0626 15.1994C20.0626 14.9508 19.9639 14.7123 19.7881 14.5365C19.6122 14.3607 19.3738 14.2619 19.1251 14.2619H19.1233C18.938 14.2623 18.7569 14.3176 18.603 14.4208C18.449 14.524 18.3292 14.6706 18.2585 14.8419C18.1878 15.0132 18.1695 15.2017 18.2059 15.3834C18.2423 15.5652 18.3317 15.732 18.4629 15.863C18.5941 15.9939 18.7611 16.083 18.9429 16.119C19.1247 16.1551 19.3131 16.1364 19.4843 16.0654C19.6555 15.9944 19.8018 15.8742 19.9048 15.7201C20.0077 15.5659 20.0626 15.3848 20.0626 15.1994Z" fill="white"/>
</g>
<defs>
<clipPath id="clip0_4726_117667">
<rect width="70" height="70" fill="white"/>
</clipPath>
<clipPath id="clip1_4726_117667">
<rect width="50" height="50" fill="white" transform="translate(20 20)"/>
</clipPath>
</defs>
</svg>
