<svg width="24" height="25" viewBox="0 0 24 25" fill="none" xmlns="http://www.w3.org/2000/svg">
<g clip-path="url(#clip0_7245_68678)">
<path d="M2.90906 11.1353H18.8962L15.9026 8.14171C15.5476 7.78674 15.5476 7.2111 15.9026 6.85607C16.2576 6.5011 16.8332 6.5011 17.1883 6.85607L21.7337 11.4015C22.0888 11.7565 22.0888 12.3321 21.7337 12.6872L17.1883 17.2326C17.0107 17.4101 16.7781 17.4989 16.5454 17.4989C16.3128 17.4989 16.0801 17.4101 15.9026 17.2326C15.5476 16.8776 15.5476 16.302 15.9026 15.947L18.8962 12.9535H2.90906C2.407 12.9535 1.99997 12.5464 1.99997 12.0444C1.99997 11.5423 2.407 11.1353 2.90906 11.1353Z" fill="white"/>
</g>
<defs>
<clipPath id="clip0_7245_68678">
<rect width="20" height="20" fill="white" transform="matrix(-1 0 0 1 22 2.04443)"/>
</clipPath>
</defs>
</svg>
