<svg width="70" height="70" viewBox="0 0 70 70" fill="none" xmlns="http://www.w3.org/2000/svg">
<g clip-path="url(#clip0_4726_117633)">
<path d="M30.0696 60.4928C29.8006 60.6874 29.5741 60.9349 29.4041 61.2201C31.4213 63.0776 33.1995 65.1789 34.6976 67.4757C34.3287 62.1788 33.1889 56.9641 31.3141 51.9963C29.7405 52.6446 28.4279 53.7987 27.5835 55.2763C29.1426 56.159 30.3407 57.5631 30.9671 59.2417C31.0634 59.5308 31.0152 59.8486 30.8376 60.0962C30.6599 60.3439 30.3743 60.4913 30.0696 60.4928Z" fill="white"/>
<path d="M22.4645 67.7564V62.3944C22.4645 61.8694 22.8901 61.4437 23.4152 61.4437C23.9402 61.4437 24.3659 61.8694 24.3659 62.3944V68.0987C24.3659 69.1488 25.2172 70.0001 26.2673 70.0001H34.0792C32.7673 67.9304 30.1566 64.1228 27.5983 62.2043C27.2306 61.9288 27.1126 61.4298 27.3178 61.0188C27.6752 60.2785 28.1802 59.6191 28.8019 59.0812C28.1857 57.9498 27.1776 57.0822 25.9669 56.6417C25.7155 56.5581 25.5104 56.3734 25.401 56.1321C25.2916 55.8908 25.2879 55.6148 25.3907 55.3706C26.0122 54.0245 26.9007 52.8187 28.0023 51.8264L24.0484 52.1706C20.2321 52.5 17.1895 55.4968 16.8022 59.3076C16.4149 63.1184 18.7925 66.666 22.4645 67.7564Z" fill="white"/>
<path d="M26.6062 31.9719C26.6062 31.9719 26.2668 32.2657 26.2668 33.8068C26.2668 35.6911 26.9143 36.6684 27.6406 37.1713C27.3846 35.5302 27.2495 33.8724 27.2366 32.2115C27.0557 32.0694 26.8358 31.9858 26.6062 31.9719Z" fill="white"/>
<path d="M43.3798 34.8237V21.6878C41.8339 20.4747 40.7501 21.5138 37.5424 21.5138C34.8282 21.5138 33.9374 20.642 32.3963 21.414C31.0044 22.1089 30.0699 24.4847 30.0699 26.2673C29.9661 27.9336 29.6465 29.5794 29.1192 31.1634C29.0679 33.5703 29.3028 35.9747 29.8189 38.326C30.8647 42.4084 33.386 46.2321 37.6755 46.2321C41.8282 46.2321 44.301 42.6308 45.4048 38.7044C44.1379 37.818 43.3823 36.3699 43.3798 34.8237Z" fill="white"/>
<path d="M31.5465 19.7124C33.7711 18.6001 34.9528 19.6126 37.6757 19.6126C40.2274 19.6126 41.3939 18.7247 43.3884 19.5299C43.3968 18.939 43.5161 18.355 43.7402 17.8082C41.7821 17.1589 39.7381 16.8058 37.6757 16.7605C37.6006 16.7605 30.5074 16.8099 27.9785 20.183C26.6256 21.9894 26.8519 27.4027 27.1228 30.1274C27.2241 30.1502 27.3241 30.1785 27.4223 30.212C27.8324 28.9329 28.0831 27.6081 28.1686 26.2675C28.1686 23.9088 29.3522 20.8095 31.5465 19.7124Z" fill="white"/>
<path d="M42.4778 50.7548C42.1765 49.5359 41.9464 48.3004 41.7885 47.0547C39.2353 48.493 36.1171 48.497 33.5602 47.0651C33.4049 48.3079 33.1785 49.5408 32.8823 50.7577C34.5185 53.6241 40.8359 53.6136 42.4778 50.7548Z" fill="white"/>
<path d="M67.1479 16.7605H48.1339C46.5587 16.7605 45.2817 18.0374 45.2817 19.6126V34.8239C45.2817 36.3991 46.5587 37.676 48.1339 37.676H49.0846C49.6096 37.676 50.0353 38.1016 50.0353 38.6267V41.533L55.1871 37.8528C55.537 37.6018 54.7061 37.676 67.1479 37.676C68.7231 37.676 70 36.3991 70 34.8239V19.6126C70 18.0374 68.7231 16.7605 67.1479 16.7605ZM65.2465 28.1689C65.2465 29.2191 64.3952 30.0704 63.3451 30.0704H60.493V32.9225C60.493 33.9726 59.6417 34.8239 58.5916 34.8239H56.6902C55.6401 34.8239 54.7888 33.9726 54.7888 32.9225V30.0704H51.9367C50.8865 30.0704 50.0353 29.2191 50.0353 28.1689V26.2675C50.0353 25.2174 50.8865 24.3661 51.9367 24.3661H54.7888V21.514C54.7888 20.4639 55.6401 19.6126 56.6902 19.6126H58.5916C59.6417 19.6126 60.493 20.4639 60.493 21.514V24.3661H63.3451C64.3952 24.3661 65.2465 25.2174 65.2465 26.2675V28.1689Z" fill="white"/>
<path d="M34.0881 54.1233C35.7101 59.2644 36.5917 64.6103 36.7064 70.0001H38.6458C38.7607 64.6104 39.642 59.2646 41.2631 54.1233C38.9548 55.0165 36.3964 55.0165 34.0881 54.1233Z" fill="white"/>
<path d="M58.5915 24.3658V21.5137H56.69V24.3658C56.69 25.4159 55.8388 26.2672 54.7886 26.2672H51.9365V28.1686H54.7886C55.8388 28.1686 56.69 29.0199 56.69 30.07V32.9221H58.5915V30.07C58.5915 29.0199 59.4427 28.1686 60.4929 28.1686H63.345V26.2672H60.4929C59.4427 26.2672 58.5915 25.4159 58.5915 24.3658Z" fill="white"/>
<path d="M44.0332 51.9973C42.1618 56.9654 41.022 62.179 40.6497 67.4748C42.1495 65.1788 43.9289 63.0781 45.947 61.221C45.7727 60.9253 45.5318 60.6744 45.2435 60.4881C44.9423 60.4855 44.6613 60.3361 44.4909 60.0878C44.3204 59.8395 44.2819 59.5236 44.3878 59.2417C45.0138 57.5639 46.2107 56.1603 47.7685 55.2772C46.9198 53.8014 45.6064 52.6481 44.0332 51.9973Z" fill="white"/>
<path d="M51.3014 52.1702L47.3532 51.8289C48.4529 52.8208 49.3401 54.0256 49.9609 55.3702C50.0638 55.6144 50.06 55.8904 49.9507 56.1317C49.8413 56.373 49.6362 56.5577 49.3848 56.6413C48.1711 57.0772 47.1602 57.9445 46.5451 59.078C47.1706 59.6156 47.679 60.2761 48.0386 61.0184C48.2429 61.4305 48.1228 61.9297 47.7534 62.2039C45.1951 64.1224 42.5844 67.93 41.2725 69.9997H49.0844C50.1345 69.9997 50.9858 69.1484 50.9858 68.0983V62.394C50.9858 61.869 51.4114 61.4433 51.9365 61.4433C52.4616 61.4433 52.8872 61.869 52.8872 62.394V67.756C56.5593 66.6654 58.9367 63.1173 58.549 59.3064C58.1612 55.4954 55.118 52.4989 51.3014 52.1702Z" fill="white"/>
<g clip-path="url(#clip1_4726_117633)">
<path d="M11.5795 16.5841L11.037 16.8133L11.3235 17.4914L11.8659 17.2622C12.2295 17.0862 11.9119 16.4405 11.5795 16.5841Z" fill="white"/>
<path d="M24.9304 13.7401C26.3178 13.09 25.2318 10.7841 23.8786 11.3941L24.8816 13.7607L24.9304 13.7401Z" fill="white"/>
<path d="M27.8952 14.8176C28.2379 14.6642 28.5058 14.3814 28.6405 14.031C28.7752 13.6806 28.7656 13.2911 28.6139 12.9478L27.0405 9.18562C26.8952 8.84343 26.6232 8.57067 26.2814 8.42437C25.9396 8.27807 25.5545 8.26955 25.2066 8.4006C24.6262 8.64581 8.36266 15.5742 2.8776 17.9267C2.53496 18.08 2.267 18.3628 2.13231 18.7132C1.99763 19.0636 2.00718 19.4531 2.15889 19.7965L3.72448 23.5779C3.86555 23.9236 4.13711 24.1998 4.48035 24.3467C4.82359 24.4937 5.21089 24.4995 5.55839 24.3629C7.3951 23.5582 27.3202 15.0605 27.8952 14.8176ZM10.7234 20.6402L9.40688 21.1932C9.30542 21.2358 9.19126 21.2364 9.08934 21.195C8.98741 21.1536 8.906 21.0736 8.86289 20.9724L8.2006 19.4047L7.53445 17.8355C7.49194 17.734 7.49131 17.6199 7.53269 17.518C7.57407 17.416 7.65411 17.3346 7.75531 17.2915L9.07188 16.7385C9.17135 16.7053 9.2797 16.7108 9.37527 16.7539C9.47085 16.7971 9.54661 16.8748 9.58742 16.9714C9.62824 17.068 9.63109 17.1764 9.59542 17.275C9.55975 17.3737 9.48818 17.4552 9.39501 17.5033L8.47358 17.9022L8.81045 18.6996L9.74346 18.3054C9.84539 18.2628 9.96009 18.2624 10.0623 18.3043C10.1646 18.3462 10.2459 18.4271 10.2886 18.529C10.3312 18.6309 10.3316 18.7456 10.2897 18.8479C10.2478 18.9501 10.167 19.0315 10.065 19.0741L9.13587 19.4699L9.4666 20.2603L10.3996 19.8661C10.5023 19.8232 10.6178 19.8227 10.7207 19.865C10.8237 19.9072 10.9056 19.9886 10.9486 20.0912C10.9915 20.1939 10.9919 20.3094 10.9497 20.4124C10.9075 20.5153 10.8261 20.5973 10.7234 20.6402ZM11.4178 19.893L10.0917 16.7615C10.0697 16.711 10.058 16.6566 10.0572 16.6015C10.0564 16.5465 10.0666 16.4918 10.0871 16.4406C10.1081 16.3897 10.1389 16.3434 10.1779 16.3044C10.2168 16.2655 10.2631 16.2346 10.3141 16.2137C10.7952 16.036 11.5578 15.5412 12.0776 15.8107C13.0309 16.1303 13.1526 17.7122 12.1387 18.051L13.5605 18.6777C13.6628 18.7193 13.7445 18.7998 13.7874 18.9015C13.8304 19.0032 13.8312 19.1179 13.7897 19.2202C13.6233 19.5526 13.3205 19.4791 13.0352 19.3408L11.8903 18.84C12.022 19.1148 12.1335 19.3989 12.2238 19.6899C12.2432 19.7941 12.2222 19.9017 12.1651 19.9909C12.1079 20.0802 12.0189 20.1442 11.9162 20.1701C11.8135 20.196 11.7047 20.1817 11.6121 20.1303C11.5195 20.0788 11.45 19.9939 11.4178 19.893ZM12.9117 15.1067L14.6242 14.3864C14.7237 14.3532 14.832 14.3587 14.9276 14.4019C15.0232 14.445 15.0989 14.5227 15.1398 14.6193C15.1806 14.7159 15.1834 14.8243 15.1478 14.923C15.1121 15.0216 15.0405 15.1031 14.9473 15.1512L14.4738 15.3545L15.6411 18.1024C15.6559 18.1382 15.6663 18.1756 15.6723 18.2139C15.69 18.3164 15.6688 18.4218 15.6127 18.5094C15.5567 18.5969 15.4698 18.6604 15.3694 18.6872C15.2689 18.714 15.162 18.7023 15.0698 18.6543C14.9775 18.6063 14.9066 18.5255 14.8709 18.4278L13.6966 15.686C13.5037 15.7515 13.1197 16.0001 12.9053 15.8861C12.8307 15.8546 12.7668 15.802 12.7216 15.7347C12.6764 15.6675 12.6518 15.5885 12.6509 15.5075C12.6499 15.4265 12.6726 15.3469 12.7161 15.2786C12.7597 15.2103 12.8222 15.1562 12.8961 15.1229L12.9117 15.1067ZM15.7905 13.8937C15.8919 13.8512 16.0061 13.8506 16.108 13.8919C16.2099 13.9333 16.2913 14.0133 16.3345 14.1146L17.6645 17.2476C17.6858 17.2982 17.697 17.3525 17.6974 17.4074C17.6978 17.4623 17.6874 17.5167 17.6667 17.5676C17.6461 17.6184 17.6156 17.6647 17.577 17.7038C17.5385 17.7429 17.4926 17.7741 17.442 17.7954C17.3915 17.8168 17.3372 17.828 17.2823 17.8284C17.2274 17.8288 17.1729 17.8183 17.122 17.7977C17.0712 17.777 17.0249 17.7466 16.9858 17.708C16.9467 17.6695 16.9156 17.6236 16.8942 17.573L15.5696 14.4377C15.531 14.34 15.5306 14.2314 15.5687 14.1335C15.6068 14.0356 15.6804 13.9557 15.7749 13.9099L15.7905 13.8937ZM16.9398 13.5424C16.9601 13.4915 16.9902 13.4451 17.0285 13.4059C17.0668 13.3667 17.1125 13.3354 17.1628 13.3139L18.4143 12.7884C18.5138 12.7551 18.6221 12.7607 18.7177 12.8038C18.8133 12.847 18.8891 12.9247 18.9299 13.0213C18.9707 13.1179 18.9735 13.2263 18.9379 13.3249C18.9022 13.4236 18.8306 13.5051 18.7375 13.5532L17.8695 13.9199L18.1805 14.6483L19.0484 14.2817C19.1503 14.239 19.265 14.2386 19.3673 14.2806C19.4695 14.3225 19.5509 14.4033 19.5935 14.5052C19.6362 14.6072 19.6366 14.7219 19.5946 14.8241C19.5527 14.9263 19.4719 15.0077 19.37 15.0504L18.502 15.417L19.0353 16.6717C19.0477 16.7021 19.0559 16.7342 19.0595 16.7669C19.0952 16.8657 19.0923 16.9744 19.0512 17.0711C19.0101 17.1679 18.934 17.2455 18.8381 17.2884C18.7422 17.3314 18.6336 17.3365 18.5341 17.3027C18.4346 17.2689 18.3515 17.1987 18.3016 17.1063C18.28 17.0789 18.262 17.0489 18.2479 17.0171L17.5604 15.3898L16.9279 13.8926C16.9042 13.8402 16.8917 13.7835 16.8911 13.726C16.8904 13.6685 16.9017 13.6115 16.9242 13.5586L16.9398 13.5424ZM19.5263 12.3186C19.6278 12.2761 19.742 12.2755 19.8439 12.3168C19.9458 12.3582 20.0272 12.4382 20.0703 12.5395L21.3965 15.6709C21.4179 15.7212 21.4293 15.7753 21.4299 15.83C21.4304 15.8847 21.4202 15.939 21.3998 15.9898C21.3794 16.0405 21.3492 16.0868 21.311 16.1259C21.2727 16.165 21.2271 16.1961 21.1768 16.2176C21.1264 16.2391 21.0724 16.2504 21.0177 16.251C20.963 16.2516 20.9087 16.2414 20.8579 16.221C20.8071 16.2006 20.7609 16.1704 20.7218 16.1321C20.6827 16.0938 20.6515 16.0482 20.6301 15.9979L19.2899 12.8787C19.2474 12.7773 19.2468 12.6631 19.2882 12.5612C19.3295 12.4593 19.4096 12.3779 19.5108 12.3348L19.5263 12.3186ZM20.5036 12.0368C20.5465 11.9352 20.6262 11.8536 20.7267 11.8083L22.0433 11.2553C22.1452 11.2126 22.2599 11.2122 22.3621 11.2541C22.4644 11.2961 22.5458 11.3769 22.5884 11.4788C22.631 11.5808 22.6314 11.6955 22.5895 11.7977C22.5476 11.8999 22.4668 11.9813 22.3648 12.024L21.4373 12.4158L21.7764 13.2187L22.7056 12.8229C22.7561 12.8013 22.8104 12.7899 22.8654 12.7894C22.9204 12.7889 22.9749 12.7993 23.0258 12.82C23.0767 12.8407 23.1231 12.8712 23.1621 12.9099C23.2012 12.9486 23.2322 12.9946 23.2534 13.0453C23.2959 13.1468 23.2965 13.261 23.2552 13.3629C23.2138 13.4648 23.1338 13.5462 23.0325 13.5893L22.0995 13.9835L22.4364 14.7809L23.3716 14.4146C23.4219 14.3931 23.476 14.3818 23.5307 14.3812C23.5854 14.3806 23.6397 14.3908 23.6905 14.4112C23.7412 14.4316 23.7875 14.4618 23.8266 14.5001C23.8657 14.5384 23.8968 14.584 23.9183 14.6343C23.9398 14.6846 23.9511 14.7387 23.9517 14.7934C23.9523 14.8481 23.9421 14.9024 23.9217 14.9531C23.9013 15.0039 23.8711 15.0502 23.8328 15.0892C23.7945 15.1283 23.7489 15.1595 23.6986 15.181L22.382 15.734C22.2806 15.7765 22.1664 15.7771 22.0645 15.7358C21.9625 15.6944 21.8811 15.6143 21.838 15.5131L21.1742 13.9493L20.508 12.3801C20.4641 12.2765 20.4571 12.1611 20.4881 12.0529L20.5036 12.0368ZM26.2353 11.7888C26.4628 12.2767 26.4887 12.8348 26.3073 13.3417C26.1259 13.8486 25.7518 14.2635 25.2664 14.4963L24.8324 14.6796C24.7819 14.7012 24.7275 14.7126 24.6726 14.7131C24.6176 14.7136 24.5631 14.7032 24.5122 14.6825C24.4612 14.6618 24.4149 14.6313 24.3758 14.5926C24.3368 14.5539 24.3057 14.5079 24.2846 14.4572L22.9436 11.3512C22.9225 11.3006 22.9115 11.2463 22.9114 11.1915C22.9113 11.1367 22.922 11.0825 22.9429 11.0318C23.0052 10.8009 23.4186 10.7126 23.6 10.62C24.1046 10.4283 24.6645 10.4435 25.158 10.6624C25.6515 10.8813 26.0386 11.2861 26.2353 11.7888ZM5.73537 22.1339C4.12778 21.5441 3.825 18.936 5.51888 18.2395C5.99959 17.9853 7.42237 17.9787 7.18468 18.7855C6.88246 19.3639 6.41493 18.7112 5.84586 19.0059C5.56309 19.1517 5.34926 19.4032 5.25083 19.7057C5.15241 20.0082 5.17735 20.3374 5.32023 20.6216C5.69487 21.5916 7.01931 21.7608 7.3962 20.7993C7.43774 20.697 7.51823 20.6154 7.61996 20.5724C7.72169 20.5294 7.83632 20.5286 7.93864 20.5702C8.3746 20.7472 8.15627 21.2517 7.94222 21.5244C7.69583 21.8585 7.34437 22.1002 6.94419 22.2107C6.54402 22.3212 6.11832 22.2942 5.73537 22.1339Z" fill="white"/>
<path d="M25.3264 20.8125C26.9483 19.6734 27.2222 18.5892 26.257 16.8267L26.0964 16.4918L22.5247 18.0167C22.2214 19.3652 21.5444 20.601 20.5713 21.5825C19.5981 22.564 18.3682 23.2516 17.0223 23.5664C16.9172 23.5844 16.8091 23.5614 16.7205 23.5021C16.6318 23.4428 16.5693 23.3517 16.5458 23.2476C16.5223 23.1435 16.5397 23.0344 16.5943 22.9428C16.649 22.8511 16.7367 22.784 16.8394 22.7551C17.2069 22.6708 17.5659 22.5533 17.9122 22.4042C18.769 22.0417 19.5376 21.4986 20.1654 20.812C20.7932 20.1253 21.2654 19.3112 21.5499 18.4254L12.5475 22.2574C12.8561 22.3827 13.3285 22.5475 13.1546 22.9758C13.1131 23.0781 13.0326 23.1597 12.9309 23.2027C12.8291 23.2457 12.7145 23.2465 12.6122 23.2049C12.2568 23.0603 11.914 22.8865 11.5872 22.6855L8.00085 24.2134C8.65517 26.2766 9.34454 27.0913 11.6123 26.6638C12.0775 26.565 12.5562 26.5465 13.0276 26.6093C14.1047 26.9118 15.1431 28.2726 16.3849 28.1252C17.6267 27.9777 18.405 26.5365 19.4429 26.0501C19.9055 25.9034 20.3892 25.8341 20.8744 25.8449C22.8831 25.8785 23.675 25.1124 23.9209 23.1451C23.9395 22.6693 24.0781 22.2059 24.3238 21.7981C24.5695 21.3903 24.9144 21.0513 25.3264 20.8125Z" fill="white"/>
<path d="M4.5153 15.918L4.67595 16.2529L8.24764 14.728C8.49989 13.5893 9.02086 12.5275 9.76705 11.6312C10.5132 10.735 11.463 10.0302 12.5371 9.57568C13.0119 9.41344 14.8115 8.61161 14.904 9.41316C14.9178 9.5225 14.8877 9.63287 14.8203 9.72007C14.7529 9.80726 14.6536 9.86417 14.5443 9.87833C13.3297 10.0439 12.1862 10.5483 11.2449 11.3337C10.3037 12.1192 9.60276 13.1539 9.22247 14.3193L18.2249 10.4873C17.9124 10.3604 17.4686 10.2027 17.6177 9.76894C17.948 9.14356 18.76 9.87768 19.1835 10.0631L22.7699 8.53519L22.6425 8.19586C22.0741 6.27531 21.1352 5.70987 19.1585 6.08473C18.7038 6.21399 18.2236 6.22505 17.7634 6.11686C17.3032 6.00867 16.8783 5.78481 16.5288 5.46649C14.946 4.26213 13.8485 4.31986 12.4839 5.78813C12.1545 6.15205 11.7661 6.45774 11.3349 6.69229C10.8723 6.83902 10.3886 6.90836 9.90335 6.89753C7.88697 6.86083 7.09593 7.61373 6.84367 9.59653C6.82605 10.072 6.68872 10.5353 6.4444 10.9436C6.20007 11.3519 5.85667 11.6919 5.44598 11.9322C3.82092 13.079 3.55171 14.1516 4.5153 15.918Z" fill="white"/>
</g>
</g>
<defs>
<clipPath id="clip0_4726_117633">
<rect width="70" height="70" fill="white"/>
</clipPath>
<clipPath id="clip1_4726_117633">
<rect width="26.649" height="26.649" fill="white" transform="translate(8.05298 -0.98584) rotate(22.0973)"/>
</clipPath>
</defs>
</svg>
