<svg width="70" height="70" viewBox="0 0 70 70" fill="none" xmlns="http://www.w3.org/2000/svg">
<g clip-path="url(#clip0_4726_117656)">
<path fill-rule="evenodd" clip-rule="evenodd" d="M35.837 6.76123H26.5097V3.9533C26.5097 2.87855 27.3864 2 28.463 2H62.5362C63.611 2 64.4895 2.87855 64.4895 3.9533V13.3427H46.5069C46.4122 13.3427 46.3681 13.3293 46.2925 13.2748L37.8611 7.39574C37.2534 6.97273 36.5777 6.76123 35.837 6.76123ZM65.993 14.9237H46.5069C46.0887 14.9237 45.7308 14.8099 45.3862 14.5706L36.9576 8.69156C36.6131 8.45326 36.2552 8.34129 35.837 8.34129H25.0072C23.9305 8.34129 23.051 9.21984 23.051 10.2975V37.6025C23.051 38.6773 23.9296 39.5558 25.0072 39.5558H31.627C30.2355 36.2656 29.3425 32.6489 28.7626 28.9921C28.6726 28.4389 28.82 27.8829 29.1722 27.4455C29.5225 27.0063 30.0345 26.7431 30.5963 26.7077C33.4281 26.5364 35.6905 24.2548 35.8379 21.4201C35.8925 20.3702 36.7605 19.5453 37.8104 19.5453H53.1899C54.2426 19.5453 55.1106 20.3702 55.1652 21.4201C55.3116 24.2548 57.574 26.5364 60.4068 26.7077C60.9686 26.7431 61.4787 27.0063 61.8309 27.4455C62.184 27.882 62.3305 28.4389 62.2405 28.9921C61.6596 32.6489 60.7676 36.2656 59.3761 39.5558H65.9959C67.0726 39.5558 67.9521 38.6773 67.9521 37.6025V16.8771C67.9492 15.8004 67.0697 14.9237 65.993 14.9237ZM60.6786 28.7433C58.5215 42.3044 52.9525 48.5309 45.6255 50.978C45.5413 51.0077 45.4599 51.0077 45.3757 50.978C38.0477 48.5309 32.4787 42.3044 30.3216 28.7433C30.3053 28.6294 30.3321 28.5232 30.4058 28.4342C30.4766 28.3442 30.5742 28.2954 30.691 28.2877C34.3239 28.0705 37.2285 25.1458 37.4161 21.5033C37.4266 21.2947 37.6008 21.1291 37.8094 21.1291H53.1889C53.4004 21.1291 53.5746 21.2947 53.5851 21.5033C53.7727 25.1468 56.6773 28.0714 60.3102 28.2877C60.4269 28.2954 60.5245 28.3452 60.5954 28.4342C60.6671 28.526 60.6949 28.6294 60.6786 28.7433ZM57.3606 30.3521C54.5096 29.3051 52.2768 26.9718 51.3677 24.0586C51.316 23.8902 51.1667 23.7792 50.9906 23.7792H40.0096C39.8335 23.7792 39.6842 23.8902 39.6325 24.0586C38.7234 26.9718 36.4906 29.3051 33.6396 30.3521C33.4549 30.42 33.3496 30.6095 33.3898 30.8028C34.2339 34.9018 35.6255 39.0984 38.0209 42.425C39.9493 45.1028 42.3591 46.9824 45.3566 48.1547C45.4513 48.193 45.5489 48.193 45.6437 48.1547C48.6411 46.9824 51.0499 45.1028 52.9793 42.425C55.3719 39.0993 56.7663 34.9027 57.6104 30.8028C57.6506 30.6095 57.5453 30.42 57.3606 30.3521ZM51.1322 34.0845V40.1128C51.1322 40.7531 50.6087 41.2766 49.9685 41.2766H41.0327C40.3924 41.2766 39.8689 40.7531 39.8689 40.1128V34.0845C39.8689 33.4442 40.3924 32.9207 41.0327 32.9207H41.0576V30.7636C41.0576 30.1664 41.1772 29.5912 41.3964 29.0677C41.6213 28.5222 41.9524 28.0313 42.3591 27.6245C42.7687 27.2149 43.2568 26.8838 43.8052 26.6589C44.3287 26.4388 44.9039 26.3201 45.5011 26.3201C46.0983 26.3201 46.6734 26.4397 47.1969 26.6589C47.7453 26.8838 48.2334 27.2149 48.643 27.6245C49.0497 28.0313 49.3809 28.5222 49.6058 29.0677C49.8259 29.5912 49.9446 30.1664 49.9446 30.7636V32.9207H49.9694C50.6087 32.9207 51.1322 33.4442 51.1322 34.0845ZM46.7021 36.2148C46.7021 35.5526 46.1652 35.0128 45.5001 35.0128C44.835 35.0128 44.2981 35.5526 44.2981 36.2148C44.2981 36.5842 44.4636 36.9125 44.7211 37.1317C44.7134 37.1776 44.7106 37.2264 44.7106 37.2781V38.393C44.7106 38.8294 45.0637 39.1855 45.5001 39.1855C45.9365 39.1855 46.2897 38.8304 46.2897 38.393V37.2781C46.2897 37.2264 46.2868 37.1776 46.2763 37.1317C46.5366 36.9115 46.7021 36.5833 46.7021 36.2148ZM48.3645 30.7645C48.3645 30.3769 48.286 30.0075 48.1473 29.6735C48.0037 29.3232 47.7893 29.0093 47.5204 28.7433C47.2543 28.4744 46.9395 28.26 46.5902 28.1164C46.2562 27.9777 45.8877 27.9021 45.4991 27.9021C45.1116 27.9021 44.7421 27.9777 44.4081 28.1164C44.0579 28.26 43.744 28.4744 43.4779 28.7433C43.209 29.0093 42.9946 29.3242 42.851 29.6735C42.7123 30.0075 42.6338 30.376 42.6338 30.7645V32.9217H48.3635V30.7645H48.3645Z" fill="white"/>
</g>
<path d="M26.2332 44.6498C24.1237 44.6498 22.1894 43.411 21.3054 41.4938C21.1666 41.1928 20.8654 41 20.5339 41H8.46571C8.13419 41 7.83297 41.1928 7.69415 41.4938C6.8101 43.411 4.87582 44.6498 2.76636 44.6498C2.29715 44.6498 1.91675 45.0301 1.91675 45.4994V52.5959C1.91675 55.6724 2.72325 58.7106 4.24898 61.3821C5.77477 64.0536 7.98183 66.292 10.6317 67.8551L14.0681 69.8822C14.2013 69.9607 14.3505 70 14.4997 70C14.649 70 14.7982 69.9607 14.9314 69.8822L18.3678 67.8551C21.0176 66.2919 23.2247 64.0536 24.7505 61.3821C26.2763 58.7106 27.0827 55.6724 27.0827 52.5959V45.4994C27.0828 45.0301 26.7024 44.6498 26.2332 44.6498ZM14.4998 46.7206C18.7129 46.7206 22.1405 50.1509 22.1405 54.3671C22.1405 58.5834 18.7128 62.0136 14.4998 62.0136C10.2868 62.0136 6.85915 58.5834 6.85915 54.3671C6.85915 50.1509 10.2867 46.7206 14.4998 46.7206Z" fill="white"/>
<path d="M10.4936 58.7553C10.8448 57.9409 11.4351 57.2599 12.1715 56.7939C11.6514 56.2291 11.333 55.4756 11.333 54.6489C11.333 52.9016 12.7536 51.4802 14.4997 51.4802C16.2458 51.4802 17.6664 52.9017 17.6664 54.6489C17.6664 55.475 17.3486 56.228 16.8291 56.7927C17.5659 57.2585 18.1554 57.9398 18.5061 58.755C19.6946 57.6668 20.4412 56.1027 20.4412 54.3672C20.4412 51.0879 17.7759 48.4199 14.4998 48.4199C11.2237 48.4199 8.55835 51.0879 8.55835 54.3672C8.55824 56.1029 9.30499 57.6671 10.4936 58.7553Z" fill="white"/>
<path d="M14.4996 60.3146C15.4141 60.3146 16.281 60.1065 17.0556 59.7354C16.7308 58.6162 15.7005 57.8176 14.4996 57.8176C13.3013 57.8176 12.269 58.6171 11.9436 59.7355C12.7183 60.1065 13.585 60.3146 14.4996 60.3146Z" fill="white"/>
<path d="M14.4997 56.1181C15.3102 56.1181 15.9672 55.4602 15.9672 54.6486C15.9672 53.8371 15.3102 53.1792 14.4997 53.1792C13.6892 53.1792 13.0322 53.8371 13.0322 54.6486C13.0322 55.4602 13.6892 56.1181 14.4997 56.1181Z" fill="white"/>
<defs>
<clipPath id="clip0_4726_117656">
<rect width="49" height="49" fill="white" transform="translate(21 2)"/>
</clipPath>
</defs>
</svg>
