<svg width="54" height="54" viewBox="0 0 54 54" fill="none" xmlns="http://www.w3.org/2000/svg">
<path d="M51.3838 37.125H49.2292L51.3913 32.492C51.8299 31.5528 51.9059 30.4847 51.6046 29.4929C51.3033 28.5011 50.646 27.6557 49.7591 27.1192L52.1358 22.3659C52.1862 22.267 52.2165 22.1591 52.2251 22.0485C52.2336 21.9379 52.2201 21.8266 52.1854 21.7212C52.1508 21.6158 52.0956 21.5183 52.023 21.4343C51.9505 21.3503 51.862 21.2816 51.7628 21.2319C51.6635 21.1823 51.5554 21.1528 51.4447 21.1451C51.334 21.1375 51.2229 21.1518 51.1178 21.1873C51.0126 21.2228 50.9156 21.2788 50.8321 21.3519C50.7487 21.4251 50.6806 21.5141 50.6318 21.6138L48.8613 25.155V21.1494C48.8613 20.9264 48.7727 20.7125 48.6151 20.5549C48.4574 20.3972 48.2435 20.3086 48.0205 20.3086C47.7975 20.3086 47.5836 20.3972 47.426 20.5549C47.2683 20.7125 47.1797 20.9264 47.1797 21.1494V26.3483C46.3077 26.3281 45.4512 26.5802 44.7292 27.0694C44.0071 27.5587 43.4555 28.2608 43.1511 29.0781C42.9316 28.4713 42.6584 27.8852 42.3349 27.3268C42.6989 26.825 42.9171 26.2323 42.9654 25.6142C43.0137 24.9961 42.8901 24.3768 42.6084 23.8245C42.3266 23.2723 41.8977 22.8087 41.3689 22.485C40.8402 22.1613 40.2323 21.99 39.6123 21.9902C39.6123 21.0982 39.258 20.2428 38.6272 19.612C37.9965 18.9813 37.141 18.627 36.249 18.627C35.357 18.627 34.5016 18.9813 33.8708 19.612C33.2401 20.2428 32.8857 21.0982 32.8857 21.9902C32.2659 21.9901 31.658 22.1613 31.1293 22.485C30.6006 22.8086 30.1717 23.2721 29.8899 23.8243C29.6082 24.3764 29.4845 24.9957 29.5326 25.6137C29.5808 26.2317 29.7988 26.8244 30.1626 27.3263C29.7714 27.998 29.4545 28.7103 29.2173 29.4505C29.1113 29.3963 29.0039 29.345 28.8951 29.2965C27.7564 26.4183 26.2489 24.0624 24.404 22.2781C24.6338 21.9864 24.7992 21.6492 24.889 21.2888C25.0475 20.6434 24.958 19.9621 24.6382 19.3796C24.3184 18.7971 23.7916 18.3558 23.1621 18.1431L21.0777 17.4481C21.9722 16.119 22.268 14.7302 21.93 13.3781C21.4072 11.2866 18.7672 10.1867 15.9723 9.02216C13.8402 8.13383 11.43 7.12947 11.0244 5.89746V2.65137C11.0244 2.42837 10.9358 2.2145 10.7781 2.05682C10.6205 1.89913 10.4066 1.81055 10.1836 1.81055H5.13867C4.91567 1.81055 4.70181 1.89913 4.54412 2.05682C4.38644 2.2145 4.29785 2.42837 4.29785 2.65137V5.2803C3.57636 5.46765 2.93736 5.88897 2.48092 6.4783C2.02447 7.06763 1.77634 7.79169 1.77539 8.53711V51.4189C1.77539 51.6419 1.86398 51.8558 2.02166 52.0135C2.17935 52.1712 2.39321 52.2598 2.61621 52.2598H43.8164C44.0394 52.2598 44.2533 52.1712 44.411 52.0135C44.5686 51.8558 44.6572 51.6419 44.6572 51.4189V48.8965C46.6635 48.8942 48.587 48.0962 50.0057 46.6776C51.4244 45.2589 52.2224 43.3354 52.2246 41.3291V37.9658C52.2246 37.7428 52.136 37.529 51.9783 37.3713C51.8207 37.2136 51.6068 37.125 51.3838 37.125ZM50.543 40.4883H20.2734V38.8066H50.543V40.4883ZM22.5796 31.8889L22.592 31.8762L22.6008 31.8677C23.4111 31.0611 24.4714 30.5537 25.6078 30.4286C26.7443 30.3034 27.8895 30.5681 28.8559 31.179C29.8222 31.79 30.5524 32.7111 30.9267 33.7914C31.3011 34.8717 31.2974 36.0471 30.9162 37.125H21.4021C21.0873 36.2297 21.0308 35.2638 21.239 34.3379C21.4473 33.4119 21.9118 32.5633 22.5796 31.8889ZM45.8584 28.3469C46.1639 28.1744 46.5023 28.0683 46.8516 28.0356C47.2009 28.0028 47.5531 28.0441 47.8853 28.1567L48.3787 28.3211C48.7161 28.4335 49.0259 28.6161 49.2878 28.8567C49.5497 29.0974 49.7577 29.3907 49.8982 29.7174C50.0388 30.0441 50.1086 30.3969 50.1032 30.7525C50.0978 31.1081 50.0173 31.4586 49.8668 31.7809L47.3729 37.125H42.9491L43.4431 35.0229L44.3445 35.3833C44.5516 35.4661 44.7831 35.4633 44.9881 35.3754C45.1931 35.2875 45.3547 35.1218 45.4375 34.9147C45.5203 34.7076 45.5174 34.4761 45.4295 34.2712C45.3417 34.0662 45.1759 33.9045 44.9689 33.8217L43.8326 33.3676L44.1304 32.1024L46.026 32.8608C46.233 32.9436 46.4645 32.9408 46.6695 32.853C46.8745 32.7652 47.0362 32.5995 47.119 32.3924C47.2019 32.1854 47.1991 31.9539 47.1113 31.7489C47.0234 31.5439 46.8578 31.3822 46.6507 31.2994L44.5206 30.4469L44.6323 29.9718C44.711 29.63 44.8609 29.3086 45.0721 29.0287C45.2834 28.7487 45.5513 28.5164 45.8584 28.3469ZM31.7679 26.6083C31.5131 26.3818 31.3333 26.0832 31.2523 25.7521C31.1712 25.421 31.1927 25.0731 31.314 24.7545C31.4353 24.436 31.6506 24.1618 31.9313 23.9685C32.212 23.7751 32.5449 23.6717 32.8857 23.6719C33.1362 23.6711 33.3836 23.7271 33.6093 23.8358C33.7663 23.9114 33.943 23.9362 34.1148 23.907C34.2866 23.8777 34.445 23.7958 34.5683 23.6726C34.6915 23.5493 34.7733 23.3908 34.8026 23.219C34.8318 23.0472 34.8069 22.8706 34.7313 22.7136C34.6226 22.488 34.5666 22.2406 34.5674 21.9902C34.5674 21.5442 34.7446 21.1165 35.0599 20.8011C35.3753 20.4858 35.803 20.3086 36.249 20.3086C36.695 20.3086 37.1228 20.4858 37.4381 20.8011C37.7535 21.1165 37.9307 21.5442 37.9307 21.9902C37.9314 22.2406 37.8754 22.488 37.7667 22.7136C37.6912 22.8706 37.6663 23.0472 37.6955 23.219C37.7247 23.3908 37.8066 23.5493 37.9298 23.6726C38.053 23.7958 38.2115 23.8777 38.3833 23.907C38.5551 23.9362 38.7317 23.9114 38.8888 23.8358C39.1144 23.7271 39.3618 23.6711 39.6123 23.6719C39.9532 23.6717 40.2861 23.7751 40.5668 23.9685C40.8475 24.1618 41.0628 24.436 41.184 24.7545C41.3053 25.0731 41.3268 25.421 41.2458 25.7521C41.1647 26.0832 40.9849 26.3818 40.7302 26.6083C40.5784 26.7432 40.4806 26.9283 40.4547 27.1297C40.4288 27.331 40.4766 27.5349 40.5893 27.7037C41.6172 29.2479 42.1558 31.066 42.1348 32.9209V33.2438L41.2215 37.125H37.0898V35.0525L39.2379 33.6205C39.4222 33.4962 39.5497 33.3041 39.5927 33.086C39.6357 32.868 39.5906 32.6418 39.4673 32.4569C39.3441 32.272 39.1526 32.1435 38.9348 32.0993C38.717 32.0552 38.4906 32.099 38.305 32.2213L37.0898 33.0315V26.1943C37.0898 25.9713 37.0013 25.7575 36.8436 25.5998C36.6859 25.4421 36.472 25.3535 36.249 25.3535C36.026 25.3535 35.8122 25.4421 35.6545 25.5998C35.4968 25.7575 35.4082 25.9713 35.4082 26.1943V28.8274L34.193 28.0172C34.1012 27.9553 33.998 27.9121 33.8894 27.8901C33.7808 27.8682 33.6689 27.8679 33.5602 27.8894C33.4515 27.9108 33.3481 27.9535 33.2559 28.015C33.1638 28.0765 33.0847 28.1557 33.0233 28.2479C32.9618 28.34 32.9192 28.4435 32.8978 28.5522C32.8764 28.6609 32.8768 28.7728 32.8988 28.8813C32.9208 28.9899 32.964 29.0931 33.0261 29.1849C33.0881 29.2767 33.1676 29.3554 33.2601 29.4164L35.4082 30.8484V37.125H32.6727C32.9633 35.9916 32.9541 34.8022 32.6461 33.6735C32.338 32.5447 31.7417 31.5155 30.9156 30.6869C30.8368 30.6081 30.7562 30.5315 30.6739 30.4571C30.9287 29.4767 31.3459 28.5459 31.9083 27.7034C32.021 27.5346 32.0688 27.3308 32.043 27.1296C32.0172 26.9283 31.9195 26.7432 31.7679 26.6083ZM14.1512 10.2174L14.477 10.2188C14.7569 10.3374 15.0398 10.456 15.3257 10.5745C17.5077 11.4837 19.9807 12.5141 20.2988 13.7859C20.5495 14.789 20.248 15.8316 19.4048 16.8904L17.1766 16.1476C17.0425 16.1029 16.8993 16.0928 16.7603 16.1181L8.50195 17.6194V9.23341C9.62214 9.71573 11.4238 10.202 14.1512 10.2174ZM9.34277 3.49219V6.01465C9.34276 6.08339 9.35119 6.15187 9.36789 6.21855C9.5595 6.9858 10.0366 7.61841 10.7006 8.17062C9.14508 7.81012 8.39422 7.29217 8.19558 7.13725C7.9867 6.68297 7.67955 6.28075 7.29631 5.95962C6.91307 5.63849 6.46331 5.40646 5.97949 5.2803V3.49219H9.34277ZM3.45703 8.53711C3.45703 8.09111 3.6342 7.66338 3.94957 7.34801C4.26494 7.03264 4.69267 6.85547 5.13867 6.85547C5.58467 6.85547 6.0124 7.03264 6.32777 7.34801C6.64314 7.66338 6.82031 8.09111 6.82031 8.53711V18.627C6.82031 18.7501 6.84737 18.8718 6.89956 18.9833C6.95176 19.0949 7.02782 19.1936 7.12238 19.2725C7.21693 19.3514 7.32766 19.4086 7.44675 19.44C7.56583 19.4714 7.69036 19.4762 7.81153 19.4542L16.8487 17.811L22.6304 19.7384C22.8656 19.8168 23.0614 19.9834 23.1765 20.203C23.2917 20.4227 23.3173 20.6784 23.2479 20.9166C23.1786 21.1547 23.0197 21.3567 22.8046 21.4802C22.5895 21.6037 22.3349 21.639 22.0943 21.5789L17.1141 20.3337C16.9542 20.2937 16.786 20.3016 16.6306 20.3565L6.81905 23.819C6.43864 23.9533 6.03158 23.9944 5.63202 23.9388C5.23246 23.8832 4.85205 23.7326 4.52272 23.4996C4.19338 23.2667 3.92473 22.9581 3.7393 22.5998C3.55387 22.2416 3.45708 21.8441 3.45703 21.4407V8.53711ZM3.45703 24.8017C3.48856 24.8253 3.51904 24.8499 3.55162 24.8727C4.25599 25.3767 5.1 25.6486 5.96614 25.6504C6.4476 25.6496 6.9254 25.5668 7.37904 25.4055L16.9519 22.0269L21.6869 23.2106C22.1002 23.3143 22.5327 23.3158 22.9467 23.2149C24.4927 24.6248 25.7958 26.4816 26.8355 28.7507C26.6122 28.7281 26.3868 28.7168 26.1592 28.7168C25.5035 28.7162 24.8512 28.8112 24.2229 28.9988C24.2486 28.8424 24.2627 28.6843 24.2649 28.5258C24.2689 28.1371 24.1935 27.7516 24.0432 27.3931C23.8928 27.0346 23.6708 26.7105 23.3908 26.4409C23.2331 26.2832 23.0192 26.1946 22.7962 26.1946C22.5732 26.1946 22.3593 26.2832 22.2016 26.4409C22.044 26.5986 21.9554 26.8125 21.9554 27.0355C21.9554 27.2585 22.044 27.4723 22.2016 27.63C22.3232 27.7403 22.4201 27.875 22.4859 28.0254C22.5517 28.1757 22.5849 28.3383 22.5834 28.5024C22.5785 29.0303 22.2659 29.6051 21.9495 30.0446L19.1867 27.2817C19.029 27.124 18.8151 27.0355 18.5921 27.0355C18.3691 27.0355 18.1552 27.124 17.9975 27.2817C17.8399 27.4394 17.7513 27.6533 17.7513 27.8763C17.7513 28.0993 17.8399 28.3132 17.9975 28.4709L20.7599 31.2333C20.3226 31.5472 19.7474 31.8614 19.2218 31.8676C19.0571 31.8694 18.8939 31.8363 18.7429 31.7705C18.592 31.7047 18.4566 31.6077 18.3459 31.4858C18.2678 31.4077 18.1751 31.3458 18.0731 31.3036C17.9711 31.2613 17.8617 31.2396 17.7513 31.2396C17.6409 31.2396 17.5315 31.2613 17.4295 31.3036C17.3275 31.3458 17.2348 31.4077 17.1567 31.4858C17.0786 31.5639 17.0167 31.6566 16.9745 31.7586C16.9322 31.8606 16.9105 31.97 16.9105 32.0804C16.9105 32.1908 16.9322 32.3002 16.9745 32.4022C17.0167 32.5042 17.0786 32.5969 17.1567 32.675C17.4223 32.9507 17.7407 33.1702 18.0929 33.3205C18.4451 33.4707 18.8239 33.5485 19.2068 33.5493H19.2416C19.4023 33.5471 19.5625 33.5328 19.721 33.5066C19.367 34.6834 19.3409 35.9345 19.6457 37.125H19.4326C19.2096 37.125 18.9958 37.2136 18.8381 37.3713C18.6804 37.529 18.5918 37.7428 18.5918 37.9658V41.3291C18.5941 43.3354 19.392 45.2589 20.8107 46.6776C22.2294 48.0962 24.1529 48.8942 26.1592 48.8965V50.5781H3.45703V24.8017ZM42.9756 50.5781H27.8408V48.8965H42.9756V50.5781ZM44.6572 47.2148H26.1592C24.7445 47.213 23.3776 46.7023 22.3082 45.7761C21.2388 44.8499 20.5383 43.5699 20.3345 42.1699H50.4819C50.2781 43.5699 49.5776 44.8499 48.5082 45.7761C47.4388 46.7023 46.072 47.213 44.6572 47.2148Z" fill="white"/>
</svg>
