<svg width="14" height="14" viewBox="0 0 14 14" fill="none" xmlns="http://www.w3.org/2000/svg">
<path fill-rule="evenodd" clip-rule="evenodd" d="M6.9987 0.333008C10.6807 0.333008 13.6654 3.31767 13.6654 6.99967C13.6677 8.53827 13.1356 10.0299 12.16 11.2197L12.1734 11.2343L12.0854 11.309C11.4602 12.0485 10.6811 12.6426 9.80251 13.0497C8.92393 13.4569 7.96705 13.6673 6.9987 13.6663C5.03204 13.6663 3.26537 12.815 2.04537 11.4617L1.91204 11.3083L1.82404 11.235L1.83737 11.219C0.861877 10.0295 0.329786 8.53805 0.332038 6.99967C0.332038 3.31767 3.3167 0.333008 6.9987 0.333008ZM6.9987 10.333C5.7587 10.333 4.63804 10.7277 3.80337 11.2703C4.72498 11.9619 5.84651 12.3348 6.9987 12.333C8.1509 12.3348 9.27243 11.9619 10.194 11.2703C9.24028 10.6592 8.13147 10.3339 6.9987 10.333ZM6.9987 1.66634C5.99505 1.66631 5.01176 1.94948 4.16185 2.48331C3.31194 3.01713 2.62991 3.77994 2.19414 4.68406C1.75838 5.58817 1.58657 6.5969 1.69847 7.59429C1.81037 8.59169 2.20143 9.53726 2.8267 10.3223C3.90737 9.54701 5.38204 8.99967 6.9987 8.99967C8.61537 8.99967 10.09 9.54701 11.1707 10.3223C11.796 9.53726 12.187 8.59169 12.2989 7.59429C12.4108 6.5969 12.239 5.58817 11.8033 4.68406C11.3675 3.77994 10.6855 3.01713 9.83556 2.48331C8.98565 1.94948 8.00236 1.66631 6.9987 1.66634ZM6.9987 2.99967C7.70595 2.99967 8.38423 3.28063 8.88432 3.78072C9.38442 4.28082 9.66537 4.9591 9.66537 5.66634C9.66537 6.37359 9.38442 7.05186 8.88432 7.55196C8.38423 8.05206 7.70595 8.33301 6.9987 8.33301C6.29146 8.33301 5.61318 8.05206 5.11309 7.55196C4.61299 7.05186 4.33204 6.37359 4.33204 5.66634C4.33204 4.9591 4.61299 4.28082 5.11309 3.78072C5.61318 3.28063 6.29146 2.99967 6.9987 2.99967ZM6.9987 4.33301C6.64508 4.33301 6.30594 4.47348 6.0559 4.72353C5.80585 4.97358 5.66537 5.31272 5.66537 5.66634C5.66537 6.01996 5.80585 6.3591 6.0559 6.60915C6.30594 6.8592 6.64508 6.99967 6.9987 6.99967C7.35233 6.99967 7.69146 6.8592 7.94151 6.60915C8.19156 6.3591 8.33204 6.01996 8.33204 5.66634C8.33204 5.31272 8.19156 4.97358 7.94151 4.72353C7.69146 4.47348 7.35233 4.33301 6.9987 4.33301Z" fill="#6C757D"/>
</svg>
