<svg width="54" height="54" viewBox="0 0 54 54" fill="none" xmlns="http://www.w3.org/2000/svg">
<path d="M4.29688 26.1787C4.29686 26.2159 4.29931 26.253 4.30423 26.2899L7.47297 50.055C7.55532 50.6602 7.85381 51.2152 8.31336 51.6176C8.7729 52.0199 9.36247 52.2425 9.97325 52.2441H45.4971C46.1658 52.2434 46.807 51.9774 47.2799 51.5045C47.7528 51.0316 48.0188 50.3904 48.0195 49.7216V46.4141L51.3754 21.245C51.3754 21.2413 51.3754 21.2377 51.3763 21.2344C51.3783 21.2174 51.3793 21.2002 51.3804 21.1828C51.3811 21.1702 51.3821 21.1577 51.3823 21.1451C51.3823 21.1414 51.3823 21.1379 51.3823 21.1346V17.7705C51.3823 17.5475 51.2937 17.3336 51.136 17.1759C50.9783 17.0182 50.7645 16.9297 50.5415 16.9297H33.7256C33.5026 16.9297 33.2887 17.0182 33.131 17.1759C32.9733 17.3336 32.8848 17.5475 32.8848 17.7705V21.1338C32.8848 21.1375 32.8848 21.1411 32.8848 21.1443C32.8848 21.1569 32.8859 21.1694 32.8867 21.182C32.8877 21.1993 32.8888 21.2166 32.8908 21.2336C32.8908 21.2372 32.8908 21.2408 32.8916 21.2441L34.4417 32.87C32.7513 32.7416 32.2287 32.2841 32.0757 32.0696C32.0212 31.9925 31.9847 31.9041 31.9691 31.8109C31.9534 31.7178 31.9589 31.6224 31.9852 31.5317C32.042 31.4071 32.066 31.2701 32.055 31.1337C32.0439 30.9973 31.9982 30.8659 31.9221 30.7521C31.8432 30.6349 31.7358 30.5396 31.6101 30.475C31.4844 30.4104 31.3444 30.3787 31.2031 30.3828C29.5302 30.3828 28.2408 30.7086 27.1787 31.1927L27.8325 26.2899C27.8374 26.253 27.8399 26.2159 27.8398 26.1787C27.8382 24.164 27.2804 22.1888 26.2279 20.4708C25.1754 18.7529 23.669 17.3589 21.8747 16.4425C21.9465 16.2891 21.9701 16.1177 21.9426 15.9506L21.1018 10.9057C21.0691 10.7094 20.9678 10.531 20.8159 10.4024C20.6641 10.2737 20.4715 10.2031 20.2725 10.2031H19.4316V6.83981H25.3174C25.5404 6.83981 25.7542 6.75123 25.9119 6.59354C26.0696 6.43586 26.1582 6.22199 26.1582 5.99899V2.63571C26.1582 2.52059 26.1345 2.40669 26.0887 2.30107C26.0429 2.19546 25.9759 2.10038 25.8918 2.02173C25.8077 1.94308 25.7084 1.88253 25.6 1.84384C25.4916 1.80514 25.3763 1.78913 25.2615 1.79678L12.6492 2.6376C12.4826 2.64871 12.3231 2.70913 12.1911 2.81118C12.059 2.91323 11.9602 3.05228 11.9075 3.21062L11.0666 5.73308C11.0245 5.85947 11.013 5.99407 11.0331 6.12577C11.0532 6.25747 11.1043 6.38252 11.1822 6.4906C11.2601 6.59869 11.3625 6.68671 11.4811 6.74743C11.5997 6.80814 11.731 6.83981 11.8643 6.83981H12.7051V10.2031H11.8643C11.6652 10.2031 11.4726 10.2737 11.3208 10.4024C11.1689 10.531 11.0676 10.7094 11.0349 10.9057L10.1941 15.9506C10.1666 16.1177 10.1902 16.2891 10.262 16.4425C8.46773 17.3589 6.96133 18.7529 5.9088 20.4708C4.85627 22.1888 4.29847 24.164 4.29688 26.1787ZM38.7705 50.5625H18.4822C18.2881 50.5623 18.102 50.4851 17.9647 50.3478C17.8274 50.2105 17.7502 50.0244 17.75 49.8302V41.2049C17.7502 41.0107 17.8274 40.8246 17.9647 40.6873C18.102 40.55 18.2881 40.4728 18.4822 40.4726H38.8791C39.0732 40.4728 39.2594 40.55 39.3966 40.6873C39.5339 40.8246 39.6111 41.0107 39.6113 41.2049V49.8302C39.6111 50.0244 39.5339 50.2105 39.3966 50.3478C39.2594 50.4851 39.0732 50.5623 38.8791 50.5625H38.7705ZM20.2725 37.1093H37.0889V38.791H20.2725V37.1093ZM46.3379 49.7216C46.3376 49.9446 46.249 50.1583 46.0913 50.3159C45.9337 50.4735 45.72 50.5622 45.4971 50.5625H41.1791C41.2547 50.3257 41.293 50.0787 41.293 49.8302V47.1992H46.3379V49.7216ZM46.443 45.5175H41.293V41.2049C41.2922 40.5649 41.0377 39.9513 40.5852 39.4988C40.1326 39.0463 39.5191 38.7917 38.8791 38.791H38.7705V36.2685C38.7705 36.245 38.7689 36.2219 38.767 36.1987C38.767 36.1955 38.7662 36.1895 38.7657 36.1842V36.1814C38.7024 35.6303 38.5358 35.0961 38.2745 34.6067C38.0638 34.1956 37.7641 33.8365 37.3972 33.5557C37.0303 33.2749 36.6054 33.0794 36.1535 32.9834L34.6859 21.9746H49.5817L46.443 45.5175ZM34.5664 18.6113H49.7012V20.2929H34.5664V18.6113ZM30.669 32.9917C31.38 34.0502 32.9741 34.5869 35.4072 34.5869C36.0378 34.5869 36.4722 34.8359 36.7757 35.3706C36.7862 35.3897 36.7967 35.4087 36.8063 35.4277H24.1635C24.5223 35.1528 24.864 34.864 25.2027 34.5774C26.5718 33.4189 27.8729 32.3177 30.3113 32.1024C30.3654 32.421 30.4874 32.7243 30.669 32.9917ZM13.3242 4.27794L24.4766 3.53444V5.15817H13.0309L13.3242 4.27794ZM14.3867 6.83981H17.75V10.2031H14.3867V6.83981ZM12.016 15.248L12.5765 11.8847H19.5602L20.1207 15.248H12.016ZM15.2275 16.9297H16.9092C19.3519 16.9324 21.6946 17.9002 23.4269 19.6223C25.1593 21.3445 26.141 23.6814 26.1582 26.124L25.3338 32.3062C24.9011 32.63 24.5024 32.9668 24.1164 33.2935C22.7634 34.4388 21.5945 35.4277 19.4316 35.4277C19.2086 35.4277 18.9948 35.5163 18.8371 35.674C18.6794 35.8317 18.5908 36.0455 18.5908 36.2685V38.791H18.4822C17.8423 38.7917 17.2287 39.0463 16.7762 39.4988C16.3236 39.9513 16.0691 40.5649 16.0684 41.2049V49.8302C16.0683 50.0787 16.1067 50.3257 16.1822 50.5625H9.97325C9.76965 50.5619 9.57313 50.4877 9.41995 50.3536C9.26677 50.2195 9.16726 50.0345 9.13979 49.8327L5.97852 26.124C5.9957 23.6814 6.9774 21.3445 8.70977 19.6223C10.4421 17.9002 12.7848 16.9324 15.2275 16.9297Z" fill="white"/>
<path d="M28.6816 42.1541C28.0164 42.1541 27.3662 42.3513 26.8131 42.7209C26.26 43.0904 25.8289 43.6157 25.5744 44.2303C25.3198 44.8448 25.2532 45.5211 25.383 46.1735C25.5128 46.8259 25.8331 47.4252 26.3034 47.8955C26.7738 48.3659 27.3731 48.6862 28.0255 48.816C28.6779 48.9458 29.3542 48.8792 29.9687 48.6246C30.5833 48.37 31.1085 47.939 31.4781 47.3859C31.8477 46.8328 32.0449 46.1825 32.0449 45.5173C32.0439 44.6256 31.6893 43.7708 31.0587 43.1402C30.4282 42.5097 29.5733 42.1551 28.6816 42.1541ZM28.6816 47.199C28.349 47.199 28.0239 47.1003 27.7474 46.9156C27.4708 46.7308 27.2553 46.4681 27.128 46.1609C27.0007 45.8536 26.9674 45.5155 27.0323 45.1893C27.0972 44.8631 27.2574 44.5634 27.4925 44.3282C27.7277 44.0931 28.0274 43.9329 28.3536 43.868C28.6798 43.8031 29.0179 43.8364 29.3252 43.9637C29.6325 44.091 29.8951 44.3065 30.0799 44.5831C30.2647 44.8596 30.3633 45.1847 30.3633 45.5173C30.3628 45.9632 30.1854 46.3906 29.8702 46.7059C29.5549 47.0211 29.1275 47.1984 28.6816 47.199Z" fill="white"/>
<path d="M42.1338 30.3828C44.5301 30.3828 46.3379 29.2985 46.3379 27.8604C46.3379 26.4222 44.5301 25.3379 42.1338 25.3379C39.7375 25.3379 37.9297 26.4222 37.9297 27.8604C37.9297 29.2985 39.7375 30.3828 42.1338 30.3828ZM42.1338 27.0195C43.7616 27.0195 44.6562 27.6511 44.6562 27.8604C44.6562 28.0696 43.7616 28.7012 42.1338 28.7012C40.506 28.7012 39.6113 28.0696 39.6113 27.8604C39.6113 27.6511 40.506 27.0195 42.1338 27.0195Z" fill="white"/>
<path d="M11.0225 29.542H21.1123C21.3353 29.542 21.5492 29.4534 21.7069 29.2957C21.8645 29.138 21.9531 28.9242 21.9531 28.7012V23.6562C21.9531 23.4333 21.8645 23.2194 21.7069 23.0617C21.5492 22.904 21.3353 22.8154 21.1123 22.8154H11.0225C10.7995 22.8154 10.5856 22.904 10.4279 23.0617C10.2702 23.2194 10.1816 23.4333 10.1816 23.6562V28.7012C10.1816 28.9242 10.2702 29.138 10.4279 29.2957C10.5856 29.4534 10.7995 29.542 11.0225 29.542ZM11.8633 24.4971H20.2715V27.8604H11.8633V24.4971Z" fill="white"/>
</svg>
