<svg width="171" height="46" viewBox="0 0 171 46" fill="none" xmlns="http://www.w3.org/2000/svg">
<path d="M41.6932 42.4057C40.4233 42.4057 39.4045 41.9775 38.6367 41.1211C37.8689 40.2647 37.485 39.0982 37.485 37.6216C37.485 36.8243 37.5883 35.7907 37.795 34.5208C38.0018 33.2215 38.2528 31.804 38.5481 30.2683C38.8729 28.7032 39.183 27.1232 39.4783 25.5286C39.7736 23.9043 40.0247 22.3392 40.2314 20.8331C40.4381 19.327 40.5415 17.9981 40.5415 16.8463C40.5415 15.3993 40.3495 14.3509 39.9656 13.7013V13.4355C40.6153 12.6972 41.324 12.1509 42.0919 11.7965C42.8597 11.4421 43.6127 11.2649 44.351 11.2649C45.4732 11.2649 46.433 11.6636 47.2303 12.4609C48.0276 13.2583 48.4263 14.4543 48.4263 16.049C48.4263 16.9054 48.3082 17.9538 48.0719 19.1941C47.8357 20.4344 47.5551 21.7338 47.2303 23.0922C46.9055 24.4507 46.5806 25.7205 46.2558 26.9018C46.8169 25.8091 47.5551 24.7312 48.4706 23.6681C49.4156 22.5754 50.4787 21.6747 51.66 20.966C52.8708 20.2572 54.1259 19.9028 55.4252 19.9028C56.9018 19.9028 57.8911 20.3606 58.3931 21.276C58.9247 22.1915 59.1905 23.3285 59.1905 24.6869C59.1905 25.9272 59.0576 27.2561 58.7918 28.6736C58.526 30.0616 58.2602 31.4053 57.9945 32.7047C57.7287 33.9745 57.5958 35.0376 57.5958 35.894C57.5958 37.1344 57.9649 37.7545 58.7032 37.7545C59.0281 37.7545 59.3086 37.6659 59.5449 37.4887C59.8106 37.282 60.0026 37.0605 60.1207 36.8243L60.4308 37.0458C60.4308 38.1975 60.1503 39.172 59.5892 39.9694C59.0281 40.7667 58.3045 41.3721 57.4186 41.7855C56.5622 42.199 55.6763 42.4057 54.7608 42.4057C53.55 42.4057 52.4573 42.007 51.4828 41.2097C50.5083 40.3828 50.021 39.0539 50.021 37.223C50.021 36.1894 50.1539 35.0672 50.4197 33.8564C50.715 32.6456 50.9955 31.4791 51.2613 30.3569C51.5271 29.2052 51.66 28.2454 51.66 27.4776C51.66 26.4736 51.3056 25.9715 50.5969 25.9715C49.9472 25.9715 49.2384 26.2964 48.4706 26.9461C47.7028 27.5957 47.0236 28.4079 46.433 29.3824C45.8719 30.3569 45.5027 31.3167 45.3255 32.2617C45.2665 32.4979 45.2369 32.7785 45.2369 33.1033C45.2369 33.8416 45.3403 34.5504 45.547 35.2296C45.7833 35.9088 45.9014 36.7062 45.9014 37.6216C45.9014 38.9801 45.547 40.117 44.8383 41.0325C44.1295 41.948 43.0811 42.4057 41.6932 42.4057ZM72.2235 42.5386C70.0677 42.5386 68.2811 42.1104 66.8636 41.254C65.446 40.368 64.3829 39.2163 63.6742 37.7988C62.9654 36.3518 62.611 34.8014 62.611 33.1476C62.611 31.5825 62.9064 30.0173 63.497 28.4522C64.1171 26.8575 65.0031 25.4104 66.1548 24.1111C67.3361 22.8117 68.7536 21.7633 70.4073 20.966C72.0906 20.1686 73.9806 19.7699 76.0773 19.7699C78.6761 19.7699 80.5661 20.3606 81.7473 21.5418C82.9581 22.6935 83.5635 24.0963 83.5635 25.75C83.5635 27.1675 83.1796 28.4817 82.4118 29.6925C81.6735 30.8737 80.6842 31.8335 79.4439 32.5718C78.2036 33.2805 76.8451 33.6349 75.3686 33.6349C74.6008 33.6349 73.8182 33.5168 73.0208 33.2805C72.2235 33.0443 71.4409 32.6751 70.6731 32.1731C70.8207 34.004 71.3523 35.333 72.2678 36.1598C73.1833 36.9867 74.2759 37.4001 75.5458 37.4001C76.4317 37.4001 77.3176 37.2377 78.2036 36.9129C79.0895 36.5585 79.9016 36.1155 80.6399 35.584C81.4077 35.0229 81.9984 34.4322 82.4118 33.8121L82.7219 34.0336C82.7219 35.5692 82.397 36.8833 81.7473 37.976C81.1272 39.0391 80.3003 39.9103 79.2667 40.5895C78.2331 41.2687 77.0962 41.7708 75.8558 42.0956C74.6451 42.3909 73.4343 42.5386 72.2235 42.5386ZM73.2423 30.5784C74.1873 30.5784 74.9551 30.3126 75.5458 29.7811C76.1364 29.22 76.5794 28.5703 76.8747 27.832C77.17 27.0937 77.3176 26.444 77.3176 25.8829C77.3176 25.2037 77.1257 24.6426 76.7418 24.1996C76.3579 23.7271 75.8263 23.4909 75.1471 23.4909C74.6155 23.4909 74.0249 23.6828 73.3752 24.0668C72.755 24.4507 72.194 25.1151 71.6919 26.0601C71.1899 26.9756 70.865 28.2602 70.7174 29.914C71.6624 30.3569 72.504 30.5784 73.2423 30.5784ZM92.0457 42.4057C90.5101 42.4057 89.255 41.9627 88.2804 41.0768C87.3354 40.1613 86.8629 38.7586 86.8629 36.8686C86.8629 35.9236 86.9663 34.9343 87.173 33.9007C87.4093 32.8376 87.6603 31.804 87.9261 30.7999C88.2214 29.7663 88.4724 28.8361 88.6791 28.0092C88.8858 27.1823 88.9892 26.5179 88.9892 26.0158C88.9892 25.5138 88.8858 25.1594 88.6791 24.9527C88.4724 24.7164 88.2214 24.5983 87.9261 24.5983C87.6308 24.5983 87.3354 24.7017 87.0401 24.9084C86.7448 25.0856 86.4938 25.3661 86.2871 25.75L85.9327 25.6171C85.9918 24.4064 86.3314 23.3728 86.9515 22.5164C87.5717 21.66 88.3395 21.0103 89.255 20.5673C90.2 20.1243 91.145 19.9028 92.09 19.9028C92.8578 19.9028 93.5961 20.0653 94.3048 20.3901C95.0136 20.6854 95.5747 21.1579 95.9881 21.8076C96.4311 22.4278 96.6378 23.2251 96.6083 24.1996C96.5788 24.8493 96.4606 25.6467 96.2539 26.5917C96.0472 27.5367 95.7962 28.5555 95.5009 29.6482C95.2351 30.7113 94.9988 31.7449 94.7921 32.749C94.5854 33.753 94.482 34.639 94.482 35.4068C94.482 36.0565 94.5706 36.5733 94.7478 36.9572C94.9545 37.3411 95.2941 37.533 95.7666 37.533C96.2687 37.533 96.9331 37.2673 97.76 36.7357C98.5869 36.2041 99.4138 35.4363 100.241 34.4322C100.063 32.7785 99.9749 31.3167 99.9749 30.0468C99.9749 26.7984 100.447 24.4507 101.392 23.0036C102.367 21.5566 103.578 20.8331 105.025 20.8331C106.088 20.8331 106.811 21.1875 107.195 21.8962C107.579 22.605 107.771 23.55 107.771 24.7312C107.771 26.4736 107.476 28.1125 106.885 29.6482C106.295 31.1838 105.601 32.4094 104.803 33.3248C104.862 34.6537 105.128 35.6873 105.601 36.4256C106.103 37.1639 106.693 37.533 107.372 37.533C108.052 37.533 108.746 37.1491 109.454 36.3813C110.193 35.6135 110.828 34.4322 111.359 32.8376C111.891 31.2429 112.201 29.22 112.289 26.7689C112.319 24.7903 112.186 23.3432 111.891 22.4278V22.2063C112.304 21.5271 112.954 20.9512 113.84 20.4787C114.755 19.9767 115.671 19.7257 116.586 19.7257C117.236 19.7257 117.827 19.9176 118.358 20.3015C118.919 20.6559 119.362 21.3351 119.687 22.3392C120.012 23.3137 120.13 24.7312 120.041 26.5917C119.953 29.1904 119.525 31.4791 118.757 33.4577C117.989 35.4068 117 37.0458 115.789 38.3747C114.608 39.7036 113.323 40.7077 111.935 41.3869C110.547 42.0661 109.174 42.4057 107.815 42.4057C106.28 42.4057 104.877 41.9923 103.607 41.1654C102.337 40.309 101.378 39.113 100.728 37.5773C99.399 38.9653 98.0258 40.117 96.6083 41.0325C95.2203 41.948 93.6994 42.4057 92.0457 42.4057ZM131.704 42.5386C129.549 42.5386 127.762 42.1104 126.344 41.254C124.927 40.368 123.864 39.2163 123.155 37.7988C122.446 36.3518 122.092 34.8014 122.092 33.1476C122.092 31.5825 122.387 30.0173 122.978 28.4522C123.598 26.8575 124.484 25.4104 125.636 24.1111C126.817 22.8117 128.234 21.7633 129.888 20.966C131.571 20.1686 133.461 19.7699 135.558 19.7699C138.157 19.7699 140.047 20.3606 141.228 21.5418C142.439 22.6935 143.044 24.0963 143.044 25.75C143.044 27.1675 142.66 28.4817 141.893 29.6925C141.154 30.8737 140.165 31.8335 138.925 32.5718C137.684 33.2805 136.326 33.6349 134.849 33.6349C134.082 33.6349 133.299 33.5168 132.502 33.2805C131.704 33.0443 130.922 32.6751 130.154 32.1731C130.302 34.004 130.833 35.333 131.749 36.1598C132.664 36.9867 133.757 37.4001 135.027 37.4001C135.913 37.4001 136.798 37.2377 137.684 36.9129C138.57 36.5585 139.382 36.1155 140.121 35.584C140.889 35.0229 141.479 34.4322 141.893 33.8121L142.203 34.0336C142.203 35.5692 141.878 36.8833 141.228 37.976C140.608 39.0391 139.781 39.9103 138.748 40.5895C137.714 41.2687 136.577 41.7708 135.337 42.0956C134.126 42.3909 132.915 42.5386 131.704 42.5386ZM132.723 30.5784C133.668 30.5784 134.436 30.3126 135.027 29.7811C135.617 29.22 136.06 28.5703 136.355 27.832C136.651 27.0937 136.798 26.444 136.798 25.8829C136.798 25.2037 136.606 24.6426 136.223 24.1996C135.839 23.7271 135.307 23.4909 134.628 23.4909C134.096 23.4909 133.506 23.6828 132.856 24.0668C132.236 24.4507 131.675 25.1151 131.173 26.0601C130.671 26.9756 130.346 28.2602 130.198 29.914C131.143 30.3569 131.985 30.5784 132.723 30.5784ZM150.157 42.4057C149.36 42.4057 148.578 42.2137 147.81 41.8298C147.071 41.4164 146.466 40.7667 145.994 39.8808C145.521 38.9948 145.285 37.8579 145.285 36.4699C145.285 35.2296 145.447 33.7826 145.772 32.1288C146.126 30.4455 146.51 28.7032 146.924 26.9018C147.367 25.1004 147.751 23.3432 148.075 21.6304C148.4 19.9176 148.548 18.3967 148.518 17.0678C148.518 15.798 148.371 14.8973 148.075 14.3657L148.031 14.2328C148.356 13.2878 148.932 12.5495 149.759 12.018C150.586 11.4864 151.457 11.2206 152.372 11.2206C153.406 11.2206 154.321 11.6193 155.119 12.4166C155.946 13.1845 156.359 14.4838 156.359 16.3148C156.359 17.2893 156.241 18.4558 156.005 19.8142C155.768 21.1432 155.488 22.5754 155.163 24.1111C154.838 25.6171 154.499 27.1085 154.144 28.585C153.819 30.0616 153.539 31.4201 153.303 32.6604C153.066 33.9007 152.948 34.9195 152.948 35.7169C152.948 36.5437 153.066 37.1196 153.303 37.4444C153.539 37.7398 153.805 37.8874 154.1 37.8874C154.425 37.8874 154.735 37.7693 155.03 37.533C155.325 37.2673 155.517 37.031 155.606 36.8243L155.96 36.9129C155.931 37.976 155.621 38.921 155.03 39.7479C154.469 40.5748 153.745 41.2245 152.86 41.697C152.003 42.1695 151.102 42.4057 150.157 42.4057ZM163.697 42.4057C162.9 42.4057 162.118 42.2137 161.35 41.8298C160.611 41.4164 160.006 40.7667 159.534 39.8808C159.061 38.9948 158.825 37.8579 158.825 36.4699C158.825 35.2296 158.987 33.7826 159.312 32.1288C159.666 30.4455 160.05 28.7032 160.464 26.9018C160.907 25.1004 161.291 23.3432 161.615 21.6304C161.94 19.9176 162.088 18.3967 162.058 17.0678C162.058 15.798 161.911 14.8973 161.615 14.3657L161.571 14.2328C161.896 13.2878 162.472 12.5495 163.299 12.018C164.126 11.4864 164.997 11.2206 165.912 11.2206C166.946 11.2206 167.861 11.6193 168.659 12.4166C169.486 13.1845 169.899 14.4838 169.899 16.3148C169.899 17.2893 169.781 18.4558 169.545 19.8142C169.308 21.1432 169.028 22.5754 168.703 24.1111C168.378 25.6171 168.039 27.1085 167.684 28.585C167.359 30.0616 167.079 31.4201 166.843 32.6604C166.606 33.9007 166.488 34.9195 166.488 35.7169C166.488 36.5437 166.606 37.1196 166.843 37.4444C167.079 37.7398 167.345 37.8874 167.64 37.8874C167.965 37.8874 168.275 37.7693 168.57 37.533C168.865 37.2673 169.057 37.031 169.146 36.8243L169.5 36.9129C169.471 37.976 169.161 38.921 168.57 39.7479C168.009 40.5748 167.285 41.2245 166.4 41.697C165.543 42.1695 164.642 42.4057 163.697 42.4057Z" fill="#029898"/>
<path d="M7.9296 10.5555L9.79207 25.0826C9.80097 25.1521 9.86192 25.2033 9.93185 25.1992C12.6756 25.04 14.9866 23.6056 16.5282 21.2946C16.5516 21.2597 16.6008 21.254 16.6326 21.2815C16.8027 21.4289 16.8469 21.4024 17.01 21.6498C17.7391 22.8456 17.6736 24.0429 16.9757 25.2251C16.4245 26.1591 16.1966 27.0556 16.9476 28.0333C17.1318 28.2739 17.0662 29.0561 16.9507 29.0922C15.8999 29.417 15.9078 30.4789 15.3316 31.1167C15.0756 31.401 14.7743 31.7935 14.7868 32.1274C14.818 32.9336 14.398 32.9712 13.8094 32.8118C13.1213 32.6251 12.4504 32.3645 11.7636 32.179C11.7142 32.1656 11.6617 32.1819 11.6281 32.2205L11.5825 32.2729C11.5453 32.3156 11.5388 32.3773 11.5668 32.4265C12.8652 34.7142 15.0556 36.1753 17.1537 36.9242C17.1983 36.9402 17.2478 36.931 17.2842 36.9007C17.9778 36.3229 18.5301 35.8762 19.0631 35.4109C19.1896 35.3011 19.2895 35.1311 19.3332 34.9717C20.0686 32.2478 22.9897 31.4641 25.1256 33.424C27.5003 35.6019 27.1209 38.0988 24.1935 39.4916C23.7282 39.7127 23.2114 39.839 22.7493 40.0661C22.5229 40.1774 22.2403 40.3955 22.1982 40.6061C22.0071 41.5901 21.8357 42.5797 21.666 43.5855C21.6173 43.8742 21.3882 44.1006 21.0969 44.1304C19.4917 44.2949 17.8493 44.1312 16.1966 43.7407C13.366 43.0728 11.6907 41.3025 11.2302 38.5229C11.1129 37.8154 11.224 37.2539 11.0755 36.31C11.0653 36.2451 11.0089 36.1977 10.9432 36.198C10.4355 36.2007 9.799 36.2164 9.33788 36.4382C6.77581 37.088 5.89681 39.5427 7.47683 41.5958C8.58534 43.0352 10.1591 43.8144 11.8609 44.3784C14.8367 45.3636 17.9218 45.5245 21.0288 45.3952C21.1412 45.3907 21.2536 45.3832 21.366 45.3771C21.4559 45.3771 21.4532 45.3771 21.4532 45.3771C21.4532 45.3771 21.4669 45.3696 21.4971 45.3696C24.3449 45.1861 27.0272 44.413 29.4909 42.9721C33.8562 40.4211 35.6626 36.5345 34.6744 31.8417C34.0014 28.6409 31.978 26.3592 29.2427 24.6069C26.5057 22.8531 23.4706 21.6408 20.5073 20.3051C18.3699 19.3425 16.2653 18.3122 14.4152 16.8908C13.8953 16.3614 13.3067 15.7266 12.6978 15.0573C10.4292 11.5708 11.7953 7.77118 16.1482 6.09861C18.6056 5.15403 21.1724 5.06829 23.7298 5.77071C24.3133 5.931 26 6 27.5 7.5C29.621 9.62104 28.5 12.5 25.3473 14.03C25.2722 14.0634 25.2023 14.1066 25.06 14.1894C24.9754 14.2387 24.968 14.359 25.0468 14.417C25.4568 14.7189 25.8662 15.0079 26.3886 15.1415C28.3691 15.648 30.5969 14.9852 31.8203 13.4389C33.3067 11.5603 33.0943 8.37907 31.3676 6.48088C30.1966 5.19337 28.6681 4.45334 27.0428 3.88479C23.7501 2.72964 20.3605 2.63939 16.9351 3.1192C14.4714 3.46515 12.1685 4.23826 10.1685 5.70928C10.1685 5.70928 8.06699 7.08554 7.9296 10.554V10.5555Z" fill="#029898"/>
</svg>
