<svg width="24" height="24" viewBox="0 0 24 24" fill="none" xmlns="http://www.w3.org/2000/svg">
<path d="M18.6702 19.7047H5.32979C2.94236 19.7047 1 17.7624 1 15.3749V8.62471C1 6.23724 2.94236 4.29492 5.32979 4.29492H18.6702C21.0577 4.29492 23 6.23724 23 8.62471V15.375C23 17.7624 21.0577 19.7047 18.6702 19.7047ZM5.32979 5.58398C3.65315 5.58398 2.28906 6.94803 2.28906 8.62471V15.375C2.28906 17.0517 3.65315 18.4157 5.32979 18.4157H18.6702C20.3469 18.4157 21.7109 17.0516 21.7109 15.375V8.62471C21.7109 6.94803 20.3469 5.58398 18.6702 5.58398H5.32979Z" fill="white"/>
<path d="M9.86401 16.1279C9.75556 16.1279 9.64698 16.1006 9.54897 16.0457C9.34551 15.9317 9.21948 15.7167 9.21948 15.4834V8.43311C9.21948 8.1985 9.34697 7.98241 9.55232 7.86897C9.75767 7.75549 10.0085 7.76258 10.2071 7.88749L15.8883 11.4595C16.0771 11.5782 16.1911 11.786 16.1898 12.009C16.1885 12.2319 16.072 12.4384 15.8818 12.5548L10.2006 16.0332C10.0974 16.0962 9.9808 16.1279 9.86401 16.1279ZM10.5085 9.59966V14.3331L14.3228 11.9978L10.5085 9.59966Z" fill="white"/>
</svg>
