<svg width="30" height="30" viewBox="0 0 30 30" fill="none" xmlns="http://www.w3.org/2000/svg">
<rect width="30" height="30" rx="3" fill="#FF0000"/>
<path d="M19.0924 9H10.9076C9.30178 9 8 10.5768 8 12.522V17.478C8 19.4232 9.30178 21 10.9076 21H19.0924C20.6982 21 22 19.4232 22 17.478V12.522C22 10.5768 20.6982 9 19.0924 9ZM17.126 15.2411L13.2977 17.4528C13.1957 17.5117 13.0779 17.4216 13.0779 17.2847V12.7232C13.0779 12.5844 13.1988 12.4944 13.301 12.5572L17.1293 14.907C17.2431 14.9769 17.2411 15.1746 17.126 15.2411Z" fill="white"/>
</svg>
