<svg width="36" height="36" viewBox="0 0 36 36" fill="none" xmlns="http://www.w3.org/2000/svg">
<rect x="0.5" y="0.5" width="35" height="35" rx="5.5" stroke="#CA0000"/>
<path d="M10.5 13H12.1667H25.5" stroke="#CA0000" stroke-width="1.25" stroke-linecap="round" stroke-linejoin="round"/>
<path d="M14.6719 13.0003V11.3337C14.6719 10.8916 14.8475 10.4677 15.16 10.1551C15.4726 9.84259 15.8965 9.66699 16.3385 9.66699H19.6719C20.1139 9.66699 20.5378 9.84259 20.8504 10.1551C21.1629 10.4677 21.3385 10.8916 21.3385 11.3337V13.0003M23.8385 13.0003V24.667C23.8385 25.109 23.6629 25.5329 23.3504 25.8455C23.0378 26.1581 22.6139 26.3337 22.1719 26.3337H13.8385C13.3965 26.3337 12.9726 26.1581 12.66 25.8455C12.3475 25.5329 12.1719 25.109 12.1719 24.667V13.0003H23.8385Z" stroke="#CA0000" stroke-width="1.25" stroke-linecap="round" stroke-linejoin="round"/>
<path d="M16.3281 17.167V22.167" stroke="#CA0000" stroke-width="1.25" stroke-linecap="round" stroke-linejoin="round"/>
<path d="M19.6719 17.167V22.167" stroke="#CA0000" stroke-width="1.25" stroke-linecap="round" stroke-linejoin="round"/>
</svg>
