<svg width="12" height="12" viewBox="0 0 12 12" fill="none" xmlns="http://www.w3.org/2000/svg">
<g clip-path="url(#clip0_2346_20951)">
<path d="M6 0C2.68352 0 0 2.68376 0 6C0 9.31648 2.68376 12 6 12C9.31648 12 12 9.31624 12 6C12 2.68352 9.31622 0 6 0ZM6 11.0625C3.20173 11.0625 0.9375 8.79809 0.9375 6C0.9375 3.20173 3.20191 0.9375 6 0.9375C8.79827 0.9375 11.0625 3.20191 11.0625 6C11.0625 8.79827 8.79806 11.0625 6 11.0625Z" fill="#121212"/>
<path d="M6 5.02335C5.74111 5.02335 5.53125 5.23321 5.53125 5.4921V8.51068C5.53125 8.76957 5.74111 8.97943 6 8.97943C6.25889 8.97943 6.46875 8.76955 6.46875 8.51066V5.4921C6.46875 5.23321 6.25889 5.02335 6 5.02335Z" fill="#121212"/>
<path d="M6 4.44937C6.34949 4.44937 6.63281 4.16605 6.63281 3.81656C6.63281 3.46707 6.34949 3.18375 6 3.18375C5.65051 3.18375 5.36719 3.46707 5.36719 3.81656C5.36719 4.16605 5.65051 4.44937 6 4.44937Z" fill="#121212"/>
</g>
<defs>
<clipPath id="clip0_2346_20951">
<rect width="12" height="12" fill="white"/>
</clipPath>
</defs>
</svg>
