<svg width="22" height="22" viewBox="0 0 22 22" fill="none" xmlns="http://www.w3.org/2000/svg">
<path d="M11.0938 18.2725H19.2756H11.0938Z" fill="white"/>
<path d="M11.0938 18.2725H19.2756" stroke="white" stroke-width="1.2" stroke-linecap="round" stroke-linejoin="round"/>
<path d="M15.1868 3.27284C15.5484 2.91119 16.039 2.70801 16.5504 2.70801C16.8037 2.70801 17.0544 2.75789 17.2884 2.8548C17.5224 2.95172 17.735 3.09377 17.9141 3.27284C18.0931 3.45192 18.2352 3.66451 18.3321 3.89849C18.429 4.13246 18.4789 4.38323 18.4789 4.63648C18.4789 4.88973 18.429 5.1405 18.3321 5.37448C18.2352 5.60845 18.0931 5.82104 17.9141 6.00012L6.55043 17.3638L2.91406 18.2728L3.82315 14.6365L15.1868 3.27284Z" stroke="white" stroke-width="1.2" stroke-linecap="round" stroke-linejoin="round"/>
</svg>
