<svg width="20" height="21" viewBox="0 0 20 21" fill="none" xmlns="http://www.w3.org/2000/svg">
<g clip-path="url(#clip0_4616_30594)">
<path d="M19.6757 9.30851C18.5533 7.86933 17.0993 6.6789 15.4712 5.86601C13.8091 5.03621 12.0211 4.60566 10.1546 4.58309C10.1032 4.58168 9.8968 4.58168 9.84539 4.58309C7.97891 4.6057 6.19087 5.03621 4.52884 5.86601C2.90068 6.6789 1.44681 7.86929 0.324316 9.30851C-0.108105 9.86292 -0.108105 10.6373 0.324316 11.1917C1.44677 12.6309 2.90068 13.8214 4.52884 14.6342C6.19087 15.464 7.97887 15.8946 9.84539 15.9172C9.8968 15.9186 10.1032 15.9186 10.1546 15.9172C12.0211 15.8945 13.8091 15.464 15.4712 14.6342C17.0993 13.8214 18.5532 12.631 19.6757 11.1917C20.1081 10.6373 20.1081 9.86292 19.6757 9.30851ZM4.89231 13.9063C3.37201 13.1473 2.01427 12.0355 0.965877 10.6914C0.76326 10.4316 0.76326 10.0687 0.965877 9.8089C2.01423 8.46472 3.37197 7.353 4.89231 6.59394C5.32411 6.37839 5.76505 6.19199 6.21415 6.03418C5.05876 7.07277 4.33083 8.57792 4.33083 10.2501C4.33083 11.9224 5.0588 13.4276 6.2143 14.4662C5.7652 14.3084 5.32415 14.1219 4.89231 13.9063ZM10 15.1057C7.32262 15.1057 5.14442 12.9275 5.14442 10.2501C5.14442 7.57265 7.32262 5.39449 10 5.39449C12.6775 5.39449 14.8557 7.57269 14.8557 10.2501C14.8557 12.9275 12.6775 15.1057 10 15.1057ZM19.0342 10.6913C17.9858 12.0355 16.6281 13.1472 15.1078 13.9063C14.6765 14.1216 14.2358 14.3072 13.7873 14.4648C14.9419 13.4263 15.6692 11.9216 15.6692 10.2501C15.6692 8.57765 14.9411 7.0723 13.7855 6.03371C14.2348 6.19156 14.6759 6.3782 15.1078 6.59386C16.6281 7.35292 17.9858 8.46464 19.0342 9.80882C19.2368 10.0687 19.2368 10.4315 19.0342 10.6913Z" fill="white"/>
<path d="M9.9998 8.17188C8.85402 8.17188 7.92188 9.10402 7.92188 10.2498C7.92188 11.3956 8.85402 12.3277 9.9998 12.3277C11.1456 12.3277 12.0777 11.3956 12.0777 10.2498C12.0778 9.10402 11.1456 8.17188 9.9998 8.17188ZM9.9998 11.5142C9.30265 11.5142 8.73543 10.947 8.73543 10.2498C8.73543 9.55261 9.30258 8.98547 9.9998 8.98547C10.6969 8.98547 11.2641 9.55261 11.2641 10.2498C11.2642 10.947 10.6969 11.5142 9.9998 11.5142Z" fill="white"/>
</g>
<defs>
<clipPath id="clip0_4616_30594">
<rect width="20" height="20" fill="white" transform="translate(0 0.25)"/>
</clipPath>
</defs>
</svg>
