<svg width="4" height="17" viewBox="0 0 4 17" fill="none" xmlns="http://www.w3.org/2000/svg">
<path d="M2 4.97266C3.1 4.97266 4 4.07266 4 2.97266C4 1.87266 3.1 0.972656 2 0.972656C0.9 0.972656 0 1.87266 0 2.97266C0 4.07266 0.9 4.97266 2 4.97266ZM2 6.97266C0.9 6.97266 0 7.87266 0 8.97266C0 10.0727 0.9 10.9727 2 10.9727C3.1 10.9727 4 10.0727 4 8.97266C4 7.87266 3.1 6.97266 2 6.97266ZM2 12.9727C0.9 12.9727 0 13.8727 0 14.9727C0 16.0727 0.9 16.9727 2 16.9727C3.1 16.9727 4 16.0727 4 14.9727C4 13.8727 3.1 12.9727 2 12.9727Z" fill="#434343"/>
</svg>
