<svg width="22" height="22" viewBox="0 0 22 22" fill="none" xmlns="http://www.w3.org/2000/svg">
<path d="M19.464 14.5358C18.8857 15.9035 17.9811 17.1087 16.8293 18.0461C15.6776 18.9834 14.3138 19.6244 12.8571 19.9129C11.4005 20.2014 9.8953 20.1287 8.47323 19.7011C7.05116 19.2735 5.75548 18.5041 4.69948 17.46C3.64347 16.416 2.85929 15.1292 2.41549 13.7121C1.97169 12.295 1.88179 10.7908 2.15364 9.33094C2.42549 7.87107 3.05082 6.50002 3.97495 5.33766C4.89909 4.1753 6.0939 3.25701 7.45491 2.66309" stroke="white" stroke-width="1.2" stroke-linecap="round" stroke-linejoin="round"/>
<path d="M20.1768 11.0001C20.1768 9.80625 19.9417 8.62411 19.4848 7.52115C19.028 6.41819 18.3583 5.41601 17.5142 4.57185C16.67 3.72768 15.6678 3.05804 14.5649 2.60118C13.4619 2.14432 12.2798 1.90918 11.0859 1.90918V11.0001H20.1768Z" stroke="white" stroke-width="1.2" stroke-linecap="round" stroke-linejoin="round"/>
</svg>
