<svg width="26" height="26" viewBox="0 0 26 26" fill="none" xmlns="http://www.w3.org/2000/svg">
<g clip-path="url(#clip0_4971_20087)">
<path d="M12.8138 12.5244C14.5344 12.5244 16.0241 11.9073 17.2416 10.6898C18.4588 9.47239 19.0761 7.98288 19.0761 6.26207C19.0761 4.54186 18.459 3.05215 17.2414 1.83439C16.0239 0.617232 14.5342 0.00012207 12.8138 0.00012207C11.0929 0.00012207 9.60342 0.617232 8.38606 1.83459C7.1687 3.05195 6.55139 4.54166 6.55139 6.26207C6.55139 7.98288 7.1687 9.47259 8.38606 10.69C9.60382 11.9071 11.0935 12.5244 12.8138 12.5244ZM9.46358 2.91191C10.3977 1.97781 11.4934 1.52376 12.8138 1.52376C14.1339 1.52376 15.2298 1.97781 16.1641 2.91191C17.0982 3.8462 17.5525 4.94216 17.5525 6.26207C17.5525 7.58238 17.0982 8.67815 16.1641 9.61244C15.2298 10.5467 14.1339 11.0008 12.8138 11.0008C11.4938 11.0008 10.3981 10.5465 9.46358 9.61244C8.52928 8.67834 8.07503 7.58238 8.07503 6.26207C8.07503 4.94216 8.52928 3.8462 9.46358 2.91191Z" fill="#121212"/>
<path d="M23.7728 19.9935C23.7377 19.4869 23.6667 18.9342 23.5621 18.3507C23.4566 17.7627 23.3207 17.2069 23.158 16.6989C22.9898 16.1738 22.7615 15.6553 22.4788 15.1584C22.1859 14.6426 21.8415 14.1935 21.4551 13.824C21.051 13.4374 20.5563 13.1265 19.9842 12.8998C19.4141 12.6743 18.7823 12.56 18.1065 12.56C17.8411 12.56 17.5844 12.6689 17.0887 12.9917C16.7836 13.1906 16.4268 13.4207 16.0284 13.6752C15.6878 13.8922 15.2265 14.0955 14.6566 14.2796C14.1005 14.4595 13.536 14.5508 12.9786 14.5508C12.4216 14.5508 11.857 14.4595 11.3006 14.2796C10.7313 14.0957 10.2697 13.8924 9.92973 13.6754C9.53519 13.4233 9.17813 13.1932 8.86848 12.9915C8.37317 12.6687 8.11649 12.5598 7.85107 12.5598C7.17505 12.5598 6.54346 12.6743 5.97356 12.9C5.40187 13.1263 4.90695 13.4372 4.50249 13.8242C4.11607 14.1939 3.77171 14.6428 3.47893 15.1584C3.19666 15.6553 2.96814 16.1736 2.79993 16.6991C2.63747 17.2071 2.50159 17.7627 2.39606 18.3507C2.29132 18.9334 2.2205 19.4863 2.18539 19.9941C2.15088 20.4906 2.13342 21.0073 2.13342 21.5294C2.13342 22.8866 2.56487 23.9854 3.41565 24.7957C4.25592 25.5953 5.36755 26.0008 6.7198 26.0008H19.239C20.5908 26.0008 21.7025 25.5953 22.5429 24.7957C23.3939 23.986 23.8253 22.8868 23.8253 21.5292C23.8251 21.0054 23.8075 20.4886 23.7728 19.9935ZM21.4924 23.6918C20.9372 24.2202 20.2 24.4771 19.2388 24.4771H6.7198C5.75833 24.4771 5.02121 24.2202 4.46619 23.692C3.92168 23.1737 3.65706 22.4661 3.65706 21.5294C3.65706 21.0422 3.67313 20.5612 3.70526 20.0994C3.7366 19.6464 3.80067 19.1487 3.89569 18.6198C3.98952 18.0975 4.10893 17.6074 4.25096 17.1636C4.38724 16.7382 4.5731 16.3168 4.8036 15.911C5.02359 15.5242 5.2767 15.1923 5.556 14.9249C5.81725 14.6748 6.14653 14.4701 6.53453 14.3165C6.89337 14.1745 7.29665 14.0967 7.73444 14.085C7.7878 14.1134 7.88281 14.1676 8.03674 14.2679C8.34996 14.472 8.71098 14.7049 9.11009 14.9598C9.55998 15.2467 10.1396 15.5057 10.8321 15.7293C11.5401 15.9582 12.2621 16.0744 12.9788 16.0744C13.6955 16.0744 14.4177 15.9582 15.1253 15.7295C15.8184 15.5055 16.3978 15.2467 16.8483 14.9594C17.2567 14.6984 17.6076 14.4722 17.9208 14.2679C18.0748 14.1678 18.1698 14.1134 18.2231 14.085C18.6611 14.0967 19.0644 14.1745 19.4234 14.3165C19.8112 14.4701 20.1405 14.675 20.4018 14.9249C20.6811 15.1921 20.9342 15.524 21.1542 15.9112C21.3849 16.3168 21.5709 16.7383 21.707 17.1634C21.8492 17.6078 21.9689 18.0977 22.0625 18.6196C22.1573 19.1495 22.2216 19.6474 22.2529 20.0996V20.1C22.2852 20.56 22.3015 21.0409 22.3017 21.5294C22.3015 22.4663 22.0369 23.1737 21.4924 23.6918Z" fill="#121212"/>
</g>
<defs>
<clipPath id="clip0_4971_20087">
<rect width="26" height="26" fill="white"/>
</clipPath>
</defs>
</svg>
