<svg width="20" height="20" viewBox="0 0 20 20" fill="none" xmlns="http://www.w3.org/2000/svg">
<g clip-path="url(#clip0_4616_19548)">
<path d="M0.909061 9.09134H16.8962L13.9026 6.09776C13.5476 5.74279 13.5476 5.16716 13.9026 4.81213C14.2576 4.45716 14.8332 4.45716 15.1883 4.81213L19.7337 9.35758C20.0888 9.71255 20.0888 10.2882 19.7337 10.6432L15.1883 15.1887C15.0107 15.3662 14.7781 15.455 14.5454 15.455C14.3128 15.455 14.0801 15.3662 13.9026 15.1887C13.5476 14.8337 13.5476 14.2581 13.9026 13.903L16.8962 10.9095H0.909061C0.407 10.9095 -3.05176e-05 10.5025 -3.05176e-05 10.0004C-3.05176e-05 9.49837 0.407 9.09134 0.909061 9.09134Z" fill="white"/>
</g>
<defs>
<clipPath id="clip0_4616_19548">
<rect width="20" height="20" fill="white" transform="matrix(-1 0 0 1 20 0)"/>
</clipPath>
</defs>
</svg>
