<svg width="24" height="24" viewBox="0 0 24 24" fill="none" xmlns="http://www.w3.org/2000/svg">
<g clip-path="url(#clip0_1939_4994)">
<path d="M12.0001 24C5.38336 24 0.000329971 18.6167 0.000329971 11.9999C0.000329971 5.38323 5.38336 -1.52588e-05 12.0001 -1.52588e-05C18.6168 -1.52588e-05 23.9999 5.38323 23.9999 11.9999C23.9999 18.6167 18.6168 24 12.0001 24ZM12.0001 1.64269C6.28915 1.64269 1.64303 6.28891 1.64293 11.9999C1.64293 17.711 6.28904 22.3572 12.0001 22.3573C17.711 22.3572 22.3571 17.711 22.3571 11.9998C22.3571 6.28902 17.711 1.64269 12.0001 1.64269Z" fill="white"/>
<path d="M13.6118 17.1396C13.291 17.4603 12.7709 17.4602 12.4503 17.1396C12.1294 16.8187 12.1294 16.2988 12.4504 15.9779L15.6065 12.8218L6.46687 12.8209C6.01327 12.8208 5.64563 12.4532 5.64563 11.9994C5.64574 11.5458 6.01338 11.1782 6.46698 11.1782L15.607 11.1791L12.45 8.02239C12.1293 7.70162 12.1293 7.18143 12.45 6.86078C12.6105 6.70045 12.8206 6.62018 13.0309 6.62018C13.2411 6.62018 13.4512 6.70045 13.6116 6.86067L18.1706 11.4195C18.3247 11.5735 18.4112 11.7823 18.4112 12.0002C18.4111 12.2182 18.3246 12.4269 18.1705 12.5812L13.6118 17.1396Z" fill="white"/>
</g>
<defs>
<clipPath id="clip0_1939_4994">
<rect width="24" height="24" fill="white" transform="matrix(-1 0 0 1 24 0)"/>
</clipPath>
</defs>
</svg>
