<svg width="18" height="19" viewBox="0 0 18 19" fill="none" xmlns="http://www.w3.org/2000/svg">
<g clip-path="url(#clip0_2097_7598)">
<path d="M8.99988 18.5C4.03736 18.5 8.39233e-05 14.4626 8.39233e-05 9.49996C8.39233e-05 4.53744 4.03736 0.5 8.99988 0.5C13.9624 0.5 17.9998 4.53744 17.9998 9.49996C17.9998 14.4626 13.9624 18.5 8.99988 18.5ZM8.99988 1.73203C4.7167 1.73203 1.23211 5.21669 1.23203 9.49996C1.23203 13.7832 4.71661 17.2679 8.99988 17.268C13.2831 17.2679 16.7676 13.7832 16.7676 9.49988C16.7676 5.21677 13.2831 1.73203 8.99988 1.73203Z" fill="#00898F"/>
<path d="M10.209 13.3547C9.96845 13.5952 9.57839 13.5951 9.33789 13.3547C9.09724 13.114 9.09724 12.724 9.33798 12.4834L11.7051 10.1163L4.85036 10.1157C4.51015 10.1156 4.23443 9.83985 4.23443 9.49948C4.23451 9.15928 4.51024 8.88363 4.85044 8.88363L11.7054 8.88429L9.33773 6.51675C9.09716 6.27617 9.09716 5.88603 9.33773 5.64554C9.45806 5.52529 9.61568 5.46509 9.77338 5.46509C9.93099 5.46509 10.0886 5.52529 10.2089 5.64546L13.6281 9.06458C13.7437 9.18006 13.8086 9.33669 13.8086 9.50014C13.8085 9.66359 13.7436 9.82014 13.6281 9.93587L10.209 13.3547Z" fill="#00898F"/>
</g>
<defs>
<clipPath id="clip0_2097_7598">
<rect width="18" height="18" fill="white" transform="matrix(-1 0 0 1 18 0.5)"/>
</clipPath>
</defs>
</svg>
