<svg width="26" height="26" viewBox="0 0 26 26" fill="none" xmlns="http://www.w3.org/2000/svg">
<path d="M18.4013 11.9197C18.8602 11.9197 19.2322 11.5477 19.2322 11.0888C19.2322 10.6298 18.8602 10.2578 18.4013 10.2578C17.9423 10.2578 17.5703 10.6298 17.5703 11.0888C17.5703 11.5477 17.9423 11.9197 18.4013 11.9197Z" fill="#00898F"/>
<path d="M20.3121 4.0257H19.2319V3.19474C19.2319 2.73579 18.8599 2.36377 18.4009 2.36377C17.942 2.36377 17.57 2.73579 17.57 3.19474V4.0257H13.7891V3.19474C13.7891 2.73579 13.417 2.36377 12.9581 2.36377C12.4992 2.36377 12.1271 2.73579 12.1271 3.19474V4.0257H8.38778V3.19474C8.38778 2.73579 8.01576 2.36377 7.55682 2.36377C7.09788 2.36377 6.72585 2.73579 6.72585 3.19474V4.0257H5.68714C3.85437 4.0257 2.36328 5.51679 2.36328 7.34957V20.3126C2.36328 22.1454 3.85437 23.6365 5.68714 23.6365H12.044C12.503 23.6365 12.875 23.2645 12.875 22.8055C12.875 22.3466 12.503 21.9746 12.044 21.9746H5.68714C4.77076 21.9746 4.02521 21.229 4.02521 20.3126V7.34957C4.02521 6.43318 4.77076 5.68763 5.68714 5.68763H6.72585V6.5186C6.72585 6.97754 7.09788 7.34957 7.55682 7.34957C8.01576 7.34957 8.38778 6.97754 8.38778 6.5186V5.68763H12.1271V6.5186C12.1271 6.97754 12.4992 7.34957 12.9581 7.34957C13.417 7.34957 13.7891 6.97754 13.7891 6.5186V5.68763H17.57V6.5186C17.57 6.97754 17.942 7.34957 18.4009 7.34957C18.8599 7.34957 19.2319 6.97754 19.2319 6.5186V5.68763H20.3121C21.2285 5.68763 21.9741 6.43318 21.9741 7.34957V12.0861C21.9741 12.545 22.3461 12.917 22.805 12.917C23.264 12.917 23.636 12.545 23.636 12.0861V7.34957C23.636 5.51679 22.1449 4.0257 20.3121 4.0257Z" fill="#00898F"/>
<path d="M18.6094 13.582C15.8373 13.582 13.582 15.8373 13.582 18.6094C13.582 21.3815 15.8373 23.6367 18.6094 23.6367C21.3815 23.6367 23.6367 21.3815 23.6367 18.6094C23.6367 15.8373 21.3815 13.582 18.6094 13.582ZM18.6094 21.9748C16.7537 21.9748 15.244 20.4651 15.244 18.6094C15.244 16.7537 16.7537 15.244 18.6094 15.244C20.465 15.244 21.9748 16.7537 21.9748 18.6094C21.9748 20.4651 20.465 21.9748 18.6094 21.9748Z" fill="#00898F"/>
<path d="M19.8132 17.7782H19.4393V16.9057C19.4393 16.4467 19.0673 16.0747 18.6083 16.0747C18.1494 16.0747 17.7773 16.4467 17.7773 16.9057V18.6092C17.7773 19.0681 18.1494 19.4401 18.6083 19.4401H19.8132C20.2722 19.4401 20.6442 19.0681 20.6442 18.6092C20.6442 18.1502 20.2722 17.7782 19.8132 17.7782Z" fill="#00898F"/>
<path d="M14.786 11.9197C15.245 11.9197 15.617 11.5477 15.617 11.0888C15.617 10.6298 15.245 10.2578 14.786 10.2578C14.3271 10.2578 13.9551 10.6298 13.9551 11.0888C13.9551 11.5477 14.3271 11.9197 14.786 11.9197Z" fill="#00898F"/>
<path d="M11.1708 15.5345C11.6297 15.5345 12.0018 15.1625 12.0018 14.7035C12.0018 14.2446 11.6297 13.8726 11.1708 13.8726C10.7119 13.8726 10.3398 14.2446 10.3398 14.7035C10.3398 15.1625 10.7119 15.5345 11.1708 15.5345Z" fill="#00898F"/>
<path d="M7.55753 11.9197C8.01646 11.9197 8.38849 11.5477 8.38849 11.0888C8.38849 10.6298 8.01646 10.2578 7.55753 10.2578C7.0986 10.2578 6.72656 10.6298 6.72656 11.0888C6.72656 11.5477 7.0986 11.9197 7.55753 11.9197Z" fill="#00898F"/>
<path d="M7.55753 15.5345C8.01646 15.5345 8.38849 15.1625 8.38849 14.7035C8.38849 14.2446 8.01646 13.8726 7.55753 13.8726C7.0986 13.8726 6.72656 14.2446 6.72656 14.7035C6.72656 15.1625 7.0986 15.5345 7.55753 15.5345Z" fill="#00898F"/>
<path d="M7.55753 19.1492C8.01646 19.1492 8.38849 18.7772 8.38849 18.3183C8.38849 17.8593 8.01646 17.4873 7.55753 17.4873C7.0986 17.4873 6.72656 17.8593 6.72656 18.3183C6.72656 18.7772 7.0986 19.1492 7.55753 19.1492Z" fill="#00898F"/>
<path d="M11.1708 19.1492C11.6297 19.1492 12.0018 18.7772 12.0018 18.3183C12.0018 17.8593 11.6297 17.4873 11.1708 17.4873C10.7119 17.4873 10.3398 17.8593 10.3398 18.3183C10.3398 18.7772 10.7119 19.1492 11.1708 19.1492Z" fill="#00898F"/>
<path d="M11.1708 11.9197C11.6297 11.9197 12.0018 11.5477 12.0018 11.0888C12.0018 10.6298 11.6297 10.2578 11.1708 10.2578C10.7119 10.2578 10.3398 10.6298 10.3398 11.0888C10.3398 11.5477 10.7119 11.9197 11.1708 11.9197Z" fill="#00898F"/>
</svg>
