<svg width="24" height="19" viewBox="0 0 24 19" fill="none" xmlns="http://www.w3.org/2000/svg">
<path d="M23.7083 4.49994C23.4036 4.0553 22.9107 3.77749 22.3561 3.73793L4.10779 2.43465L3.70404 0.538116C3.63739 0.224944 3.34936 0 3.01501 0H0.703125C0.314758 0 0 0.300918 0 0.672207C0 1.0435 0.314758 1.34441 0.703125 1.34441H2.44061L4.85577 12.6909L4.30664 13.8226C4.05029 14.3507 4.09295 14.9591 4.42071 15.4499C4.54962 15.643 4.71478 15.8047 4.90429 15.9308C4.6485 16.2522 4.49615 16.6529 4.49615 17.087C4.49615 18.1419 5.39374 19 6.49713 19C7.60052 19 8.4981 18.1419 8.4981 17.087C8.4981 16.7805 8.42193 16.4906 8.28717 16.2336H15.0829C14.9484 16.4908 14.8722 16.7805 14.8722 17.087C14.8722 18.1419 15.7698 19 16.873 19C17.9764 19 18.8741 18.1419 18.8741 17.087C18.8741 16.7805 18.7978 16.4906 18.6632 16.2336H18.9444C19.3328 16.2336 19.6476 15.9325 19.6476 15.5614C19.6476 15.1901 19.3328 14.8892 18.9444 14.8892H5.91668C5.73431 14.8892 5.63855 14.7754 5.60595 14.7264C5.57318 14.6774 5.50561 14.5466 5.58233 14.3886L6.03991 13.4455H19.9151C20.6688 13.4455 21.342 12.9885 21.5905 12.3084L23.8995 5.98947C24.0828 5.48759 24.0132 4.94457 23.7083 4.49994ZM6.49713 17.6556C6.16919 17.6556 5.9024 17.4005 5.9024 17.087C5.9024 16.7735 6.16919 16.5183 6.49713 16.5183C6.82507 16.5183 7.09185 16.7735 7.09185 17.087C7.09185 17.4005 6.82507 17.6556 6.49713 17.6556ZM16.873 17.6556C16.545 17.6556 16.2783 17.4005 16.2783 17.087C16.2783 16.7735 16.545 16.5183 16.873 16.5183C17.2009 16.5183 17.4679 16.7735 17.4679 17.087C17.4679 17.4005 17.2009 17.6556 16.873 17.6556ZM22.5719 5.54606L20.263 11.865C20.2114 12.0062 20.0715 12.1011 19.9151 12.1011H6.16534L4.39911 3.80375L22.2513 5.07849C22.409 5.08987 22.495 5.18247 22.5322 5.23674C22.5694 5.291 22.6241 5.40339 22.5719 5.54606Z" fill="#121212"/>
</svg>
