<svg width="94" height="94" viewBox="0 0 94 94" fill="none" xmlns="http://www.w3.org/2000/svg">
<g clip-path="url(#clip0_2006_3888)">
<rect width="94" height="94" fill="#008F4E"/>
<path d="M39.8106 38.4698C40.7413 38.4698 41.6264 38.0668 42.2388 37.364C42.5685 36.9859 42.529 36.4123 42.1509 36.0827C41.7729 35.7529 41.1991 35.7924 40.8696 36.1706C40.6021 36.4774 40.2162 36.6534 39.8107 36.6534C39.4051 36.6534 39.0191 36.4774 38.7516 36.1706C38.422 35.7923 37.8482 35.7531 37.4702 36.0827C37.0921 36.4123 37.0526 36.9859 37.3823 37.364C37.9948 38.0668 38.8798 38.4698 39.8106 38.4698ZM54.189 38.4698C55.1196 38.4698 56.0047 38.0668 56.6173 37.3641C56.9469 36.9859 56.9075 36.4123 56.5295 36.0827C56.1516 35.7531 55.5777 35.7925 55.2481 36.1705C54.9806 36.4774 54.5945 36.6534 54.189 36.6534C53.7834 36.6534 53.3975 36.4774 53.13 36.1706C52.8004 35.7923 52.2268 35.7531 51.8486 36.0827C51.4704 36.4123 51.4311 36.9859 51.7607 37.364C52.3733 38.0668 53.2584 38.4698 54.189 38.4698ZM48.3479 39.1473C48.3479 38.3532 47.7443 37.7096 46.9998 37.7096C46.2552 37.7096 45.6516 38.3533 45.6516 39.1473C45.6516 39.9413 46.2552 40.5851 46.9998 40.5851C47.7444 40.5851 48.3479 39.9413 48.3479 39.1473ZM64.1596 31.1671C61.5721 24.0696 54.3517 19.091 46.0333 19.5064C46.2582 18.5396 47.125 17.8164 48.1592 17.8164C48.6608 17.8164 49.0674 17.4099 49.0674 16.9082C49.0674 16.4065 48.6608 16 48.1592 16C46.0584 16 44.3318 17.6279 44.1716 19.6884C41.3454 20.1099 38.6738 21.1638 36.3275 22.7983C35.9159 23.0851 35.8148 23.6512 36.1015 24.0627C36.3881 24.4741 36.9541 24.5753 37.3658 24.2887C39.4686 22.8238 41.8629 21.8758 44.3977 21.4911C45.0252 23.3958 46.8203 24.7749 48.9324 24.7749C49.434 24.7749 49.8406 24.3684 49.8406 23.8667C49.8406 23.3652 49.434 22.9585 48.9324 22.9585C47.772 22.9585 46.7659 22.2865 46.2818 21.3113C55.6984 20.9261 63.3553 28.1343 63.3553 36.8998C63.3553 45.7771 55.7286 51.2372 46.9998 51.2372C38.1837 51.2372 30.6442 45.7119 30.6442 36.8998C30.6442 33.3226 31.945 29.8276 34.3068 27.0584C34.6323 26.6768 34.5868 26.1035 34.2052 25.7781C33.8234 25.4525 33.2503 25.498 32.9249 25.8797C31.5759 27.4613 30.5373 29.2559 29.8428 31.1671C26.3061 30.9954 23.3315 33.8347 23.3315 37.3778C23.3315 41.0892 26.5854 43.9994 30.2962 43.5509C31.4376 45.9621 33.2118 48.0542 35.5677 49.6817C34.883 50.7835 34.3667 51.9697 34.0263 53.2224C33.4094 53.6092 33.0385 54.2292 32.9505 54.8935C32.869 55.5089 32.8276 56.1376 32.8276 56.7622C32.8276 62.2036 33.6093 68.581 36.8164 72.9527C39.238 76.2548 42.7593 78 46.9998 78C50.3848 78 53.3806 76.8537 55.6633 74.6851C56.027 74.3396 56.0417 73.7646 55.6962 73.4011C55.3508 73.0376 54.7758 73.0229 54.4123 73.3682C52.4458 75.2364 49.9518 76.1836 46.9998 76.1836C43.3615 76.1836 40.3465 74.695 38.2809 71.8786C37.6981 71.0842 37.1781 70.1695 36.7307 69.1528C42.8285 64.2251 50.685 60.2851 58.707 58.4141C59.024 58.3401 59.3243 58.5909 59.3105 58.9188C59.1158 63.5339 58.2753 67.2989 56.8122 70.1093C56.5806 70.5542 56.7536 71.1026 57.1985 71.3342C57.6434 71.5659 58.1919 71.3929 58.4234 70.9479C60.0101 67.8997 60.9191 63.8783 61.1252 58.9953C61.1531 58.3362 60.9061 57.7135 60.4434 57.256C60.4452 57.0831 60.4461 56.9202 60.4461 56.7622C60.4461 54.2343 59.7513 51.8062 58.4311 49.6825C60.7898 48.0532 62.5632 45.9597 63.7036 43.5509C67.4182 43.9999 70.6683 41.0858 70.6683 37.3778C70.6682 33.8388 67.6986 30.9975 64.1596 31.1671ZM25.1478 37.378C25.1478 35.0362 26.9862 33.1161 29.2956 32.9839C28.5921 35.9025 28.6749 38.9677 29.5908 41.7787C27.1391 41.8025 25.1478 39.8136 25.1478 37.378ZM36.0539 67.3695C35.1178 64.489 34.6438 60.9287 34.6438 56.7626C34.6438 56.2175 34.6799 55.6691 34.751 55.1324C34.7939 54.8093 35.1084 54.6186 35.4013 54.7001C38.235 55.4869 43.4884 57.1552 48.6073 59.8862C42.8218 62.4249 38.4972 65.4463 36.0539 67.3695ZM58.6265 56.5934C58.5158 56.603 58.4049 56.6196 58.2944 56.6454C55.5929 57.2754 53.0714 58.0878 50.7515 58.9963C45.1521 55.7948 39.1744 53.8687 35.9988 52.9812C36.2804 52.1599 36.6561 51.3768 37.1168 50.6363C43.0125 53.8635 50.9876 53.8641 56.8847 50.6354C57.9984 52.4251 58.5963 54.466 58.6265 56.5934ZM64.4088 41.7787C65.3408 38.9186 65.3932 35.83 64.7088 32.9842C67.0158 33.1188 68.8517 35.0378 68.8517 37.378C68.8517 39.8104 66.8633 41.8025 64.4088 41.7787Z" fill="white"/>
</g>
<defs>
<clipPath id="clip0_2006_3888">
<rect width="94" height="94" rx="47" fill="white"/>
</clipPath>
</defs>
</svg>
