<svg width="62" height="62" viewBox="0 0 62 62" fill="none" xmlns="http://www.w3.org/2000/svg">
<path d="M23.8106 22.4698C24.7413 22.4698 25.6264 22.0668 26.2388 21.364C26.5685 20.9859 26.529 20.4123 26.1509 20.0827C25.7729 19.7529 25.1991 19.7924 24.8696 20.1706C24.6021 20.4774 24.2162 20.6534 23.8107 20.6534C23.4051 20.6534 23.0191 20.4774 22.7516 20.1706C22.422 19.7923 21.8482 19.7531 21.4702 20.0827C21.0921 20.4123 21.0526 20.9859 21.3823 21.364C21.9948 22.0668 22.8798 22.4698 23.8106 22.4698ZM38.189 22.4698C39.1196 22.4698 40.0047 22.0668 40.6173 21.3641C40.9469 20.9859 40.9075 20.4123 40.5295 20.0827C40.1516 19.7531 39.5777 19.7925 39.2481 20.1705C38.9806 20.4774 38.5945 20.6534 38.189 20.6534C37.7834 20.6534 37.3975 20.4774 37.13 20.1706C36.8004 19.7923 36.2268 19.7531 35.8486 20.0827C35.4704 20.4123 35.4311 20.9859 35.7607 21.364C36.3733 22.0668 37.2584 22.4698 38.189 22.4698ZM32.3479 23.1473C32.3479 22.3532 31.7443 21.7096 30.9998 21.7096C30.2552 21.7096 29.6516 22.3533 29.6516 23.1473C29.6516 23.9413 30.2552 24.5851 30.9998 24.5851C31.7444 24.5851 32.3479 23.9413 32.3479 23.1473ZM48.1596 15.1671C45.5721 8.06957 38.3517 3.09104 30.0333 3.50639C30.2582 2.53958 31.125 1.81641 32.1592 1.81641C32.6608 1.81641 33.0674 1.40989 33.0674 0.908203C33.0674 0.406512 32.6608 0 32.1592 0C30.0584 0 28.3318 1.62786 28.1716 3.68839C25.3454 4.10992 22.6738 5.1638 20.3275 6.79832C19.9159 7.08507 19.8148 7.65119 20.1015 8.06266C20.3881 8.47414 20.9541 8.57525 21.3658 8.28875C23.4686 6.82375 25.8629 5.87583 28.3977 5.49112C29.0252 7.3958 30.8203 8.77494 32.9324 8.77494C33.434 8.77494 33.8406 8.36843 33.8406 7.86673C33.8406 7.36516 33.434 6.95853 32.9324 6.95853C31.772 6.95853 30.7659 6.28646 30.2818 5.31129C39.6984 4.92609 47.3553 12.1343 47.3553 20.8998C47.3553 29.7771 39.7286 35.2372 30.9998 35.2372C22.1837 35.2372 14.6442 29.7119 14.6442 20.8998C14.6442 17.3226 15.945 13.8276 18.3068 11.0584C18.6323 10.6768 18.5868 10.1035 18.2052 9.77808C17.8234 9.45246 17.2503 9.49799 16.9249 9.87968C15.5759 11.4613 14.5373 13.2559 13.8428 15.1671C10.3061 14.9954 7.33151 17.8347 7.33151 21.3778C7.33151 25.0892 10.5854 27.9994 14.2962 27.5509C15.4376 29.9621 17.2118 32.0542 19.5677 33.6817C18.883 34.7835 18.3667 35.9697 18.0263 37.2224C17.4094 37.6092 17.0385 38.2292 16.9505 38.8935C16.869 39.5089 16.8276 40.1376 16.8276 40.7622C16.8276 46.2036 17.6093 52.581 20.8164 56.9527C23.238 60.2548 26.7593 62 30.9998 62C34.3848 62 37.3806 60.8537 39.6633 58.6851C40.027 58.3396 40.0417 57.7646 39.6962 57.4011C39.3508 57.0376 38.7758 57.0229 38.4123 57.3682C36.4458 59.2364 33.9518 60.1836 30.9998 60.1836C27.3615 60.1836 24.3465 58.695 22.2809 55.8786C21.6981 55.0842 21.1781 54.1695 20.7307 53.1528C26.8285 48.2251 34.685 44.2851 42.707 42.4141C43.024 42.3401 43.3243 42.5909 43.3105 42.9188C43.1158 47.5339 42.2753 51.2989 40.8122 54.1093C40.5806 54.5542 40.7536 55.1026 41.1985 55.3342C41.6434 55.5659 42.1919 55.3929 42.4234 54.9479C44.0101 51.8997 44.9191 47.8783 45.1252 42.9953C45.1531 42.3362 44.9061 41.7135 44.4434 41.256C44.4452 41.0831 44.4461 40.9202 44.4461 40.7622C44.4461 38.2343 43.7513 35.8062 42.4311 33.6825C44.7898 32.0532 46.5632 29.9597 47.7036 27.5509C51.4182 27.9999 54.6683 25.0858 54.6683 21.3778C54.6682 17.8388 51.6986 14.9975 48.1596 15.1671ZM9.1478 21.378C9.1478 19.0362 10.9862 17.1161 13.2956 16.9839C12.5921 19.9025 12.6749 22.9677 13.5908 25.7787C11.1391 25.8025 9.1478 23.8136 9.1478 21.378ZM20.0539 51.3695C19.1178 48.489 18.6438 44.9287 18.6438 40.7626C18.6438 40.2175 18.6799 39.6691 18.751 39.1324C18.7939 38.8093 19.1084 38.6186 19.4013 38.7001C22.235 39.4869 27.4884 41.1552 32.6073 43.8862C26.8218 46.4249 22.4972 49.4463 20.0539 51.3695ZM42.6265 40.5934C42.5158 40.603 42.4049 40.6196 42.2944 40.6454C39.5929 41.2754 37.0714 42.0878 34.7515 42.9963C29.1521 39.7948 23.1744 37.8687 19.9988 36.9812C20.2804 36.1599 20.6561 35.3768 21.1168 34.6363C27.0125 37.8635 34.9876 37.8641 40.8847 34.6354C41.9984 36.4251 42.5963 38.466 42.6265 40.5934ZM48.4088 25.7787C49.3408 22.9186 49.3932 19.83 48.7088 16.9842C51.0158 17.1188 52.8517 19.0378 52.8517 21.378C52.8517 23.8104 50.8633 25.8025 48.4088 25.7787Z" fill="white"/>
</svg>
