<svg width="20" height="20" viewBox="0 0 20 20" fill="none" xmlns="http://www.w3.org/2000/svg">
<g clip-path="url(#clip0_4153_55669)">
<path d="M16.4453 2.98145H13.7598V2.44434C13.7598 1.55585 13.0369 0.833008 12.1484 0.833008H7.85156C6.96308 0.833008 6.24023 1.55585 6.24023 2.44434V2.98145H3.55469C2.6662 2.98145 1.94336 3.70429 1.94336 4.59277C1.94336 5.30634 2.40975 5.91267 3.05356 6.12393L4.01159 17.6888C4.08059 18.5173 4.78592 19.1663 5.61733 19.1663H14.3827C15.2141 19.1663 15.9194 18.5173 15.9885 17.6885L16.9464 6.12389C17.5902 5.91267 18.0566 5.30634 18.0566 4.59277C18.0566 3.70429 17.3338 2.98145 16.4453 2.98145ZM7.31445 2.44434C7.31445 2.14817 7.5554 1.90723 7.85156 1.90723H12.1484C12.4446 1.90723 12.6855 2.14817 12.6855 2.44434V2.98145H7.31445V2.44434ZM14.9179 17.5996C14.8949 17.8758 14.6598 18.0921 14.3827 18.0921H5.61733C5.34022 18.0921 5.10511 17.8758 5.08215 17.5999L4.13813 6.2041H15.8619L14.9179 17.5996ZM16.4453 5.12988H3.55469C3.25853 5.12988 3.01758 4.88894 3.01758 4.59277C3.01758 4.29661 3.25853 4.05566 3.55469 4.05566H16.4453C16.7415 4.05566 16.9824 4.29661 16.9824 4.59277C16.9824 4.88894 16.7415 5.12988 16.4453 5.12988Z" fill="#DC2626"/>
<path d="M7.85057 16.4476L7.31346 7.78222C7.29509 7.48613 7.03882 7.26094 6.74416 7.27938C6.44807 7.29775 6.22295 7.55262 6.24128 7.84868L6.77839 16.5141C6.79604 16.7989 7.03251 17.018 7.31396 17.018C7.62502 17.018 7.86965 16.756 7.85057 16.4476Z" fill="#DC2626"/>
<path d="M10.002 7.27832C9.70533 7.27832 9.46484 7.5188 9.46484 7.81543V16.4808C9.46484 16.7774 9.70533 17.0179 10.002 17.0179C10.2986 17.0179 10.5391 16.7774 10.5391 16.4808V7.81543C10.5391 7.5188 10.2986 7.27832 10.002 7.27832Z" fill="#DC2626"/>
<path d="M13.2559 7.27986C12.9605 7.26149 12.7049 7.48661 12.6866 7.7827L12.1495 16.4481C12.1312 16.7441 12.3563 16.999 12.6524 17.0174C12.9486 17.0357 13.2033 16.8105 13.2217 16.5145L13.7588 7.84916C13.7771 7.55307 13.552 7.29819 13.2559 7.27986Z" fill="#DC2626"/>
</g>
<defs>
<clipPath id="clip0_4153_55669">
<rect width="18.3333" height="18.3333" fill="white" transform="translate(0.833984 0.833496)"/>
</clipPath>
</defs>
</svg>
