<svg width="24" height="24" viewBox="0 0 24 24" fill="none" xmlns="http://www.w3.org/2000/svg">
<g clip-path="url(#clip0_5252_54015)">
<path d="M11.8317 11.5674C13.3959 11.5674 14.7502 11.0064 15.8571 9.89949C16.9636 8.7928 17.5248 7.43869 17.5248 5.87432C17.5248 4.31049 16.9638 2.95621 15.8569 1.84916C14.75 0.74265 13.3957 0.181641 11.8317 0.181641C10.2674 0.181641 8.91325 0.74265 7.80655 1.84934C6.69986 2.95603 6.13867 4.31031 6.13867 5.87432C6.13867 7.43869 6.69986 8.79298 7.80655 9.89967C8.91361 11.0062 10.2679 11.5674 11.8317 11.5674ZM8.78611 2.82872C9.63529 1.97954 10.6314 1.56676 11.8317 1.56676C13.0318 1.56676 14.0282 1.97954 14.8775 2.82872C15.7267 3.67807 16.1397 4.6744 16.1397 5.87432C16.1397 7.0746 15.7267 8.07075 14.8775 8.92011C14.0282 9.76947 13.0318 10.1822 11.8317 10.1822C10.6318 10.1822 9.63565 9.76929 8.78611 8.92011C7.93675 8.07093 7.5238 7.0746 7.5238 5.87432C7.5238 4.6744 7.93675 3.67807 8.78611 2.82872Z" fill="#00898F"/>
<path d="M21.7932 18.3575C21.7613 17.8969 21.6968 17.3945 21.6017 16.864C21.5058 16.3295 21.3823 15.8242 21.2344 15.3624C21.0815 14.8851 20.8739 14.4137 20.6169 13.9619C20.3506 13.4931 20.0375 13.0848 19.6862 12.7489C19.3189 12.3974 18.8692 12.1148 18.3491 11.9087C17.8308 11.7037 17.2565 11.5998 16.6421 11.5998C16.4008 11.5998 16.1674 11.6988 15.7168 11.9922C15.4394 12.1731 15.115 12.3822 14.7529 12.6136C14.4433 12.8109 14.0239 12.9957 13.5058 13.1631C13.0003 13.3266 12.4871 13.4096 11.9803 13.4096C11.474 13.4096 10.9607 13.3266 10.4549 13.1631C9.93737 12.9959 9.51774 12.8111 9.20865 12.6138C8.84997 12.3846 8.52537 12.1754 8.24388 11.992C7.79359 11.6986 7.56024 11.5996 7.31896 11.5996C6.70439 11.5996 6.13022 11.7037 5.61212 11.9089C5.09241 12.1146 4.64248 12.3972 4.27479 12.749C3.9235 13.0852 3.61045 13.4933 3.34428 13.9619C3.08767 14.4137 2.87993 14.8849 2.72701 15.3626C2.57932 15.8244 2.45579 16.3295 2.35985 16.864C2.26464 17.3938 2.20026 17.8964 2.16834 18.358C2.13696 18.8094 2.12109 19.2792 2.12109 19.7538C2.12109 20.9876 2.51331 21.9865 3.28675 22.7231C4.05064 23.45 5.06121 23.8186 6.29053 23.8186H17.6716C18.9005 23.8186 19.9111 23.45 20.6752 22.7231C21.4488 21.987 21.841 20.9878 21.841 19.7536C21.8408 19.2774 21.8248 18.8076 21.7932 18.3575ZM19.7201 21.7196C19.2154 22.2 18.5453 22.4335 17.6714 22.4335H6.29053C5.41646 22.4335 4.74635 22.2 4.24179 21.7198C3.74678 21.2486 3.50622 20.6053 3.50622 19.7538C3.50622 19.3109 3.52082 18.8736 3.55004 18.4538C3.57853 18.0419 3.63678 17.5895 3.72316 17.1087C3.80845 16.6339 3.91701 16.1883 4.04613 15.7849C4.17002 15.3981 4.33899 15.0151 4.54853 14.6461C4.74852 14.2945 4.97862 13.9928 5.23253 13.7497C5.47002 13.5223 5.76937 13.3362 6.1221 13.1966C6.44832 13.0675 6.81493 12.9968 7.21292 12.9862C7.26143 13.012 7.34781 13.0612 7.48775 13.1524C7.77249 13.338 8.10069 13.5497 8.46352 13.7814C8.87251 14.0422 9.39944 14.2777 10.029 14.4809C10.6726 14.689 11.329 14.7947 11.9805 14.7947C12.6321 14.7947 13.2886 14.689 13.9319 14.4811C14.562 14.2775 15.0887 14.0422 15.4982 13.7811C15.8695 13.5438 16.1885 13.3382 16.4733 13.1524C16.6132 13.0614 16.6996 13.012 16.7481 12.9862C17.1463 12.9968 17.5129 13.0675 17.8393 13.1966C18.1918 13.3362 18.4912 13.5225 18.7287 13.7497C18.9826 13.9926 19.2127 14.2943 19.4127 14.6463C19.6224 15.0151 19.7916 15.3983 19.9153 15.7847C20.0446 16.1887 20.1533 16.6341 20.2384 17.1085C20.3246 17.5902 20.383 18.0428 20.4115 18.454V18.4543C20.4409 18.8725 20.4557 19.3097 20.4559 19.7538C20.4557 20.6055 20.2152 21.2486 19.7201 21.7196Z" fill="#00898F"/>
</g>
<defs>
<clipPath id="clip0_5252_54015">
<rect width="23.6364" height="23.6364" fill="white" transform="translate(0.181641 0.181641)"/>
</clipPath>
</defs>
</svg>
