<svg width="22" height="21" viewBox="0 0 22 21" fill="none" xmlns="http://www.w3.org/2000/svg">
<path d="M20.3949 2.14319C19.3098 0.904387 17.8044 0.222168 16.1562 0.222168C13.8382 0.222168 12.3706 1.61514 11.5476 2.78373C11.3341 3.08697 11.1525 3.39103 11 3.67714C10.8475 3.39103 10.6659 3.08697 10.4524 2.78373C9.62943 1.61514 8.16183 0.222168 5.84375 0.222168C4.19555 0.222168 2.69023 0.90443 1.6051 2.14323C0.570066 3.32497 0 4.90764 0 6.5997C0 8.44156 0.714699 10.1547 2.2492 11.9909C3.62063 13.632 5.59363 15.3236 7.87832 17.2825C8.72966 18.0124 9.61005 18.7673 10.5473 19.5924L10.5755 19.6172C10.697 19.7242 10.8485 19.7777 11 19.7777C11.1515 19.7777 11.303 19.7242 11.4245 19.6172L11.4527 19.5924C12.39 18.7673 13.2703 18.0125 14.1218 17.2824C16.4064 15.3237 18.3794 13.632 19.7508 11.9909C21.2853 10.1546 22 8.44156 22 6.5997C22 4.90764 21.4299 3.32497 20.3949 2.14319ZM13.2856 16.2953C12.5517 16.9245 11.7964 17.5721 11 18.2687C10.2036 17.5722 9.44827 16.9246 8.71423 16.2952C4.24295 12.4616 1.28906 9.92896 1.28906 6.5997C1.28906 5.22359 1.74475 3.94545 2.5722 3.00076C3.40914 2.04535 4.57097 1.51916 5.84375 1.51916C7.61101 1.51916 8.75342 2.6146 9.40053 3.53357C9.981 4.35776 10.2839 5.18862 10.3872 5.50755C10.4736 5.77451 10.721 5.95518 11 5.95518C11.279 5.95518 11.5264 5.77451 11.6128 5.50755C11.7161 5.18862 12.019 4.35776 12.5995 3.53352C13.2466 2.6146 14.389 1.51916 16.1562 1.51916C17.429 1.51916 18.5909 2.04535 19.4278 3.00076C20.2553 3.94545 20.7109 5.22359 20.7109 6.5997C20.7109 9.92896 17.7571 12.4616 13.2856 16.2953Z" fill="#121212"/>
</svg>
