<svg width="14" height="22" viewBox="0 0 14 22" fill="none" xmlns="http://www.w3.org/2000/svg">
<path d="M11.3538 4.06117H13.4673V0.202452H9.62638C9.30597 0.18912 5.40015 0.114461 4.38781 3.97495C4.37314 4.01539 4.04962 4.93352 4.04962 7.07819L0.537537 7.08886V11.136L4.05406 11.1258V21.8007H9.42551V11.1351H12.9807V7.0773H9.42551V5.80054C9.42551 5.00685 9.76014 4.06117 11.3538 4.06117ZM12.0919 7.96565V10.2459H8.53671V20.9114H4.94286V10.2343L1.42633 10.2445V7.97499L4.95219 7.96477L4.94286 7.51281C4.89664 5.24104 5.22061 4.28559 5.23528 4.23982C6.10896 0.914824 9.44507 1.08192 9.58816 1.09081L12.5785 1.09169V3.17281H11.3538C9.27708 3.17281 8.53716 4.53001 8.53716 5.8001V7.96565H12.0919Z" fill="#121212"/>
</svg>
