<svg width="24" height="24" viewBox="0 0 24 24" fill="none" xmlns="http://www.w3.org/2000/svg">
<g clip-path="url(#clip0_3605_34511)">
<path d="M21.0388 4.08769C19.9732 2.87114 18.4949 2.20117 16.8763 2.20117C14.5999 2.20117 13.1586 3.56912 12.3505 4.71672C12.1408 5.01451 11.9624 5.31311 11.8127 5.59409C11.6629 5.31311 11.4846 5.01451 11.2749 4.71672C10.4667 3.56912 9.02548 2.20117 6.74904 2.20117C5.13045 2.20117 3.65216 2.87118 2.58652 4.08773C1.57008 5.24824 1.01025 6.80249 1.01025 8.46415C1.01025 10.2729 1.71212 11.9553 3.21905 13.7585C4.56585 15.3701 6.50341 17.0314 8.74706 18.955C9.58311 19.6719 10.4477 20.4132 11.3681 21.2235L11.3958 21.2478C11.5151 21.3529 11.6639 21.4055 11.8127 21.4055C11.9615 21.4055 12.1102 21.3529 12.2296 21.2478L12.2572 21.2235C13.1777 20.4132 14.0422 19.6719 14.8784 18.955C17.1219 17.0314 19.0595 15.3702 20.4063 13.7585C21.9132 11.9552 22.6151 10.2729 22.6151 8.46415C22.6151 6.80249 22.0553 5.24824 21.0388 4.08769ZM14.0573 17.9856C13.3365 18.6035 12.5948 19.2395 11.8127 19.9236C11.0306 19.2395 10.2888 18.6035 9.56796 17.9855C5.17699 14.2208 2.27616 11.7336 2.27616 8.46415C2.27616 7.11276 2.72366 5.85757 3.53625 4.92986C4.35816 3.99161 5.49912 3.47487 6.74904 3.47487C8.48456 3.47487 9.60645 4.55063 10.2419 5.45309C10.812 6.26248 11.1094 7.07841 11.2109 7.39162C11.2957 7.65378 11.5386 7.83121 11.8127 7.83121C12.0867 7.83121 12.3296 7.65378 12.4145 7.39162C12.5159 7.07841 12.8134 6.26248 13.3834 5.45305C14.0189 4.55063 15.1408 3.47487 16.8763 3.47487C18.1262 3.47487 19.2672 3.99161 20.0891 4.92986C20.9017 5.85757 21.3492 7.11276 21.3492 8.46415C21.3492 11.7336 18.4484 14.2208 14.0573 17.9856Z" fill="#121212"/>
</g>
<defs>
<clipPath id="clip0_3605_34511">
<rect width="22" height="22" fill="white" transform="translate(1 1)"/>
</clipPath>
</defs>
</svg>
