<svg width="22" height="22" viewBox="0 0 22 22" fill="none" xmlns="http://www.w3.org/2000/svg">
<g clip-path="url(#clip0_3406_5724)">
<path d="M15.881 0.200165H6.12358C2.85856 0.200165 0.202271 2.85646 0.202271 6.12152V15.8789C0.202271 19.1439 2.85856 21.8002 6.12358 21.8002H15.881C19.146 21.8002 21.8023 19.1439 21.8023 15.8789V6.12152C21.8023 2.85646 19.146 0.200165 15.881 0.200165ZM20.5267 15.8789C20.5267 18.4405 18.4427 20.5246 15.881 20.5246H6.12358C3.56191 20.5246 1.47785 18.4406 1.47785 15.8789V6.12152C1.47785 3.55981 3.56191 1.47575 6.12358 1.47575H15.881C18.4427 1.47575 20.5267 3.55981 20.5267 6.12152V15.8789Z" fill="#121212"/>
<path d="M11.0017 5.07544C7.73496 5.07544 5.07727 7.73313 5.07727 10.9999C5.07727 14.2666 7.73491 16.9243 11.0017 16.9243C14.2684 16.9243 16.9262 14.2666 16.9262 10.9998C16.9262 7.73308 14.2684 5.07544 11.0017 5.07544ZM11.0017 15.6488C8.43831 15.6488 6.35281 13.5632 6.35281 10.9998C6.35281 8.43643 8.43831 6.35094 11.0017 6.35094C13.5651 6.35094 15.6506 8.43648 15.6506 10.9999C15.6506 13.5633 13.5651 15.6488 11.0017 15.6488Z" fill="#121212"/>
<path d="M17.2804 2.92105C16.2879 2.92105 15.4805 3.72856 15.4805 4.72106C15.4805 5.71357 16.2879 6.52104 17.2804 6.52104C18.2729 6.52104 19.0804 5.71353 19.0804 4.72102C19.0804 3.72852 18.2729 2.92105 17.2804 2.92105ZM17.2804 5.24541C16.9913 5.24541 16.756 5.01018 16.756 4.72102C16.756 4.43187 16.9913 4.19663 17.2804 4.19663C17.5696 4.19663 17.8048 4.43191 17.8048 4.72102C17.8048 5.01013 17.5696 5.24541 17.2804 5.24541Z" fill="#121212"/>
</g>
<defs>
<clipPath id="clip0_3406_5724">
<rect width="21.6" height="21.6" fill="white" transform="translate(0.199951 0.200012)"/>
</clipPath>
</defs>
</svg>
