<svg width="14" height="14" viewBox="0 0 14 14" fill="none" xmlns="http://www.w3.org/2000/svg">
<path d="M11.6654 5.83366C11.6654 9.33366 6.9987 12.8337 6.9987 12.8337C6.9987 12.8337 2.33203 9.33366 2.33203 5.83366C2.33203 4.59598 2.8237 3.409 3.69887 2.53383C4.57404 1.65866 5.76102 1.16699 6.9987 1.16699C8.23638 1.16699 9.42336 1.65866 10.2985 2.53383C11.1737 3.409 11.6654 4.59598 11.6654 5.83366Z" stroke="#00898F" stroke-linecap="round" stroke-linejoin="round"/>
<path d="M7 7.58301C7.9665 7.58301 8.75 6.79951 8.75 5.83301C8.75 4.86651 7.9665 4.08301 7 4.08301C6.0335 4.08301 5.25 4.86651 5.25 5.83301C5.25 6.79951 6.0335 7.58301 7 7.58301Z" stroke="#00898F" stroke-linecap="round" stroke-linejoin="round"/>
</svg>
