<svg width="24" height="24" viewBox="0 0 24 24" fill="none" xmlns="http://www.w3.org/2000/svg">
<g clip-path="url(#clip0_4149_52813)">
<path d="M23.4129 15.3861C23.0651 15.0644 22.6173 14.8905 22.1611 14.8636C22.5238 13.8993 22.7079 12.8842 22.7079 11.8345C22.7079 9.97984 22.1301 8.2128 21.0369 6.72442C20.8823 6.51395 20.5864 6.46867 20.376 6.62327C20.1656 6.77786 20.1203 7.07369 20.2749 7.28411C21.2481 8.60908 21.7625 10.1826 21.7625 11.8345C21.7625 12.9857 21.5145 14.09 21.0264 15.1197C20.8956 15.193 20.7721 15.2815 20.6592 15.3859L17.4618 18.3387C17.4143 18.3827 17.1977 18.5253 16.3992 18.5253C16.3942 18.5253 16.3891 18.5253 16.3841 18.5253C15.1289 18.5219 13.2186 18.5185 11.7755 18.5159L11.0949 18.5147C10.7286 18.5147 10.4306 18.2558 10.4306 17.9377C10.4306 17.6242 10.7348 17.3593 11.0949 17.3593H14.1247C15.0914 17.3593 15.8779 16.6167 15.8779 15.704C15.8779 15.6189 15.871 15.5353 15.8578 15.4537C16.6111 15.1151 17.1172 14.3629 17.1172 13.5021C17.1172 12.322 16.1632 11.3618 14.9907 11.3618H13.167C12.5085 11.3618 11.9728 10.8251 11.9728 10.1655C11.9728 9.50659 12.5085 8.97053 13.167 8.97053H14.0677H14.0689H16.6444C16.9055 8.97053 17.1172 8.75889 17.1172 8.4978C17.1172 8.23675 16.9055 8.02511 16.6444 8.02511H14.5428L14.5456 6.88717C14.5463 6.62603 14.3352 6.41392 14.0741 6.41327C14.0737 6.41327 14.0733 6.41327 14.0729 6.41327C13.8124 6.41327 13.6009 6.62416 13.6002 6.88478L13.5974 8.02511H13.167C11.9872 8.02511 11.0273 8.98525 11.0273 10.1655C11.0273 11.3464 11.9873 12.3072 13.167 12.3072H14.9908C15.6309 12.3072 16.1717 12.8544 16.1717 13.5021C16.1717 13.9866 15.8681 14.4211 15.4338 14.6044C15.1125 14.2638 14.6448 14.0486 14.1248 14.0486H6.70608C6.49111 13.3316 6.38212 12.5885 6.38212 11.8345C6.38212 11.2347 6.4507 10.6434 6.5858 10.069C6.64242 10.1062 6.69947 10.142 6.75698 10.1764C7.01719 10.3322 7.21861 10.4102 7.42031 10.4102C7.62188 10.4102 7.82362 10.3323 8.08458 10.1766C9.01894 9.6182 9.83855 8.69045 10.5207 7.41906C11.0177 6.4923 11.326 5.53375 11.4305 4.60792C12.2751 4.29789 13.1626 4.14039 14.073 4.14039C15.1596 4.14039 16.209 4.3623 17.1922 4.79988C17.2546 4.82767 17.3199 4.84084 17.3841 4.84084C17.5651 4.84084 17.7379 4.73627 17.8162 4.5602C17.9224 4.3217 17.8151 4.04228 17.5766 3.93611C16.4716 3.44434 15.2928 3.19502 14.073 3.19502C13.1754 3.19502 12.2975 3.33152 11.4542 3.60053C11.3875 3.08683 11.1221 2.91616 10.7223 2.701L7.64545 1.04059C7.50534 0.964984 7.33655 0.964984 7.19644 1.04059L4.11788 2.7018C3.65794 2.94934 3.3758 3.13759 3.36984 3.85759C3.36 5.0102 3.68855 6.24175 4.31991 7.41911C4.7527 8.22573 5.24142 8.89361 5.77992 9.4173C5.5522 10.1976 5.43661 11.0092 5.43661 11.8345C5.43661 12.6272 5.54386 13.4095 5.75588 14.167C5.35064 14.2718 4.96692 14.444 4.62361 14.6742C4.47197 13.9437 3.79003 13.3908 2.97384 13.3908H1.68145C0.754312 13.3908 0 14.1041 0 14.981V21.2862C0 22.1623 0.754312 22.8751 1.68145 22.8751H2.97384C3.90098 22.8751 4.6553 22.1623 4.6553 21.2862V21.2762L7.65117 22.6198C7.6612 22.6243 7.67142 22.6284 7.68173 22.6322C8.61009 22.973 9.79509 22.9962 13.0868 23.0133C15.579 23.0159 15.9045 23.0159 16.3775 23.0159C17.5676 23.0159 18.1763 22.9081 18.8544 22.2407C20.2654 20.9364 21.6764 19.6332 23.0884 18.3291L23.4124 18.0299C23.7913 17.6804 24 17.2108 24 16.7078C24 16.2048 23.7914 15.7352 23.4129 15.3861ZM3.70987 21.2862C3.70987 21.641 3.37973 21.9297 2.97389 21.9297H1.68145C1.27561 21.9297 0.945469 21.641 0.945469 21.2862V14.981C0.945469 14.6315 1.2825 14.3362 1.68145 14.3362H2.97384C3.3728 14.3362 3.70983 14.6315 3.70983 14.981L3.70987 21.2862ZM5.15311 6.97216C4.59652 5.9343 4.30678 4.86006 4.31531 3.86547C4.3163 3.74481 4.32525 3.69147 4.33012 3.67112C4.36795 3.64089 4.47267 3.5845 4.566 3.53425L7.42097 1.99366L10.2625 3.52708L10.2742 3.53336C10.3676 3.58366 10.4725 3.64009 10.5105 3.67047C10.5154 3.69095 10.5243 3.74467 10.5253 3.86622C10.535 4.858 10.2452 5.932 9.68747 6.97206C9.08742 8.09045 8.38491 8.89553 7.59975 9.36484C7.49508 9.42733 7.44441 9.45147 7.42055 9.46075C7.39683 9.45142 7.34648 9.42733 7.2428 9.36527C7.24266 9.36517 7.24256 9.36508 7.24242 9.36503C6.46673 8.90144 5.74425 8.07395 5.15311 6.97216ZM22.7712 17.3352L22.447 17.6346C21.033 18.9406 19.6201 20.2455 18.2071 21.5516C18.2033 21.5552 18.1995 21.5588 18.1957 21.5625C17.7975 21.9561 17.5105 22.0705 16.3776 22.0705C15.9047 22.0705 15.5794 22.0705 13.0899 22.0678C10.077 22.0522 8.81227 22.0345 8.02247 21.75L4.65539 20.2399V15.8905C5.15475 15.3266 5.90184 14.994 6.68512 14.994H14.1248C14.4345 14.994 14.7038 15.1482 14.8392 15.3738C14.8418 15.3785 14.8442 15.3833 14.847 15.3879C14.9012 15.4832 14.9325 15.5903 14.9325 15.7039C14.9325 16.0954 14.5702 16.4138 14.1248 16.4138H11.095C10.2074 16.4138 9.48525 17.0974 9.48525 17.9376C9.48525 18.7771 10.2074 19.4601 11.0941 19.4601L11.7739 19.4613C13.2166 19.4639 15.1266 19.4673 16.3818 19.4707C16.3876 19.4707 16.3932 19.4707 16.3989 19.4707C17.2389 19.4707 17.781 19.3314 18.1036 19.033L21.301 16.0802C21.6994 15.7117 22.3726 15.7116 22.7715 16.0806C22.9541 16.249 23.0546 16.4718 23.0546 16.7078C23.0545 16.9438 22.954 17.1666 22.7712 17.3352Z" fill="#00898F"/>
<path d="M19.2035 5.95567C19.3245 5.95567 19.4455 5.90954 19.5378 5.81724C19.7224 5.6326 19.7224 5.33331 19.5378 5.14867L19.5365 5.14735C19.3519 4.96285 19.0532 4.96342 18.8686 5.14806C18.684 5.33265 18.6847 5.6326 18.8693 5.81729C18.9616 5.90954 19.0825 5.95567 19.2035 5.95567Z" fill="#00898F"/>
<path d="M7.21313 6.81028C7.33627 6.81028 7.45917 6.76246 7.5517 6.66754L9.22003 4.95604C9.40224 4.76906 9.39844 4.46976 9.21145 4.28756C9.02452 4.10531 8.72522 4.1091 8.54297 4.29609L7.19808 5.67585L6.73135 5.23898C6.54075 5.06057 6.24164 5.07037 6.06314 5.2611C5.88474 5.4517 5.89463 5.75085 6.08522 5.92926L6.89016 6.68273C6.98124 6.76795 7.0973 6.81028 7.21313 6.81028Z" fill="#00898F"/>
</g>
<defs>
<clipPath id="clip0_4149_52813">
<rect width="24" height="24" fill="white"/>
</clipPath>
</defs>
</svg>
