<svg width="14" height="15" viewBox="0 0 14 15" fill="none" xmlns="http://www.w3.org/2000/svg">
<path d="M7 13.5C5.39734 13.5 3.89062 12.8759 2.75734 11.7427C1.62412 10.6094 1 9.10266 1 7.5C1 5.89734 1.62412 4.39062 2.75734 3.25734C3.89062 2.12412 5.39734 1.5 7 1.5C8.60266 1.5 10.1094 2.12412 11.2427 3.25734C12.3759 4.39062 13 5.89734 13 7.5C13 9.10266 12.3759 10.6094 11.2427 11.7427C10.1094 12.8759 8.60266 13.5 7 13.5ZM7 2.4375C5.64775 2.4375 4.37645 2.96409 3.42027 3.92027C2.46409 4.87645 1.9375 6.14775 1.9375 7.5C1.9375 8.85225 2.46409 10.1235 3.42027 11.0797C4.37645 12.0359 5.64775 12.5625 7 12.5625C8.35223 12.5625 9.62355 12.0359 10.5797 11.0797C11.5359 10.1235 12.0625 8.85225 12.0625 7.5C12.0625 6.14775 11.5359 4.87645 10.5797 3.92027C9.62355 2.96409 8.35223 2.4375 7 2.4375ZM5.94212 10.316L5.3462 9.59227L7.88725 7.5L5.3462 5.40773L5.94212 4.68401L9.36217 7.5L5.94212 10.316Z" fill="#00898F"/>
</svg>
