<svg width="24" height="17" viewBox="0 0 24 17" fill="none" xmlns="http://www.w3.org/2000/svg">
<path d="M20.88 0H3.12C2.56889 0 2.05333 0.131578 1.57333 0.394737C1.09333 0.657894 0.711111 1.01754 0.426667 1.47368C0.142222 1.92982 0 2.42982 0 2.97368V13.9211C0 14.4649 0.137778 14.9737 0.413333 15.4474C0.688889 15.9211 1.06222 16.2982 1.53333 16.5789C2.00444 16.8596 2.53333 17 3.12 17H20.88C21.4311 17 21.9467 16.864 22.4267 16.5921C22.9067 16.3202 23.2889 15.9518 23.5733 15.4868C23.8578 15.0219 24 14.5 24 13.9211V2.97368C24 2.42982 23.8578 1.92982 23.5733 1.47368C23.2889 1.01754 22.9067 0.657894 22.4267 0.394737C21.9467 0.131578 21.4311 0 20.88 0ZM3.12 1.6579H20.88C21.2711 1.6579 21.5911 1.78947 21.84 2.05263C22.0889 2.31579 22.2133 2.62281 22.2133 2.97368V5.36842H1.78667V2.97368C1.78667 2.58772 1.91111 2.27193 2.16 2.02632C2.40889 1.7807 2.72889 1.6579 3.12 1.6579ZM20.88 15.3421H3.12C2.74667 15.3421 2.43111 15.2061 2.17333 14.9342C1.91556 14.6623 1.78667 14.3596 1.78667 14.0263V7.23684H22.3467V13.9211C22.2756 14.3246 22.1111 14.6623 21.8533 14.9342C21.5956 15.2061 21.2711 15.3421 20.88 15.3421Z" fill="#008F4E"/>
</svg>
