<svg width="18" height="18" viewBox="0 0 18 18" fill="none" xmlns="http://www.w3.org/2000/svg">
<g clip-path="url(#clip0_3598_87585)">
<path d="M5.01912 15.3679C6.08962 15.6703 7.50357 15.8368 9.00049 15.8368C10.4974 15.8368 11.9114 15.6703 12.9819 15.3679C14.2915 14.9979 14.9556 14.4623 14.9556 13.7762C14.9556 13.0899 14.2915 12.5544 12.9819 12.1845C12.3834 12.0154 11.6773 11.8891 10.9096 11.8103C12.4129 9.24437 13.9027 6.33902 13.9027 4.90215C13.9027 2.19909 11.7036 0 9.00049 0C6.2974 0 4.0983 2.19909 4.0983 4.90215C4.0983 6.33899 5.58802 9.24427 7.09133 11.8102C6.32366 11.889 5.61765 12.0154 5.01915 12.1845C3.70948 12.5544 3.04541 13.09 3.04541 13.7762C3.04538 14.4623 3.70944 14.9979 5.01912 15.3679ZM9.00049 1.05469C11.122 1.05469 12.848 2.78065 12.848 4.90215C12.848 5.99186 11.4997 8.84837 9.24131 12.5434C9.16671 12.6654 9.04802 12.6786 9.00046 12.6786C8.95293 12.6786 8.8342 12.6654 8.7596 12.5434C6.50123 8.84837 5.15292 5.99189 5.15292 4.90215C5.15299 2.78065 6.87895 1.05469 9.00049 1.05469ZM5.49735 13.148C6.12612 12.9879 6.87948 12.8755 7.69156 12.817C7.74791 12.91 7.80398 13.0022 7.85971 13.0933C8.10461 13.494 8.53105 13.7332 9.00046 13.7332C9.4699 13.7332 9.89631 13.494 10.1412 13.0933C10.1969 13.0021 10.253 12.9099 10.3094 12.817C11.1215 12.8754 11.8748 12.9879 12.5036 13.148C13.4674 13.3935 13.8196 13.6699 13.892 13.7761C13.8195 13.8824 13.4675 14.1588 12.5036 14.4042C11.5469 14.6479 10.3028 14.7821 9.00046 14.7821C7.69813 14.7821 6.45398 14.6479 5.49731 14.4042C4.53347 14.1588 4.18138 13.8824 4.10899 13.7761C4.18141 13.6699 4.5335 13.3935 5.49735 13.148Z" fill="#00898F" fill-opacity="0.7"/>
<path d="M16.4647 12.6202C16.2094 12.48 15.8888 12.5732 15.7486 12.8285C15.6084 13.0838 15.7016 13.4044 15.9569 13.5446C16.585 13.8897 16.9453 14.2722 16.9453 14.5942C16.9453 14.988 16.3874 15.5983 14.8214 16.1303C13.2744 16.656 11.2069 16.9454 9 16.9454C6.79307 16.9454 4.72563 16.656 3.17858 16.1303C1.61262 15.5983 1.05469 14.988 1.05469 14.5942C1.05469 14.2722 1.41497 13.8897 2.04314 13.5445C2.29841 13.4043 2.39164 13.0837 2.25141 12.8284C2.11117 12.5732 1.79065 12.4799 1.53531 12.6202C0.834926 13.005 0 13.6598 0 14.5942C0 15.3105 0.492609 16.3317 2.83929 17.129C4.49276 17.6907 6.68067 18.0001 9 18.0001C11.3193 18.0001 13.5072 17.6907 15.1607 17.129C17.5074 16.3317 18 15.3105 18 14.5942C18 13.6598 17.1651 13.005 16.4647 12.6202Z" fill="#00898F" fill-opacity="0.7"/>
<path d="M10.9721 4.56555C10.9721 3.47911 10.0881 2.59521 9.00165 2.59521C7.91518 2.59521 7.03125 3.47911 7.03125 4.56555C7.03125 5.65202 7.91518 6.53591 9.00165 6.53591C10.0881 6.53591 10.9721 5.65205 10.9721 4.56555ZM8.08594 4.56555C8.08594 4.06067 8.49674 3.6499 9.00165 3.6499C9.50657 3.6499 9.91737 4.06067 9.91737 4.56555C9.91737 5.07043 9.50657 5.48123 9.00165 5.48123C8.49674 5.48123 8.08594 5.07046 8.08594 4.56555Z" fill="#00898F" fill-opacity="0.7"/>
</g>
<defs>
<clipPath id="clip0_3598_87585">
<rect width="18" height="18" fill="white"/>
</clipPath>
</defs>
</svg>
