<svg width="88" height="88" viewBox="0 0 88 88" fill="none" xmlns="http://www.w3.org/2000/svg">
<g clip-path="url(#clip0_1077_9764)">
<g filter="url(#filter0_b_1077_9764)">
<circle cx="44.0001" cy="44" r="40.2069" fill="#D9D9D9" fill-opacity="0.4"/>
</g>
<path d="M75.1128 12.8872C66.8022 4.57691 55.7528 0 44 0C32.2472 0 21.1978 4.57691 12.8872 12.8872C4.57691 21.1978 0 32.2472 0 44C0 55.7528 4.57691 66.8022 12.8872 75.1128C21.1978 83.4231 32.2472 88 44 88C55.7528 88 66.8022 83.4231 75.1128 75.1128C83.4231 66.8022 88 55.7528 88 44C88 32.2472 83.4231 21.1978 75.1128 12.8872ZM44 82.5567C22.7397 82.5567 5.4433 65.2603 5.4433 44C5.4433 22.7397 22.7397 5.4433 44 5.4433C65.2603 5.4433 82.5567 22.7397 82.5567 44C82.5567 65.2603 65.2603 82.5567 44 82.5567Z" fill="white"/>
<path d="M32.8525 61.0692L62.4053 43.9999L32.8525 26.9307V61.0692Z" fill="white"/>
</g>
<defs>
<filter id="filter0_b_1077_9764" x="-10.1068" y="-10.1069" width="108.214" height="108.214" filterUnits="userSpaceOnUse" color-interpolation-filters="sRGB">
<feFlood flood-opacity="0" result="BackgroundImageFix"/>
<feGaussianBlur in="BackgroundImageFix" stdDeviation="6.95"/>
<feComposite in2="SourceAlpha" operator="in" result="effect1_backgroundBlur_1077_9764"/>
<feBlend mode="normal" in="SourceGraphic" in2="effect1_backgroundBlur_1077_9764" result="shape"/>
</filter>
<clipPath id="clip0_1077_9764">
<rect width="88" height="88" fill="white"/>
</clipPath>
</defs>
</svg>
