<svg width="12" height="13" viewBox="0 0 12 13" fill="none" xmlns="http://www.w3.org/2000/svg">
<path d="M6 12.5C7.60266 12.5 9.10938 11.8759 10.2427 10.7427C11.3759 9.60938 12 8.10266 12 6.5C12 4.89734 11.3759 3.39062 10.2427 2.25734C9.10938 1.12412 7.60266 0.5 6 0.5C4.39734 0.5 2.89062 1.12412 1.75734 2.25734C0.624118 3.39062 0 4.89734 0 6.5C0 8.10266 0.624118 9.60938 1.75734 10.7427C2.89062 11.8759 4.39734 12.5 6 12.5ZM6 1.4375C7.35225 1.4375 8.62355 1.96409 9.57973 2.92027C10.5359 3.87645 11.0625 5.14775 11.0625 6.5C11.0625 7.85225 10.5359 9.12355 9.57973 10.0797C8.62355 11.0359 7.35225 11.5625 6 11.5625C4.64777 11.5625 3.37645 11.0359 2.42027 10.0797C1.46409 9.12355 0.9375 7.85225 0.9375 6.5C0.9375 5.14775 1.46409 3.87645 2.42027 2.92027C3.37645 1.96409 4.64777 1.4375 6 1.4375ZM7.05788 9.31599L7.6538 8.59227L5.11275 6.5L7.6538 4.40773L7.05788 3.68401L3.63783 6.5L7.05788 9.31599Z" fill="#00898F"/>
</svg>
