<svg width="22" height="23" viewBox="0 0 22 23" fill="none" xmlns="http://www.w3.org/2000/svg">
<g clip-path="url(#clip0_5315_80628)">
<path d="M13.4851 3.69012L13.4851 3.69011C12.7533 2.9584 11.8923 2.60171 10.8582 2.60171C9.82393 2.60171 8.96315 2.9584 8.23144 3.69011C7.49958 4.42197 7.14273 5.2829 7.14273 6.31689C7.14273 7.35117 7.49958 8.2121 8.23145 8.94381L8.23145 8.94382C8.96346 9.67551 9.82422 10.0324 10.8582 10.0324C11.8923 10.0324 12.7533 9.67567 13.4851 8.94381L13.4851 8.9438C14.2169 8.21195 14.5737 7.35118 14.5737 6.31689C14.5737 5.2829 14.2169 4.42198 13.4851 3.69012ZM14.2146 9.67307C13.2912 10.5965 12.1631 11.0638 10.8582 11.0638C9.55364 11.0638 8.42559 10.5963 7.50202 9.67323C6.57877 8.74998 6.11133 7.62192 6.11133 6.31689C6.11133 5.01216 6.57876 3.8841 7.50202 2.96085C8.42527 2.0376 9.55317 1.57031 10.8582 1.57031C12.1629 1.57031 13.291 2.03759 14.2144 2.96069C15.1378 3.88425 15.6051 5.01231 15.6051 6.31689C15.6051 7.62192 15.1377 8.74982 14.2146 9.67307Z" fill="white" stroke="white" stroke-width="0.140625"/>
<path d="M4.43506 19.7243L4.38658 19.7753C3.9505 19.3602 3.74234 18.7955 3.74234 18.0608C3.74234 17.6846 3.75475 17.3129 3.77959 16.956C3.77959 16.956 3.77959 16.956 3.77959 16.956L3.84973 16.9608L4.43506 19.7243ZM4.43506 19.7243L4.38658 19.7753C4.82971 20.197 5.41578 20.3986 6.16861 20.3986H15.7986C16.5513 20.3986 17.1373 20.197 17.5806 19.7751M4.43506 19.7243C4.862 20.1307 5.42902 20.3283 6.16861 20.3283H15.7986C16.538 20.3283 17.105 20.1307 17.5321 19.7242M6.96574 12.2636L6.9821 12.2723L6.96574 12.2636ZM6.96574 12.2636L6.94722 12.2641M6.96574 12.2636L6.94722 12.2641M6.94722 12.2641C6.60334 12.2733 6.28486 12.3344 6.00022 12.4471C5.69459 12.568 5.43321 12.7301 5.22475 12.9296L6.94722 12.2641ZM9.35351 13.5323L9.35354 13.5323C9.89142 13.7062 10.4396 13.7944 10.9832 13.7944C11.5269 13.7944 12.0752 13.7062 12.6127 13.5324L12.6128 13.5324C13.1421 13.3614 13.5819 13.1645 13.9219 12.9477C14.2359 12.747 14.5057 12.5732 14.7464 12.4162L14.7464 12.4161C14.8661 12.3382 14.941 12.2953 14.9843 12.2723L15.0007 12.2636L15.0192 12.2641C15.3632 12.2733 15.6817 12.3344 15.9665 12.4471L15.9665 12.4471C16.272 12.568 16.5334 12.7302 16.7418 12.9296C16.9623 13.1405 17.161 13.4015 17.3331 13.7044M9.35351 13.5323L17.5321 19.7242M9.35351 13.5323C8.82462 13.3615 8.38466 13.1645 8.04509 12.948C7.73827 12.752 7.46076 12.573 7.22005 12.4162L9.35351 13.5323ZM17.3331 13.7044L17.272 13.7391L17.3331 13.7043C17.3331 13.7043 17.3331 13.7044 17.3331 13.7044ZM17.3331 13.7044C17.5129 14.0204 17.658 14.3491 17.7642 14.681C17.8747 15.0261 17.9674 15.406 18.0399 15.8101L18.0399 15.8101C18.1132 16.2197 18.163 16.6053 18.1873 16.9561L18.1873 16.9564L18.1876 16.961H18.1876C18.2124 17.3152 18.2249 17.6851 18.225 18.0608V18.0609C18.2249 18.7957 18.0167 19.3602 17.5806 19.7751M17.5806 19.7751L17.5321 19.7242M17.5806 19.7751C17.5806 19.7751 17.5806 19.7751 17.5806 19.7751L17.5321 19.7242M19.2161 16.8842L19.2161 16.8843C19.2427 17.2634 19.2563 17.6593 19.2564 18.0607C19.2564 19.089 18.9302 19.9149 18.2918 20.5224C17.6605 21.123 16.8238 21.43 15.7987 21.43H6.16861C5.14327 21.43 4.30658 21.123 3.67545 20.5224C3.03712 19.9145 2.71094 19.0889 2.71094 18.0608C2.71094 17.6608 2.72431 17.2649 2.75075 16.8847L2.75075 16.8847C2.77756 16.4969 2.83167 16.0742 2.91186 15.6281L2.91186 15.628C2.99255 15.1785 3.09636 14.7541 3.22029 14.3666C3.34815 13.9672 3.52194 13.5729 3.73677 13.1948L3.73677 13.1948C3.95898 12.8035 4.21979 12.4637 4.51159 12.1845C4.81553 11.8937 5.1883 11.6593 5.62046 11.4882L5.62047 11.4882C6.0498 11.3181 6.52675 11.2314 7.03882 11.2314C7.22045 11.2314 7.40252 11.3041 7.78306 11.5521L7.78306 11.5521C8.02146 11.7074 8.2963 11.8845 8.59993 12.0785L8.59996 12.0786C8.86836 12.2499 9.22955 12.4085 9.67069 12.551C10.1053 12.6915 10.5469 12.763 10.9831 12.763C11.4195 12.763 11.8611 12.6915 12.2954 12.551C12.737 12.4083 13.0981 12.2497 13.3669 12.0784L13.367 12.0784C13.6735 11.8825 13.9482 11.7054 14.183 11.5522C14.5639 11.3043 14.746 11.2316 14.9276 11.2316C15.4395 11.2316 15.9166 11.3181 16.3461 11.488C16.7786 11.6594 17.1512 11.8939 17.4548 12.1844L17.4549 12.1844C17.7466 12.4634 18.0074 12.8033 18.2298 13.1948L18.2298 13.1948C18.4449 13.5729 18.6186 13.9673 18.7465 14.3665C18.8705 14.754 18.9743 15.1785 19.055 15.628C19.1351 16.0749 19.1893 16.4974 19.2161 16.8842ZM7.03882 11.1611C6.5188 11.1611 6.03296 11.2492 5.59457 11.4228L9.69232 12.4841C9.25439 12.3426 8.89932 12.1862 8.63779 12.0193C8.33429 11.8253 8.05963 11.6483 7.82144 11.4932C7.44043 11.2449 7.24298 11.1611 7.03882 11.1611Z" fill="white" stroke="white" stroke-width="0.140625"/>
</g>
<defs>
<clipPath id="clip0_5315_80628">
<rect width="20" height="20" fill="white" transform="translate(1 1.5)"/>
</clipPath>
</defs>
</svg>
