<svg width="36" height="35" viewBox="0 0 36 35" fill="none" xmlns="http://www.w3.org/2000/svg">
<mask id="path-1-inside-1_5690_97962" fill="white">
<path d="M18.0039 0.785156L24.1224 11.0417L36.0039 13.5537L27.9039 22.4047L29.1285 34.2137L18.0039 29.4274L6.87929 34.2137L8.10391 22.4047L0.00390625 13.5537L11.8854 11.0417L18.0039 0.785156Z"/>
</mask>
<path d="M18.0039 0.785156L24.1224 11.0417L36.0039 13.5537L27.9039 22.4047L29.1285 34.2137L18.0039 29.4274L6.87929 34.2137L8.10391 22.4047L0.00390625 13.5537L11.8854 11.0417L18.0039 0.785156Z" fill="#ECECEC"/>
<path d="M18.0039 0.785156L20.2122 -0.532228L18.0039 -4.23406L15.7956 -0.532228L18.0039 0.785156ZM24.1224 11.0417L21.9141 12.3591L22.4903 13.3249L23.5905 13.5575L24.1224 11.0417ZM36.0039 13.5537L37.9009 15.2898L40.9398 11.969L36.5358 11.0379L36.0039 13.5537ZM27.9039 22.4047L26.0069 20.6686L25.227 21.5209L25.3462 22.6699L27.9039 22.4047ZM29.1285 34.2137L28.1122 36.5758L32.1383 38.308L31.6862 33.9485L29.1285 34.2137ZM18.0039 29.4274L19.0202 27.0653L18.0039 26.6281L16.9876 27.0653L18.0039 29.4274ZM6.87929 34.2137L4.32158 33.9485L3.86949 38.308L7.89557 36.5758L6.87929 34.2137ZM8.10391 22.4047L10.6616 22.6699L10.7808 21.5209L10.0009 20.6686L8.10391 22.4047ZM0.00390625 13.5537L-0.528004 11.0379L-4.93203 11.969L-1.89306 15.2898L0.00390625 13.5537ZM11.8854 11.0417L12.4173 13.5575L13.5176 13.3249L14.0937 12.3591L11.8854 11.0417ZM15.7956 2.10254L21.9141 12.3591L26.3308 9.72429L20.2122 -0.532228L15.7956 2.10254ZM23.5905 13.5575L35.472 16.0695L36.5358 11.0379L24.6544 8.52586L23.5905 13.5575ZM34.1069 11.8177L26.0069 20.6686L29.8009 24.1407L37.9009 15.2898L34.1069 11.8177ZM25.3462 22.6699L26.5708 34.479L31.6862 33.9485L30.4616 22.1394L25.3462 22.6699ZM30.1448 31.8516L19.0202 27.0653L16.9876 31.7895L28.1122 36.5758L30.1448 31.8516ZM16.9876 27.0653L5.86301 31.8516L7.89557 36.5758L19.0202 31.7895L16.9876 27.0653ZM9.43701 34.479L10.6616 22.6699L5.54619 22.1394L4.32158 33.9485L9.43701 34.479ZM10.0009 20.6686L1.90087 11.8177L-1.89306 15.2898L6.20694 24.1407L10.0009 20.6686ZM0.535816 16.0695L12.4173 13.5575L11.3535 8.52586L-0.528004 11.0379L0.535816 16.0695ZM14.0937 12.3591L20.2122 2.10254L15.7956 -0.532228L9.67703 9.72429L14.0937 12.3591Z" fill="#ECECEC" mask="url(#path-1-inside-1_5690_97962)"/>
</svg>
