<svg width="22" height="22" viewBox="0 0 22 22" fill="none" xmlns="http://www.w3.org/2000/svg">
<path fill-rule="evenodd" clip-rule="evenodd" d="M17.9348 17.0459H16.5687C16.441 17.0459 16.3374 16.9424 16.3374 16.8147C16.3375 16.6869 16.441 16.5833 16.5687 16.5833L17.9348 16.5833C18.262 16.5833 18.5275 16.3175 18.5275 15.9907C18.5276 15.6638 18.262 15.3979 17.9348 15.3979L16.5687 15.3979C16.441 15.3979 16.3374 15.2944 16.3374 15.1666C16.3375 15.0389 16.441 14.9354 16.5687 14.9354L17.9348 14.9353C18.5169 14.9353 18.9901 15.4087 18.9901 15.9907C18.9901 16.5725 18.5169 17.046 17.9348 17.0459Z" fill="black"/>
<path fill-rule="evenodd" clip-rule="evenodd" d="M5.43118 17.0459H4.06511C3.48299 17.0459 3.00977 16.5725 3.00977 15.9907C3.00985 15.4087 3.48296 14.9354 4.06508 14.9354L5.43118 14.9353C5.5589 14.9353 5.66243 15.0389 5.66243 15.1666C5.66243 15.2944 5.55885 15.3979 5.43112 15.3979L4.06511 15.3979C3.73788 15.3979 3.47235 15.6638 3.47235 15.9907C3.47236 16.3174 3.73786 16.5833 4.06508 16.5833L5.43118 16.5833C5.5589 16.5833 5.66243 16.6869 5.66243 16.8147C5.66243 16.9424 5.55885 17.046 5.43118 17.0459Z" fill="black"/>
<path fill-rule="evenodd" clip-rule="evenodd" d="M20.7649 6.6123C20.6969 6.6123 20.6295 6.58247 20.5837 6.52507L18.239 3.57976L14.3798 1.90218C14.2627 1.85129 14.2091 1.71506 14.2602 1.59793C14.3108 1.48065 14.4472 1.42706 14.5642 1.47799L18.4761 3.17851C18.5108 3.19357 18.5411 3.21698 18.5647 3.24656L20.9456 6.23695C21.0251 6.33686 21.0087 6.48238 20.9089 6.562C20.8662 6.59583 20.8155 6.61234 20.7649 6.6123ZM1.23502 6.6123C1.18439 6.6123 1.13378 6.59587 1.09088 6.562C0.9912 6.48241 0.974757 6.3369 1.05425 6.23697L3.43519 3.24654C3.45827 3.21698 3.48913 3.19361 3.5238 3.17853L7.43563 1.47795C7.55273 1.42715 7.68906 1.48073 7.73963 1.59793C7.79082 1.71505 7.73723 1.85129 7.62013 1.90222L3.76098 3.57976L1.4162 6.52507C1.37045 6.58243 1.3029 6.61234 1.23502 6.6123ZM16.5689 13.7211C16.4411 13.7211 16.3375 13.6175 16.3375 13.4897L16.3376 7.01724C16.3376 6.92189 16.3963 6.83633 16.485 6.80171C16.5742 6.76718 16.6748 6.79062 16.7394 6.86099L18.4384 8.71384C18.5247 8.80806 18.5184 8.9544 18.424 9.0407C18.33 9.12698 18.1835 9.12073 18.0973 9.02653L16.8001 7.61182V13.4897C16.8001 13.6174 16.697 13.7211 16.5689 13.7211ZM5.43106 17.046C5.3029 17.046 5.19972 16.9425 5.19972 16.8147L5.1998 7.61182L3.90256 9.02653C3.81637 9.12069 3.66981 9.12705 3.57583 9.04074C3.48146 8.95443 3.47513 8.80814 3.56138 8.71394L5.26052 6.86097C5.32502 6.7906 5.42571 6.76721 5.51486 6.80171C5.60356 6.8363 5.66231 6.92189 5.66231 7.01724V16.8147C5.66231 16.9424 5.55873 17.046 5.43106 17.046ZM16.5689 21.0786H5.43106C5.3029 21.0786 5.19972 20.975 5.19972 20.8474L5.1998 18.4916C5.1998 18.364 5.30285 18.2604 5.431 18.2604C5.55878 18.2604 5.66231 18.364 5.66231 18.4917V20.616H16.3376V15.1667C16.3376 15.039 16.4411 14.9354 16.5688 14.9354C16.697 14.9354 16.8001 15.039 16.8001 15.1667L16.8001 20.8473C16.8001 20.975 16.697 21.0786 16.5689 21.0786Z" fill="#00898F"/>
<path fill-rule="evenodd" clip-rule="evenodd" d="M0.870275 6.81089L3.29704 9.22657L3.53306 8.9894L1.10642 6.57365L0.870275 6.81089ZM3.29704 9.69045C3.17993 9.69045 3.06229 9.64597 2.97312 9.55697L0.541231 7.13625C0.454503 7.0499 0.406253 6.93478 0.406253 6.812C0.40581 6.68918 0.453479 6.57385 0.539723 6.48702L0.780737 6.24483C0.959508 6.06544 1.25046 6.06481 1.4302 6.24334L3.86179 8.66397C3.94842 8.75045 3.99659 8.86564 3.99659 8.98837C3.9971 9.11111 3.94986 9.22656 3.86312 9.31335L3.6223 9.55542C3.53263 9.6454 3.415 9.69045 3.29704 9.69045Z" fill="#00898F"/>
<path fill-rule="evenodd" clip-rule="evenodd" d="M7.9853 1.38428C7.97272 1.38428 7.95967 1.38533 7.94713 1.3874C7.82137 1.40785 7.73561 1.52694 7.75632 1.65291C8.03106 3.33052 9.33441 4.45779 11.0002 4.45779C12.6661 4.45775 13.9694 3.33052 14.2441 1.65266C14.2644 1.52696 14.1786 1.40787 14.0528 1.3874C13.9267 1.36677 13.808 1.45264 13.7873 1.5786C13.5512 3.02254 12.4309 3.99259 11.0002 3.99259C9.56963 3.99256 8.44925 3.02255 8.21266 1.5788C8.21266 1.57874 8.21266 1.57865 8.21266 1.57856C8.20301 1.51757 8.16976 1.4641 8.11964 1.42802C8.08016 1.39934 8.03293 1.38431 7.9853 1.38428ZM11.0003 4.92036C9.09931 4.92036 7.61226 3.63721 7.2995 1.7274C7.23841 1.34947 7.49565 0.99222 7.87293 0.93078C8.0561 0.901049 8.23963 0.94433 8.38999 1.05259C8.5404 1.16094 8.63958 1.32137 8.66945 1.50434C8.87096 2.73485 9.78593 3.53001 11.0002 3.53001C12.2145 3.53001 13.1296 2.73473 13.331 1.50405C13.3923 1.12656 13.7497 0.869242 14.127 0.93078C14.5049 0.992179 14.7621 1.34947 14.7009 1.72717C14.3882 3.63717 12.9007 4.92036 11.0003 4.92036Z" fill="#00898F"/>
<path fill-rule="evenodd" clip-rule="evenodd" d="M10.9999 2.14185C10.1166 2.14185 9.23379 2.01568 8.37561 1.76333C8.2528 1.72725 8.18285 1.59872 8.21899 1.47619C8.25464 1.35364 8.38328 1.28345 8.50618 1.31953C10.1373 1.79913 11.8619 1.79913 13.4935 1.31953C13.6159 1.28344 13.7445 1.35365 13.7807 1.47619C13.8169 1.59871 13.7464 1.72729 13.624 1.76333C12.7654 2.01564 11.8826 2.14189 10.9999 2.14185Z" fill="#00898F"/>
<path fill-rule="evenodd" clip-rule="evenodd" d="M16.5688 19.914H5.43061C5.30289 19.914 5.19922 19.8104 5.19922 19.6825C5.19925 19.5547 5.30283 19.4512 5.43053 19.4512H16.5688C16.6966 19.4512 16.8001 19.5547 16.8001 19.6825C16.8001 19.8103 16.6965 19.914 16.5688 19.914Z" fill="#00898F"/>
<path fill-rule="evenodd" clip-rule="evenodd" d="M18.4673 8.9894L18.7033 9.22656L21.1301 6.81088L20.8939 6.57364L18.4673 8.9894ZM18.7033 9.69045C18.5853 9.69045 18.4677 9.64543 18.3781 9.55547L18.1372 9.31325C17.9584 9.13392 17.9588 8.84269 18.1386 8.66406L20.5701 6.24335C20.7493 6.06479 21.0408 6.06552 21.2191 6.24484L21.4606 6.48697C21.5468 6.57381 21.5945 6.6892 21.594 6.81199C21.5935 6.93474 21.5458 7.04993 21.4591 7.13633L19.0272 9.55692C18.938 9.64586 18.8204 9.69045 18.7033 9.69045Z" fill="#00898F"/>
<path fill-rule="evenodd" clip-rule="evenodd" d="M18.7591 16.2219C18.6314 16.2219 18.5278 16.1183 18.5278 15.9906L18.5279 14.1835C18.5279 13.9284 18.3206 13.721 18.0651 13.721H11.415C11.3037 13.721 11.2126 13.8117 11.2126 13.9233V14.7329C11.2126 14.8445 11.3037 14.9353 11.415 14.9353L17.0378 14.9353C17.1659 14.9353 17.269 15.0389 17.269 15.1666C17.269 15.2943 17.1659 15.3979 17.0377 15.3979L11.415 15.3979C11.0488 15.3979 10.7505 15.0996 10.7505 14.7329L10.7505 13.9233C10.7505 13.5566 11.0487 13.2583 11.415 13.2583L18.0652 13.2583C18.5756 13.2583 18.9904 13.6734 18.9904 14.1836L18.9904 15.9906C18.9904 16.1183 18.8868 16.2219 18.7591 16.2219Z" fill="black"/>
<path fill-rule="evenodd" clip-rule="evenodd" d="M12.8938 18.7228H3.935C3.68823 18.7228 3.45599 18.6265 3.28108 18.4514C3.10624 18.2765 3.00977 18.0443 3.00977 17.7977L3.00985 15.9906C3.00985 15.8629 3.1129 15.7593 3.24108 15.7593C3.36883 15.7592 3.47235 15.8629 3.47235 15.9906L3.47236 17.7976C3.47236 17.9207 3.52056 18.0368 3.60823 18.1244C3.69549 18.212 3.81161 18.2602 3.93496 18.2602H12.8938C13.0032 18.2602 13.0923 18.1695 13.0923 18.0579L13.0923 17.2483C13.0923 17.1366 13.0031 17.0459 12.8937 17.0459L4.96242 17.0459C4.83427 17.0459 4.7311 16.9424 4.7311 16.8146C4.73117 16.6869 4.83421 16.5833 4.96237 16.5833L12.8938 16.5833C13.2581 16.5833 13.5549 16.8816 13.5549 17.2483L13.5549 18.0578C13.5549 18.4246 13.258 18.7228 12.8938 18.7228Z" fill="black"/>
<path fill-rule="evenodd" clip-rule="evenodd" d="M17.935 15.3977C17.8072 15.3977 17.7036 15.2942 17.7036 15.1665L17.7037 14.5555C17.7037 14.4277 17.8072 14.3242 17.9349 14.3242C18.0627 14.3242 18.1662 14.4278 18.1662 14.5555L18.1662 15.1664C18.1662 15.2942 18.0626 15.3978 17.935 15.3977Z" fill="black"/>
<path fill-rule="evenodd" clip-rule="evenodd" d="M16.7763 15.3977C16.6485 15.3977 16.5449 15.2941 16.5449 15.1664L16.545 14.23C16.545 14.1024 16.6485 13.9988 16.7762 13.9988C16.904 13.9988 17.0075 14.1024 17.0075 14.2301V15.1664C17.0075 15.2941 16.9039 15.3977 16.7763 15.3977Z" fill="black"/>
<path fill-rule="evenodd" clip-rule="evenodd" d="M15.617 15.3977C15.4893 15.3977 15.3857 15.2942 15.3857 15.1665L15.3858 14.5555C15.3858 14.4278 15.4893 14.3242 15.617 14.3242C15.7448 14.3242 15.8483 14.4278 15.8483 14.5555V15.1665C15.8483 15.2942 15.7447 15.3978 15.617 15.3977Z" fill="black"/>
<path fill-rule="evenodd" clip-rule="evenodd" d="M14.4584 15.3977C14.3306 15.3977 14.2271 15.2941 14.2271 15.1664L14.2271 14.23C14.2271 14.1024 14.3306 13.9988 14.4583 13.9988C14.5861 13.9988 14.6896 14.1024 14.6896 14.2301L14.6897 15.1664C14.6897 15.2941 14.586 15.3977 14.4584 15.3977Z" fill="black"/>
<path fill-rule="evenodd" clip-rule="evenodd" d="M13.2997 15.3977C13.1721 15.3977 13.0684 15.2942 13.0684 15.1665L13.0684 14.5555C13.0684 14.4278 13.172 14.3242 13.2996 14.3242C13.4274 14.3242 13.531 14.4278 13.531 14.5555L13.531 15.1665C13.531 15.2942 13.4273 15.3978 13.2997 15.3977Z" fill="black"/>
<path fill-rule="evenodd" clip-rule="evenodd" d="M12.1406 15.3977C12.0129 15.3977 11.9092 15.2941 11.9092 15.1664L11.9092 14.23C11.9092 14.1024 12.0128 13.9988 12.1405 13.9988C12.2682 13.9988 12.3718 14.1024 12.3718 14.2301L12.3718 15.1664C12.3718 15.2941 12.2682 15.3977 12.1406 15.3977Z" fill="black"/>
<path fill-rule="evenodd" clip-rule="evenodd" d="M3.93495 18.7229C3.8068 18.7229 3.70361 18.6194 3.70361 18.4917L3.70368 17.8807C3.70368 17.753 3.80673 17.6494 3.93491 17.6494C4.06266 17.6494 4.16618 17.753 4.16618 17.8807L4.1662 18.4916C4.1662 18.6194 4.0626 18.723 3.93495 18.7229Z" fill="black"/>
<path fill-rule="evenodd" clip-rule="evenodd" d="M5.09366 18.7229C4.96593 18.7229 4.8623 18.6193 4.8623 18.4916L4.8624 17.5552C4.8624 17.4275 4.96591 17.324 5.09359 17.324C5.22137 17.324 5.3249 17.4275 5.3249 17.5553L5.32491 18.4915C5.32491 18.6193 5.22131 18.7229 5.09366 18.7229Z" fill="black"/>
<path fill-rule="evenodd" clip-rule="evenodd" d="M6.25285 18.7229C6.12513 18.7229 6.02148 18.6194 6.02148 18.4917V17.8807C6.02148 17.753 6.1251 17.6494 6.2528 17.6494C6.38056 17.6494 6.48407 17.753 6.48407 17.8807L6.48409 18.4916C6.48409 18.6194 6.38047 18.723 6.25285 18.7229Z" fill="black"/>
<path fill-rule="evenodd" clip-rule="evenodd" d="M7.41156 18.7229C7.28383 18.7229 7.18018 18.6193 7.18018 18.4916V17.5552C7.18018 17.4275 7.28378 17.324 7.41147 17.324C7.53916 17.324 7.64277 17.4275 7.64277 17.5553L7.6428 18.4915C7.6428 18.6193 7.53916 18.7229 7.41156 18.7229Z" fill="black"/>
<path fill-rule="evenodd" clip-rule="evenodd" d="M8.57075 18.7229C8.44303 18.7229 8.33936 18.6194 8.33936 18.4917L8.33938 17.8807C8.33938 17.753 8.44296 17.6494 8.57067 17.6494C8.69835 17.6494 8.80195 17.753 8.80195 17.8807L8.80201 18.4916C8.80201 18.6194 8.69835 18.723 8.57075 18.7229Z" fill="black"/>
<path fill-rule="evenodd" clip-rule="evenodd" d="M9.72941 18.7229C9.6017 18.7229 9.49805 18.6193 9.49805 18.4916L9.49806 17.5552C9.49806 17.4275 9.60163 17.324 9.72932 17.324C9.85703 17.324 9.9606 17.4275 9.9606 17.5553L9.96067 18.4915C9.96067 18.6193 9.857 18.7229 9.72941 18.7229Z" fill="black"/>
<path fill-rule="evenodd" clip-rule="evenodd" d="M10.888 18.7229C10.7604 18.7229 10.6567 18.6194 10.6567 18.4917L10.6568 17.8807C10.6568 17.753 10.7603 17.6494 10.888 17.6494C11.0163 17.6494 11.1193 17.753 11.1193 17.8807L11.1194 18.4916C11.1194 18.6194 11.0162 18.723 10.888 18.7229Z" fill="black"/>
<path fill-rule="evenodd" clip-rule="evenodd" d="M12.0478 18.7229C11.9196 18.7229 11.8164 18.6193 11.8164 18.4916V17.5552C11.8164 17.4275 11.9195 17.324 12.0477 17.324C12.1754 17.324 12.279 17.4275 12.279 17.5553L12.279 18.4915C12.279 18.6193 12.1754 18.7229 12.0478 18.7229Z" fill="black"/>
</svg>
