<svg width="32" height="32" viewBox="0 0 32 32" fill="none" xmlns="http://www.w3.org/2000/svg">
<path d="M17.1532 3.99496C16.6394 3.10943 15.3606 3.10942 14.8468 3.99496L11.228 10.2314C10.9742 10.6688 10.5355 10.9673 10.0354 11.0429L3.25362 12.0672C2.11457 12.2392 1.71503 13.6774 2.6021 14.4123L7.65422 18.5979C8.12188 18.9854 8.34177 19.5965 8.22817 20.1931L6.90661 27.1333C6.6977 28.2304 7.84942 29.0828 8.83762 28.5625L15.2235 25.2001C15.7095 24.9441 16.2905 24.9441 16.7765 25.2001L23.1624 28.5625C24.1506 29.0828 25.3023 28.2304 25.0934 27.1333L23.7718 20.1931C23.6582 19.5965 23.8781 18.9854 24.3458 18.5979L29.3979 14.4123C30.285 13.6774 29.8854 12.2392 28.7464 12.0672L21.9646 11.0429C21.4645 10.9673 21.0258 10.6688 20.772 10.2314L17.1532 3.99496Z" fill="#7DD3FC"/>
</svg>
