<svg width="12" height="13" viewBox="0 0 12 13" fill="none" xmlns="http://www.w3.org/2000/svg">
<path d="M6 12.5449C4.39734 12.5449 2.89062 11.9208 1.75734 10.7876C0.624117 9.6543 0 8.14758 0 6.54492C0 4.94227 0.624117 3.43554 1.75734 2.30227C2.89062 1.16904 4.39734 0.544922 6 0.544922C7.60266 0.544922 9.10938 1.16904 10.2427 2.30227C11.3759 3.43554 12 4.94227 12 6.54492C12 8.14758 11.3759 9.6543 10.2427 10.7876C9.10938 11.9208 7.60266 12.5449 6 12.5449ZM6 1.48242C4.64775 1.48242 3.37645 2.00902 2.42027 2.9652C1.46409 3.92138 0.9375 5.19267 0.9375 6.54492C0.9375 7.89717 1.46409 9.16847 2.42027 10.1246C3.37645 11.0808 4.64775 11.6074 6 11.6074C7.35223 11.6074 8.62355 11.0808 9.57973 10.1246C10.5359 9.16847 11.0625 7.89717 11.0625 6.54492C11.0625 5.19267 10.5359 3.92138 9.57973 2.9652C8.62355 2.00902 7.35223 1.48242 6 1.48242ZM4.94212 9.36091L4.3462 8.63719L6.88725 6.54492L4.3462 4.45266L4.94212 3.72893L8.36217 6.54492L4.94212 9.36091Z" fill="#00898F"/>
</svg>
