<svg width="12" height="13" viewBox="0 0 12 13" fill="none" xmlns="http://www.w3.org/2000/svg">
<path d="M6 12.5449C7.60266 12.5449 9.10938 11.9208 10.2427 10.7876C11.3759 9.6543 12 8.14758 12 6.54492C12 4.94227 11.3759 3.43554 10.2427 2.30227C9.10938 1.16904 7.60266 0.544922 6 0.544922C4.39734 0.544922 2.89062 1.16904 1.75734 2.30227C0.624118 3.43554 0 4.94227 0 6.54492C0 8.14758 0.624118 9.6543 1.75734 10.7876C2.89062 11.9208 4.39734 12.5449 6 12.5449ZM6 1.48242C7.35225 1.48242 8.62355 2.00902 9.57973 2.9652C10.5359 3.92137 11.0625 5.19267 11.0625 6.54492C11.0625 7.89717 10.5359 9.16847 9.57973 10.1246C8.62355 11.0808 7.35225 11.6074 6 11.6074C4.64777 11.6074 3.37645 11.0808 2.42027 10.1246C1.46409 9.16847 0.9375 7.89717 0.9375 6.54492C0.9375 5.19267 1.46409 3.92137 2.42027 2.9652C3.37645 2.00902 4.64777 1.48242 6 1.48242ZM7.05788 9.36091L7.6538 8.63719L5.11275 6.54492L7.6538 4.45266L7.05788 3.72893L3.63783 6.54492L7.05788 9.36091Z" fill="#00898F"/>
</svg>
