<svg width="32" height="60" viewBox="0 0 32 60" fill="none" xmlns="http://www.w3.org/2000/svg">
<path d="M29.5322 35.3802C29.8856 35.069 30.1882 34.7045 30.4289 34.2997L30.515 34.1503C30.9404 33.4113 31.0554 32.5339 30.8347 31.7103C30.6141 30.8867 30.0759 30.1842 29.3381 29.7568L27.078 28.4522C26.3589 28.0399 25.5083 27.9213 24.7038 28.1211C23.8994 28.3209 23.2031 28.8237 22.7605 29.5245C22.5032 29.4108 22.2504 29.2807 21.9911 29.183C21.6458 28.6608 20.697 26.8439 19.207 23.6846C18.8041 22.8427 18.172 22.1314 17.3831 21.6326C16.5942 21.1337 15.6807 20.8675 14.7473 20.8645H13.7951L13.5865 19.5357C16.6526 19.3702 19.5636 18.7775 20.2164 14.1598C20.2469 13.6737 20.1613 13.1873 19.9667 12.7408C19.8837 12.5377 19.8246 12.3256 19.7907 12.1088L19.8191 11.4281C19.935 9.97803 19.858 8.51895 19.5901 7.0891C19.5868 7.07296 19.5756 7.06119 19.5716 7.0454C19.6474 6.64303 19.5957 6.22702 19.4236 5.85546L19.1209 5.20458C19.1075 5.17467 19.0924 5.1456 19.0755 5.11754C18.1638 3.5817 16.838 2.33369 15.2499 1.51642C13.6618 0.69915 11.8756 0.345679 10.096 0.496486C8.3163 0.647293 6.61508 1.29628 5.18715 2.36912C3.75923 3.44196 2.66233 4.89528 2.02207 6.56263C2.01545 6.58103 1.98991 6.65771 1.98517 6.67615C1.68413 7.76709 1.50081 8.88713 1.43836 10.0171L0.64078 24.5924C0.630561 24.777 0.673403 24.9606 0.764241 25.1217C0.855078 25.2827 0.990116 25.4143 1.15339 25.501C1.31666 25.5877 1.50135 25.6259 1.68562 25.611C1.86989 25.5961 2.04604 25.5287 2.19324 25.4169L2.59818 25.1094C1.80092 26.4409 1.37948 27.9636 1.3787 29.5156C1.37871 29.5588 1.38155 29.6019 1.38721 29.6447L2.3579 36.8739C2.77191 39.9688 2.40171 43.1181 1.2813 46.0326C-0.0543669 49.5149 -0.206962 53.3401 0.847057 56.9178L1.23966 58.2413C1.35281 58.6147 1.58261 58.942 1.89537 59.1753C2.20813 59.4085 2.5874 59.5354 2.97755 59.5374H23.2995C23.7803 59.5368 24.2413 59.3456 24.5813 59.0056C24.9213 58.6656 25.1125 58.2046 25.1131 57.7238V56.6595C25.11 56.4934 25.1461 56.3289 25.2184 56.1794C25.2908 56.0298 25.3973 55.8994 25.5293 55.7986C27.4804 54.3823 29.0694 52.5254 30.1671 50.3789C31.2648 48.2323 31.84 45.857 31.8461 43.4461C31.8493 40.5933 31.0473 37.7975 29.5322 35.3802ZM24.3629 30.5983C24.5324 30.3048 24.8117 30.0906 25.1392 30.0028C25.4667 29.9151 25.8156 29.961 26.1092 30.1305L28.3693 31.4351C28.6629 31.6052 28.8769 31.8849 28.9643 32.2127C29.0518 32.5406 29.0055 32.8897 28.8357 33.1834L28.7496 33.3329C28.5799 33.6266 28.354 33.884 28.0849 34.0904C27.8157 34.2968 27.5085 34.4481 27.1808 34.5358C26.8531 34.6234 26.5114 34.6457 26.1751 34.6013C25.8388 34.5569 25.5146 34.4467 25.2209 34.277C24.9272 34.1073 24.6698 33.8814 24.4634 33.6122C24.257 33.343 24.1057 33.0358 24.018 32.7082C23.9303 32.3805 23.908 32.0388 23.9524 31.7025C23.9968 31.3662 24.107 31.0419 24.2767 30.7483L24.3629 30.5983ZM12.4256 17.646C12.2889 17.6513 12.1548 17.6854 12.0322 17.7462C11.9096 17.8069 11.8012 17.8929 11.7142 17.9985C11.6271 18.1041 11.5634 18.227 11.5273 18.3589C11.4911 18.4909 11.4832 18.629 11.5042 18.7643L11.8334 20.8645H10.0293C9.13276 20.8648 8.24173 21.005 7.38844 21.2802C8.79555 19.8854 9.73542 18.0885 10.0785 16.1372C10.0888 16.0813 10.0938 16.0246 10.0937 15.9678L10.0946 15.5743C10.1712 15.0074 10.0994 14.4304 9.88611 13.8997C9.67285 13.3689 9.32549 12.9026 8.878 12.5464C8.70301 12.3248 8.59938 12.0553 8.5808 11.7735C8.56222 11.4918 8.62957 11.211 8.77393 10.9684C8.83538 10.855 8.92728 10.761 9.03928 10.6971C9.15127 10.6332 9.2789 10.6018 9.40777 10.6065H9.40971C9.64326 10.6073 9.87252 10.6693 10.0747 10.7862C10.2768 10.9031 10.4449 11.071 10.562 11.273L11.2838 12.5227C11.4013 12.7244 11.5874 12.8771 11.8082 12.9529C12.0289 13.0288 12.2695 13.0229 12.4862 12.9362C14.4546 11.9466 16.2767 10.6897 17.9009 9.20116C17.9387 9.95209 17.9156 10.6558 17.8843 11.3392L17.855 12.0459C17.8657 12.5042 17.9613 12.9565 18.1369 13.3799C18.2009 13.5464 18.2546 13.7167 18.2977 13.8898C17.8172 17.2941 16.0528 17.5103 12.4256 17.646ZM12.824 34.4713C15.0188 37.8597 18.4382 40.2689 22.3676 41.1954C22.84 41.2998 23.3257 41.3308 23.8075 41.2872C24.2069 41.2771 24.6043 41.346 24.9769 41.49C25.3495 41.6341 25.6899 41.8503 25.9787 42.1263L26.2455 42.3855C26.4186 42.5543 26.5446 42.7654 26.6109 42.9979C26.6773 43.2304 26.6818 43.4762 26.6239 43.7109L26.3694 44.7232C26.3033 44.9924 26.1573 45.2352 25.9507 45.42C25.744 45.6047 25.4863 45.7226 25.2115 45.7582L24.5975 45.8386C23.5611 45.9775 22.5113 45.7085 21.6695 45.0884C21.5734 45.0182 21.4654 44.9663 21.3507 44.9351C16.3085 43.6938 11.9642 40.5041 9.26984 36.0652L12.824 34.4713ZM6.63776 35.1228C5.81924 33.6723 5.14465 32.1452 4.62363 30.5633L4.23386 29.393C4.07327 28.9099 4.00947 28.3999 4.0461 27.8922C4.08272 27.3844 4.21905 26.8888 4.4473 26.4338C4.67555 25.9787 4.99124 25.5731 5.37633 25.2401C5.76141 24.9071 6.20835 24.6533 6.69158 24.4932C7.17482 24.333 7.68488 24.2696 8.19261 24.3067C8.70035 24.3437 9.19581 24.4805 9.65066 24.7091C10.1055 24.9378 10.5109 25.2538 10.8435 25.6392C11.1762 26.0246 11.4296 26.4717 11.5894 26.9551L11.9782 28.1339C12.422 29.4637 13.0162 30.7385 13.7492 31.9336L6.63776 35.1228ZM3.37202 10.1236C3.42616 9.14415 3.58344 8.17319 3.84125 7.22677C4.35406 5.90851 5.22588 4.76026 6.35789 3.91213C7.48991 3.06401 8.83686 2.54993 10.2461 2.42816C11.6553 2.30639 13.0705 2.5818 14.3312 3.22317C15.592 3.86454 16.6478 4.84623 17.3792 6.05699L17.6601 6.72349L17.1019 7.33984C15.6713 8.6107 14.1304 9.75172 12.4975 10.7494L12.2402 10.3043C11.9528 9.80871 11.5406 9.397 11.0447 9.11012C10.5487 8.82323 9.98635 8.67117 9.41342 8.66906H9.40775C8.90899 8.66378 8.41905 8.80074 7.99533 9.06387C7.5716 9.32701 7.23162 9.70543 7.01521 10.1548C6.69523 10.7489 6.5683 11.4279 6.65205 12.0974C6.73581 12.767 7.02609 13.3938 7.48255 13.8907C8.16842 14.6027 8.26587 14.8032 8.17221 15.3221C8.16245 15.378 8.15738 15.4347 8.15708 15.4915L8.15611 15.8765C7.71326 18.0362 6.43558 19.9337 4.60096 21.1563L2.68901 22.6076L3.37202 10.1236ZM24.3922 54.2301C24.0112 54.5083 23.7034 54.8748 23.4949 55.298C23.3591 55.2848 23.2241 55.2752 23.0876 55.2594C22.992 55.2498 22.8965 55.2778 22.8212 55.3375C22.746 55.3972 22.697 55.4839 22.6846 55.5791C22.6739 55.6749 22.7015 55.771 22.7614 55.8465C22.8213 55.922 22.9086 55.9708 23.0044 55.9821C23.0871 55.9915 23.1693 55.9968 23.252 56.0054C23.2031 56.22 23.1775 56.4394 23.1756 56.6595V57.5999H3.07022L2.705 56.3672C1.77143 53.1994 1.9064 49.8123 3.08909 46.7289C4.32641 43.5106 4.73536 40.0331 4.27837 36.6157L3.94111 34.105C4.37928 35.0528 4.87124 35.9747 5.41458 36.8664C5.53718 37.0678 5.72916 37.2176 5.95443 37.2874C6.1797 37.3573 6.42273 37.3425 6.63782 37.2457L7.4853 36.8656C8.92228 39.3037 10.8277 41.4331 13.0916 43.1311C15.3556 44.8291 17.9333 46.0622 20.6761 46.7591C21.8957 47.5976 23.3829 47.9539 24.8501 47.7591L25.465 47.6787C26.1257 47.5939 26.7453 47.3111 27.2422 46.8675C27.7392 46.4239 28.0902 45.8403 28.2492 45.1934L28.5037 44.1812C28.643 43.6173 28.6326 43.0269 28.4735 42.4683C28.3143 41.9098 28.012 41.4025 27.5964 40.9968L27.3296 40.7375C26.8562 40.2766 26.2944 39.9161 25.6781 39.678C25.0617 39.4398 24.4036 39.3288 23.7432 39.3516C23.4533 39.3727 23.1619 39.3641 22.8738 39.326C19.5115 38.5361 16.5659 36.5181 14.615 33.6681L15.5798 33.2354C15.71 33.1769 15.8258 33.0904 15.9187 32.982C16.0115 32.8735 16.0793 32.7459 16.1171 32.6082C16.1549 32.4705 16.1618 32.3262 16.1372 32.1855C16.1127 32.0449 16.0574 31.9114 15.9752 31.7946C15.0518 30.4835 14.3245 29.0447 13.8163 27.5237L13.4284 26.3473C13.1647 25.5516 12.7315 24.8226 12.1588 24.2105C11.586 23.5984 10.8873 23.1179 10.1109 22.802H14.7472C15.314 22.8038 15.8687 22.9654 16.3478 23.2682C16.8269 23.571 17.2109 24.0027 17.4558 24.5138C20.3431 30.6371 20.6581 30.7544 21.1047 30.9214C21.4267 31.0369 21.7452 31.1702 22.0604 31.3118C21.9534 31.9575 21.9881 32.6188 22.1622 33.2498C22.3362 33.8807 22.6453 34.4663 23.0682 34.9659C23.4911 35.4655 24.0175 35.8672 24.6111 36.1431C25.2047 36.4189 25.8511 36.5624 26.5056 36.5636C26.903 36.5635 27.2987 36.5113 27.6825 36.4084C27.7408 36.3928 27.7923 36.3634 27.8496 36.3456C29.1973 38.4685 29.9115 40.9316 29.9086 43.4461C29.903 45.551 29.4004 47.6248 28.4418 49.4987C27.4832 51.3726 26.0957 52.9937 24.3922 54.2301ZM16.7065 54.0777C16.6796 54.1451 16.6331 54.2028 16.5731 54.2434C16.5131 54.284 16.4422 54.3058 16.3697 54.3057C16.3233 54.3057 16.2774 54.2967 16.2344 54.2793C15.6801 54.0569 15.1408 53.8176 14.6328 53.5688C14.5897 53.5479 14.5512 53.5187 14.5194 53.4829C14.4877 53.4471 14.4633 53.4054 14.4477 53.3602C14.4321 53.3149 14.4256 53.2671 14.4285 53.2193C14.4315 53.1715 14.4438 53.1248 14.4649 53.0818C14.4859 53.0388 14.5153 53.0004 14.5512 52.9688C14.5871 52.9372 14.629 52.913 14.6743 52.8976C14.7196 52.8822 14.7675 52.8759 14.8152 52.879C14.863 52.8822 14.9097 52.8948 14.9526 52.916C15.4445 53.1572 15.9677 53.389 16.505 53.6057C16.5493 53.6234 16.5896 53.6497 16.6237 53.683C16.6578 53.7163 16.685 53.7561 16.7037 53.7999C16.7224 53.8438 16.7323 53.8909 16.7328 53.9385C16.7333 53.9862 16.7243 54.0335 16.7065 54.0777ZM12.8419 52.1724C12.7897 52.2534 12.7074 52.3103 12.6132 52.3307C12.5191 52.3511 12.4206 52.3333 12.3396 52.2812C11.8457 51.9633 11.3623 51.6228 10.9044 51.2689C10.8667 51.2397 10.835 51.2034 10.8113 51.162C10.7876 51.1205 10.7722 51.0748 10.7662 51.0275C10.7601 50.9801 10.7634 50.9321 10.776 50.886C10.7885 50.8399 10.81 50.7968 10.8392 50.759C10.8684 50.7212 10.9047 50.6896 10.9461 50.6659C10.9876 50.6422 11.0333 50.6268 11.0806 50.6208C11.128 50.6147 11.176 50.618 11.2221 50.6306C11.2682 50.6431 11.3113 50.6646 11.3491 50.6937C11.7899 51.0353 12.2563 51.3635 12.7331 51.6701C12.8142 51.7223 12.8711 51.8045 12.8915 51.8987C12.9119 51.9929 12.8941 52.0914 12.8419 52.1724ZM20.8464 55.2764C20.8289 55.3575 20.7841 55.4301 20.7196 55.4823C20.655 55.5344 20.5746 55.5629 20.4916 55.563C20.4659 55.563 20.4402 55.5602 20.415 55.5545C19.8474 55.4325 19.2798 55.2896 18.7178 55.1288C18.6718 55.1157 18.6289 55.0937 18.5915 55.064C18.5541 55.0343 18.5229 54.9975 18.4997 54.9558C18.4766 54.914 18.4618 54.8681 18.4564 54.8207C18.451 54.7732 18.455 54.7251 18.4682 54.6792C18.4814 54.6333 18.5035 54.5905 18.5333 54.5531C18.563 54.5158 18.5999 54.4847 18.6417 54.4616C18.6835 54.4385 18.7294 54.4239 18.7769 54.4185C18.8244 54.4132 18.8724 54.4173 18.9183 54.4306C19.4651 54.5877 20.0151 54.7258 20.5682 54.845C20.6148 54.855 20.659 54.8741 20.6982 54.9012C20.7375 54.9283 20.771 54.9629 20.7968 55.003C20.8226 55.043 20.8403 55.0878 20.8488 55.1347C20.8574 55.1817 20.8565 55.2298 20.8464 55.2764ZM9.45508 49.0013C9.52182 49.0708 9.55822 49.1639 9.55627 49.2603C9.55432 49.3566 9.51418 49.4482 9.44468 49.515C9.37518 49.5817 9.28201 49.6181 9.18568 49.6162C9.08934 49.6142 8.99773 49.5741 8.93099 49.5046C8.70204 49.2671 8.48004 49.0237 8.26497 48.7742C8.20251 48.7011 8.17155 48.6063 8.17884 48.5104C8.18614 48.4146 8.2311 48.3255 8.3039 48.2627C8.37669 48.1999 8.4714 48.1685 8.56729 48.1754C8.66318 48.1822 8.75245 48.2268 8.81557 48.2993C9.0218 48.5396 9.23497 48.7736 9.45508 49.0013Z" fill="white"/>
</svg>
