<svg width="26" height="26" viewBox="0 0 26 26" fill="none" xmlns="http://www.w3.org/2000/svg">
<path d="M22.5932 4.41713L13.9094 1.08009C13.6486 0.973303 13.4661 0.973303 13.3618 1.08009L4.65194 4.41713C4.44332 4.47052 4.28251 4.57286 4.1695 4.72414C4.0565 4.87542 4 5.03115 4 5.19132V12.9867C4 14.98 4.67801 16.9377 6.03404 18.8598C7.05975 20.2659 8.40708 21.6096 10.076 22.891C10.9627 23.5673 11.9275 24.1991 12.9706 24.7864L13.1271 24.8932C13.214 24.9644 13.327 25 13.4661 25C13.6052 25 13.7095 24.9644 13.779 24.8932L13.9094 24.8131C14.9004 24.2614 15.8391 23.6474 16.7258 22.9711C18.4295 21.6897 19.7942 20.337 20.8199 18.9132C22.2107 16.9733 22.9061 14.9978 22.9061 12.9867V5.19132C23.0104 5.03115 23.0278 4.87542 22.9583 4.72414C22.8887 4.57286 22.767 4.47052 22.5932 4.41713ZM21.3936 12.9867C21.3936 14.5884 20.8286 16.1902 19.6986 17.792C18.8294 19.0022 17.6733 20.168 16.2303 21.2892C15.3089 22.0011 14.3875 22.6062 13.4661 23.1046C12.5795 22.624 11.6581 22.0189 10.7019 21.2892C9.29371 20.168 8.16369 19.0022 7.31183 17.792C6.19919 16.1902 5.64288 14.5884 5.64288 12.9867V5.75195L13.5704 2.76196L21.3936 5.75195V12.9867ZM10.8584 12.426C10.6845 12.2659 10.4846 12.1858 10.2586 12.1858C10.0326 12.1858 9.83265 12.2659 9.6588 12.426C9.48495 12.5862 9.40237 12.7864 9.41106 13.0267C9.41975 13.267 9.50233 13.4761 9.6588 13.6541L11.8232 15.8699C12.0145 16.03 12.197 16.1101 12.3708 16.1101C12.4752 16.1101 12.5795 16.0834 12.6838 16.03C12.7881 15.9766 12.8663 15.9232 12.9185 15.8699L17.2734 11.4383C17.4299 11.2603 17.5081 11.0512 17.5081 10.8109C17.5081 10.5706 17.4299 10.3704 17.2734 10.2102C17.1169 10.0501 16.917 9.96552 16.6736 9.95662C16.4302 9.94772 16.2303 10.0323 16.0738 10.2102L12.4752 13.9744L10.8584 12.426Z" fill="#008F4E"/>
</svg>
