<svg width="90" height="72" viewBox="0 0 90 72" fill="none" xmlns="http://www.w3.org/2000/svg">
<path d="M1.09495 51.2433H14.1301L11.8011 54.2674H4.71002V55.7795H13.4696L11.2797 58.6125H4.71002V62.8706H1.09495V51.2433Z" fill="#5BB955"/>
<path d="M18.634 59.8812H27.637L25.308 62.8706H15.0364V51.2433H18.634V59.8812Z" fill="#5BB955"/>
<path d="M32.7706 59.8812H42.6599L40.3483 62.8706H29.1555V51.2433H42.6251L40.2962 54.2674H32.7706V55.6578H41.9821L39.9138 58.2996H32.7706V59.8812Z" fill="#5BB955"/>
<path d="M55.8486 51.2433H60.5065L56.8393 54.5976C55.2229 56.075 54.6841 56.5268 54.2496 56.8571C54.6668 57.1352 55.1708 57.6218 57.0652 59.3772L60.7846 62.8706H55.7096L51.7469 59.0296L47.6626 62.8706H43.1959L46.9847 59.3772C48.7575 57.7435 49.2615 57.3263 49.696 56.9961C49.2789 56.6659 48.7923 56.3009 46.9847 54.5803L43.4218 51.2433H48.4099L52.1119 54.8584L55.8486 51.2433Z" fill="#5BB955"/>
<path d="M72.7389 51.2433V62.8706H69.1412V51.2433H72.7389Z" fill="#5BB955"/>
<path d="M76.2586 51.2433H89.4676L87.1386 54.2674H82.9848V62.8706H79.3871V54.2674H73.9297L76.2586 51.2433Z" fill="#5BB955"/>
<path d="M74.0195 69.4928V68.8697V68.2466H81.7993H89.579V68.8697V69.4928H81.7993H74.0195Z" fill="#5BB955"/>
<path d="M1.07812 69.5069V68.8838V68.2607H8.76794H16.4578V68.8838V69.5069H8.76794H1.07812Z" fill="#5BB955"/>
<path d="M19.4481 66.3447H25.0611L24.0582 67.647H21.0047V68.2981H24.7767L23.8337 69.518H21.0047V71.3516H19.4481V66.3447Z" fill="black"/>
<path d="M28.6642 66.3447V71.3516H27.115V66.3447H28.6642Z" fill="black"/>
<path d="M31.7607 66.3589H37.4486L36.4457 67.6611H34.657V71.3657H33.1078V67.6611H30.7578L31.7607 66.3589Z" fill="black"/>
<path d="M44.5217 71.3578C44.3217 71.3578 44.144 71.3208 43.9069 71.0912L40.8701 68.3655V71.2764H39.4776V67.1655C39.4776 66.5063 39.8776 66.2397 40.3146 66.2397C40.4998 66.2397 40.6849 66.2767 40.9294 66.5063L43.9662 69.2321V66.3212H45.3661V70.4246C45.3661 71.0838 44.9661 71.3578 44.5217 71.3578Z" fill="black"/>
<path d="M49.4956 70.0024H53.7101L52.725 71.2764H47.9549V66.3212H53.6953L52.7027 67.61H49.4956V68.2025H53.4212L52.5398 69.3284H49.4956V70.0024Z" fill="black"/>
<path d="M57.7651 68.2988H60.4613C61.676 68.2988 62.3204 68.7432 62.3204 69.6543C62.3204 70.669 61.7056 71.2764 60.1946 71.2764H55.5801L56.5652 70.0024H60.3131C60.6761 70.0024 60.839 69.8987 60.839 69.6394C60.839 69.3802 60.6761 69.2839 60.3131 69.2839H57.617C56.343 69.2839 55.7579 68.7136 55.7579 67.8618C55.7579 66.9359 56.3801 66.3212 57.8837 66.3212H62.1871L61.2019 67.61H57.7651C57.4096 67.61 57.2393 67.6914 57.2393 67.9507C57.2393 68.2099 57.4096 68.2988 57.7651 68.2988Z" fill="black"/>
<path d="M66.4878 68.2988H69.1839C70.3986 68.2988 71.043 68.7432 71.043 69.6543C71.043 70.669 70.4283 71.2764 68.9173 71.2764H64.3028L65.2879 70.0024H69.0358C69.3987 70.0024 69.5617 69.8987 69.5617 69.6394C69.5617 69.3802 69.3987 69.2839 69.0358 69.2839H66.3397C65.0657 69.2839 64.4805 68.7136 64.4805 67.8618C64.4805 66.9359 65.1027 66.3212 66.6063 66.3212H70.9097L69.9246 67.61H66.4878C66.1323 67.61 65.9619 67.6914 65.9619 67.9507C65.9619 68.2099 66.1323 68.2988 66.4878 68.2988Z" fill="black"/>
<path fill-rule="evenodd" clip-rule="evenodd" d="M40.5147 6.08429C43.5345 9.62703 45.2635 12.8222 46.7655 15.8314C49.8684 22.4185 50.6977 28.3825 49.2838 32.8777C48.1602 36.4498 45.0724 39.3346 41.1576 40.274C40.5904 40.4101 40.0012 40.5233 39.8483 40.5255L39.5703 40.5295L39.8884 40.6928C41.6251 41.5842 45.3439 42.4853 48.1595 42.5803C51.4051 42.69 54.0494 42.0781 56.9573 40.7158C61.4256 38.2631 64.6555 34.4708 66.0575 29.6287C67.4515 24.5103 67.0468 17.9678 64.8433 11.8702C64.2328 10.3245 63.7689 9.02073 63.8539 9.55586C64.4907 13.5644 64.6338 18.7588 64.1687 21.7064C63.8922 23.4587 63.3253 26.1811 63.1794 26.4242C63.1174 26.5275 62.8521 27.2523 62.6398 27.8039C60.9917 32.0847 58.4576 34.8806 54.2304 37.0614C53.3554 37.4709 52.2053 38.005 51.7121 38.1741L50.7678 38.4856L51.4873 37.8625C53.5559 35.6372 54.905 32.8625 54.905 28.9611C54.905 23.3856 53.1062 17.8342 49.6885 13.6505C47.7548 11.2026 45.297 8.82125 40.8744 5.81725L39.6603 5.01611L40.5147 6.08429Z" fill="#5BB955"/>
<path d="M53.2422 12.4041C53.2422 10.1052 54.2765 8.39843 56.3001 7.90885C56.3901 7.86434 57.3058 7.76311 58.0539 7.90885C59.5542 8.34171 60.5722 9.33308 61.3367 10.8018C61.8367 11.8084 61.9213 12.4789 61.9663 13.5916C61.9213 15.4609 61.1569 16.7961 59.7628 17.6418C59.0634 18.0155 57.9041 18.1168 57.0196 17.8643C54.9061 17.3302 53.2422 14.8391 53.2422 12.4041Z" fill="black"/>
<path d="M75.5948 13.5163L73.0765 15.7416C70.2884 12.4036 65.2968 5.81649 53.6046 3.41309C52.0307 3.4576 37.3706 -0.94863 27.7471 12.5371C22.0359 21.0825 24.5093 30.8741 27.2074 34.7018C24.9589 30.0285 22.3957 15.074 37.7303 7.86383C28.6914 15.9197 28.3317 25.4887 30.4452 31.0967C32.9635 42.3125 53.9644 53.4839 67.3204 31.4972C64.8021 37.9063 56.1679 49.5227 40.2036 46.3627C39.4092 46.0956 21.3164 42.9801 21.3164 22.6403C21.4513 14.0058 27.3423 3.99169 39.3042 0.876172C49.2425 -1.03764 62.6435 -0.993136 75.5948 13.5163Z" fill="black"/>
<path d="M33.6355 1.05371C32.871 1.18723 21.4487 2.47795 10.8809 13.7383L13.3992 15.9192C20.1896 7.72981 25.3161 7.10671 26.98 5.72698C29.1386 3.59063 33.5456 1.14272 33.6355 1.05371Z" fill="black"/>
<rect width="1.86264" height="4.85161" transform="matrix(0.66362 -0.74807 0.754831 0.65592 1.87891 21.9858)" fill="black"/>
<path d="M1.12305 18.1782L3.19156 15.9191L12.2781 23.7785L10.2968 26.0222L1.12305 18.1782Z" fill="black"/>
<path d="M2.70312 14.2036L6.48286 9.94288L10.8371 13.738L13.4453 15.9634L18.1914 20.1171L14.3897 24.3308L2.70312 14.2036Z" fill="black"/>
<rect width="1.86264" height="4.85161" transform="matrix(-0.66362 -0.74807 -0.754831 0.65592 84.5508 21.8086)" fill="black"/>
<path d="M85.3066 18.001L83.2381 15.7418L74.1516 23.6013L76.1329 25.845L85.3066 18.001Z" fill="black"/>
<path d="M83.7266 14.0269L79.9468 9.76613L75.5926 13.5613L72.9844 15.7866L68.2383 19.9404L72.04 24.154L83.7266 14.0269Z" fill="black"/>
</svg>
