<svg width="179" height="48" viewBox="0 0 179 48" fill="none" xmlns="http://www.w3.org/2000/svg">
<path fill-rule="evenodd" clip-rule="evenodd" d="M90.6208 11.6949C91.308 9.68763 92.4076 8.46582 93.9195 7.98582C95.0649 7.63673 96.3477 7.63672 97.768 8.07309C98.3178 8.24763 98.9134 8.50945 99.6464 8.81491L98.501 12.3058C97.6764 12.1313 97.0349 12.2622 96.5768 12.6985C96.3477 12.8731 96.2103 13.1349 96.0728 13.5276L86.8181 37.0913H81.0454L69.5 7.724H75.685L83.886 28.9749L90.6208 11.6949Z" fill="#009797"/>
<path fill-rule="evenodd" clip-rule="evenodd" d="M122.142 36.4804C122.142 40.1022 121.18 42.895 119.256 44.9459C117.332 46.9532 114.354 48.0004 110.276 48.0004C106.702 48.0004 103.587 46.735 100.976 44.2477V40.6695C104.183 42.2404 107.298 43.0259 110.276 43.0259C112.842 43.0259 114.491 42.4586 115.224 41.3677C116.003 40.2332 116.369 38.6186 116.369 36.4804V36.175C116.278 36.2186 116.232 36.2186 116.14 36.2622C114.674 36.8295 113.117 37.0913 111.467 37.0913C110.368 37.0913 109.268 36.9604 108.214 36.6986C106.886 36.3495 105.649 35.7822 104.549 35.0404C103.45 34.255 102.579 33.295 101.938 32.1168C101.296 30.895 100.93 29.4986 100.93 27.8841V15.0113H106.702V27.8404C106.702 28.6259 106.931 29.3241 107.39 29.8477C107.848 30.3713 108.443 30.7641 109.176 31.0695C109.909 31.3313 110.688 31.4622 111.467 31.4622C112.292 31.4622 113.025 31.3313 113.758 31.0695C114.491 30.8077 115.087 30.415 115.591 29.8477C116.049 29.3241 116.278 28.6259 116.278 27.8404V20.5095C116.278 18.3277 116.919 16.7568 118.248 15.8404C119.256 15.1422 120.493 14.8368 121.959 14.8368C122.554 14.8368 123.196 14.9241 123.929 15.055V18.6768C122.646 18.8077 122.005 19.4186 122.005 20.5095V27.4477C122.142 30.4586 122.142 33.4695 122.142 36.4804Z" fill="#009797"/>
<path fill-rule="evenodd" clip-rule="evenodd" d="M138.038 31.5497C139.641 31.5497 141.016 31.0261 142.115 29.9352C143.261 28.8443 143.81 27.5788 143.81 26.0515C143.81 24.5243 143.261 23.2588 142.115 22.1679C140.97 21.1206 139.641 20.5534 138.038 20.5534C136.434 20.5534 135.105 21.077 133.96 22.1679C132.815 23.2588 132.265 24.5243 132.265 26.0515C132.265 27.5788 132.815 28.8879 133.96 29.9352C135.105 31.0261 136.48 31.5497 138.038 31.5497ZM149.583 37.2661H148.85C146.972 37.1788 145.597 36.437 144.681 35.0843C142.665 36.437 140.466 37.0915 138.038 37.0915C135.93 37.0915 134.006 36.6116 132.219 35.6079C130.478 34.6043 129.058 33.2952 128.05 31.637C126.996 29.9788 126.492 28.1461 126.492 26.0952C126.492 24.0879 126.996 22.2552 128.05 20.597C129.104 18.9388 130.478 17.5861 132.219 16.6261C133.96 15.6225 135.884 15.1425 138.038 15.1425C140.145 15.1425 142.069 15.6225 143.81 16.6261V15.1425C145.735 15.1425 147.201 15.2297 148.163 15.3606L149.583 15.5788V31.6806C149.583 32.0297 149.629 32.3352 149.812 32.597C150.041 33.0334 150.408 33.2952 150.866 33.4261C151.049 33.4697 151.278 33.5134 151.553 33.557V37.2225C150.728 37.2225 150.087 37.2661 149.583 37.2661Z" fill="#009797"/>
<path fill-rule="evenodd" clip-rule="evenodd" d="M162.275 16.1455C162.091 16.2327 161.862 16.3636 161.679 16.4509V14.9673C159.755 14.9673 158.289 15.0546 157.327 15.1855L155.906 15.4036V24.6109L162.275 21.6873V16.1455Z" fill="#009797"/>
<path fill-rule="evenodd" clip-rule="evenodd" d="M177.027 37.3091C177.623 37.3091 178.264 37.2218 178.997 37.0909V33.4255C177.714 33.2946 177.073 32.6837 177.073 31.5927V24.6546C177.073 22.8218 176.752 21.2946 176.065 19.9855C174.92 18.0218 173.27 16.6255 171.071 15.7964C169.605 15.2291 168.047 14.9673 166.444 14.9673C165.344 14.9673 164.245 15.0982 163.191 15.36C161.862 15.7091 160.625 16.2764 159.526 17.0182C158.426 17.8036 157.556 18.7636 156.914 19.9418C156.273 21.1637 155.906 22.56 155.906 24.1746V37.0037H161.679V24.1746C161.679 23.3891 161.908 22.6909 162.366 22.1673C162.824 21.6436 163.42 21.2509 164.199 20.9455C164.932 20.6836 165.711 20.5527 166.49 20.5527C167.314 20.5527 168.047 20.6836 168.78 20.9455C169.513 21.2073 170.109 21.6 170.613 22.1673C171.071 22.6909 171.3 23.3891 171.3 24.1746V31.5055C171.3 33.6873 171.942 35.2582 173.27 36.1746C174.324 36.96 175.561 37.3091 177.027 37.3091Z" fill="#009797"/>
<path fill-rule="evenodd" clip-rule="evenodd" d="M0 28.2764V26.4C0 26.2691 0.0458145 26.0945 0.0458145 25.9636C0.0916297 25.2218 0.0458173 24.5236 0.0916325 23.7818C0.183263 22.2109 0.274892 20.5964 0.412337 19.0255C0.595598 17.0618 0.778858 15.0982 1.14538 13.1782C1.83261 9.51273 3.80266 6.76364 7.2388 4.97454C9.66701 3.70909 12.3243 3.36 15.0274 3.75273C15.8979 3.88364 16.6767 3.70909 17.364 3.22909C18.1886 2.61818 19.1049 2.09455 20.0212 1.61455C21.5331 0.872728 23.1367 0.349091 24.8318 0.130909C25.3358 0.0872724 25.8856 0.0436364 26.3896 0H27.5349C27.6724 0.0436364 27.8098 0.0436357 27.9473 0.0436357C28.6803 0.0872721 29.4592 0.130909 30.1922 0.305455C30.5587 0.392728 30.6504 0.567273 30.5129 0.872727C30.009 1.96364 29.9631 3.09818 30.0548 4.27636C30.238 6.54545 30.4213 8.81455 30.3297 11.0836C30.2838 12.3927 30.1922 13.6582 29.8257 14.9236C29.3675 16.5382 28.5429 17.9345 27.1226 18.9818C26.0689 19.7673 24.8777 20.2909 23.6406 20.7273C23.549 20.7709 23.4116 20.7709 23.3658 20.9018C23.4574 20.9891 23.549 20.9455 23.6406 20.9018C24.8318 20.5527 26.023 20.16 27.0768 19.5491C28.1305 18.9382 29.0468 18.1964 29.7341 17.2364C30.4671 16.1455 30.8336 14.9236 31.0627 13.6145C31.246 12.6545 31.2918 11.6509 31.2918 10.6473C31.2918 10.1236 31.3376 9.6 31.2918 9.03273C31.246 8.29091 31.246 7.54909 31.246 6.85091C31.2002 5.62909 31.0169 4.36364 31.0169 3.14182C31.0169 2.48727 31.0169 2.44364 31.7041 2.31273C33.216 2.00727 34.7737 1.83273 36.2856 1.70182C38.3015 1.52727 40.3632 1.57091 42.3791 1.74545C45.0363 1.96364 47.6478 2.48727 50.1676 3.44727C53.4663 4.71273 56.2152 6.67636 58.2311 9.46909C60.1554 12.1309 61.3466 15.0982 61.8505 18.3273C61.9421 19.1127 62.0338 19.8545 62.0796 20.64V24.1745C62.0796 24.2618 62.0338 24.3491 62.0338 24.4364C61.988 25.6145 61.8963 26.7491 61.7131 27.9273C61.5756 28.8873 61.5756 29.8036 61.7589 30.7636C62.0796 32.2036 62.1254 33.6873 61.8963 35.1709C61.8505 35.4764 61.7589 35.7818 61.6214 36.0436C61.4382 36.3927 61.1175 36.4364 60.8426 36.1746C60.4302 35.8255 60.247 35.3455 60.1554 34.8655C59.8346 33.5127 59.8805 32.16 60.3386 30.8073C60.6593 29.7164 60.7968 28.6255 60.751 27.4909C60.751 26.9673 60.7509 26.4436 60.6135 25.92C60.5677 25.7455 60.5219 25.4836 60.3386 25.44C60.1095 25.3964 60.0179 25.6145 59.8805 25.7891C59.6056 26.1382 59.3765 26.5309 59.239 26.9236C58.5518 28.4945 58.0937 30.1091 57.7272 31.7673C57.0857 34.5164 56.5818 37.3091 56.1236 40.1018C55.9404 41.1927 55.8029 42.3273 55.9862 43.4182C56.0778 43.9855 56.3069 44.5527 56.3985 45.12C56.536 45.7309 56.3527 46.08 55.7571 46.3418C55.5738 46.4291 55.3448 46.5164 55.1615 46.56C54.6575 46.6473 54.1536 46.7345 53.6038 46.7782C52.321 46.8218 51.0381 46.6909 49.7553 46.6036C49.3888 46.56 49.343 46.6036 48.9764 46.4727C48.5183 46.2982 48.3808 46.1673 48.4725 45.6873C48.5183 45.4255 48.5183 45.1636 48.3809 44.9018C48.335 44.7709 48.2892 44.6836 48.2434 44.5527C48.106 43.7236 48.1976 42.8945 48.106 42.1091C48.0143 40.7127 47.8769 39.36 47.3729 38.0073C47.0064 37.0036 46.7315 36.1309 46.365 35.1273C46.3192 35.04 46.2734 34.8655 46.2275 34.8655C46.0443 34.8655 45.7694 35.3891 45.5861 35.6073C44.6698 36.9164 43.7993 37.8764 43.8451 39.84C43.8451 39.9709 43.8451 40.0582 43.891 40.1891C44.1659 40.8436 44.1659 41.5855 44.2575 42.2836C44.4407 43.5491 44.3491 44.8582 44.5782 46.1236C44.5782 46.2109 44.6698 46.3855 44.4866 46.4291C44.3033 46.4727 43.7535 46.5164 43.6161 46.3418C43.1579 45.8182 42.9747 45.2509 43.0663 44.5527C43.2496 43.1564 43.3412 41.7164 43.1579 40.32C43.0205 39.2291 43.2037 38.2255 43.7077 37.2218C44.5324 35.6945 45.6319 34.3855 46.9606 33.2509C48.2434 32.1164 49.6179 31.2873 51.4505 31.2873C51.6795 31.2873 51.7254 31.1564 51.6337 30.9818C51.4505 30.6327 51.1298 30.5018 50.8091 30.3709C50.6258 30.2836 50.3967 30.24 50.2593 30.0218C51.0839 29.9345 51.8628 29.76 52.5958 29.4982C54.291 28.8873 55.8487 28.0145 56.9025 26.5309C57.773 25.2655 57.7271 23.52 56.7192 22.3418C55.9404 21.4691 54.9324 21.1636 53.787 21.0764C52.6875 20.9891 51.5879 21.2509 50.5342 21.2073C50.1218 21.1636 49.7095 21.12 49.4346 20.8145C49.2055 20.5964 49.0681 20.2909 49.2055 19.9855C49.2972 19.6364 49.6179 19.7236 49.8928 19.7236C50.2593 19.7236 50.3509 19.5927 50.3967 19.2873C50.4425 18.9818 50.2593 18.7636 49.9386 18.6327C49.3888 18.4145 48.6099 18.5891 48.1976 18.9818C47.5562 19.5927 47.4187 20.4655 47.7853 21.2509C48.335 22.4291 50.0302 23.2582 51.4047 23.0836C52.2293 22.9964 53.0082 22.9964 53.8329 23.04C54.5659 23.0836 55.0699 23.4764 55.2989 24.1309C55.5738 25.0036 55.0699 25.7891 54.0619 26.0073C52.9624 26.2691 51.9086 25.9636 50.9465 25.5273C50.0302 25.0909 49.2055 24.6109 48.2434 24.2182C47.2355 23.8255 46.1359 23.6509 45.0363 23.8255C44.0742 23.9564 43.2037 24.3491 42.5165 25.0036C42.2874 25.2218 42.0584 25.3964 41.6918 25.3091C41.0962 25.1782 40.5465 25.2655 39.9509 25.3527C38.4848 25.6145 37.3394 26.3564 36.5147 27.5345C35.5068 29.0182 35.3693 30.5455 36.194 32.1164C36.7438 33.1636 37.7059 33.8618 38.8055 34.3418C40.2257 34.9527 41.646 35.2582 43.1579 34.7782C44.2575 34.4291 44.9905 33.7745 44.7615 32.5091C44.7156 32.2473 44.6698 31.9855 44.624 31.68C44.624 31.4618 44.4866 31.2 44.5782 30.8945C44.8989 31.3745 45.0822 31.8109 45.1738 32.3346C45.4029 33.5564 45.0363 34.3855 43.891 34.9964C43.0205 35.4764 42.1042 35.6945 41.0962 35.5636C38.8971 35.3455 37.0187 34.4291 35.5526 32.8145C34.5447 31.68 34.224 30.3273 34.5905 28.8436C34.7737 28.2327 35.0486 27.6218 35.4151 27.0982C35.5068 26.9673 35.6442 26.7927 35.3235 26.7491C34.224 26.6182 33.0786 26.6182 31.979 26.7927C30.7878 26.9673 29.6882 27.36 28.6803 27.9273C27.0768 28.8 25.8398 30.0218 24.9693 31.5491C24.0988 33.1636 23.7323 34.9091 23.6865 36.6982C23.6406 37.9636 23.5948 39.1855 23.5948 40.4509C23.5948 40.7127 23.549 40.9309 23.4116 41.1491C23.045 41.7164 23.2283 42.3273 23.4574 42.8509C23.5032 43.0255 23.6406 43.0255 23.7781 42.8945C24.053 42.5018 24.3737 42.0655 24.3279 41.5855C24.2821 39.9273 24.4653 38.3127 24.5569 36.6545C24.5569 36.3927 24.6028 36.0873 24.6486 35.8255C24.7402 35.8691 24.7402 35.9127 24.786 35.9564C25.0609 37.2218 25.6107 38.4873 25.8398 39.7527C26.023 40.7127 26.0688 41.6291 25.9314 42.5891C25.8398 43.4182 25.5649 44.2036 25.4733 45.0327C25.4274 45.5127 25.3358 45.9491 25.5191 46.3855C25.6565 46.6473 25.6107 46.6909 25.3358 46.6909C24.2821 46.7782 23.2741 46.9091 22.2204 47.04H20.4336C20.3419 47.04 20.2045 46.9964 20.1129 46.9964C19.5631 46.9091 19.0133 46.7346 18.5552 46.4291C18.0512 46.08 17.9137 45.3818 18.2803 44.9018C18.4177 44.7273 18.5093 44.5091 18.5552 44.2473C18.7384 43.4182 18.7384 42.5455 18.601 41.7164C18.1886 39.1855 18.0512 36.6982 17.9596 34.1673C17.9137 33.4691 17.9596 32.7273 17.8679 32.0291C17.7305 30.8945 17.593 29.8036 17.4556 28.6691C17.2723 27.2727 17.1349 25.8327 16.9058 24.4364C16.7225 23.2582 16.5393 22.1236 16.4477 20.9455C16.4018 20.5964 16.4018 20.2036 16.3102 19.8545C16.2644 19.7673 16.2644 19.68 16.1728 19.68C16.0353 19.68 16.0811 19.8109 16.0811 19.8982C16.0353 20.16 15.9437 20.4655 15.8979 20.7273C15.7604 21.5127 15.3939 22.1236 14.7067 22.6036C14.0653 23.04 13.378 23.4327 12.645 23.6509C11.0415 24.1309 9.71282 24.96 8.56744 26.0945C7.37625 27.2291 6.45994 28.5382 6.18505 30.1964C5.95598 31.6364 6.00179 33.0764 6.13924 34.5164C6.23087 35.6509 6.50576 36.7418 6.78065 37.8327C7.05554 38.88 7.8344 39.5782 8.84233 39.7527C9.66701 39.8836 10.0793 39.4909 9.98771 38.7055C9.9419 38.2255 9.9419 37.7018 9.80445 37.2218C9.75864 36.96 9.71282 36.6982 9.66701 36.3927C9.62119 36 9.85027 35.8691 10.2168 36C10.4459 36.0873 10.5833 36.2618 10.7666 36.3927C11.1331 36.7855 11.5454 36.8727 12.0494 36.7418C12.5534 36.6109 13.0115 36.48 13.4697 36.2618C13.7446 36.1746 13.9278 36.2182 13.9278 36.5236C13.9736 36.8291 14.0195 37.0909 13.9278 37.3964C13.7446 38.3127 13.378 39.1418 13.0115 39.9709C11.9578 42.24 10.4001 42.9818 8.20092 42.8945C5.22293 42.7636 3.0238 41.1927 1.87842 38.4873C1.32864 37.1782 0.916305 35.8255 0.641413 34.4291C0.412337 33.1636 0.229077 31.8982 0.137447 30.6327C0.137447 29.8473 0.0916304 29.0618 0 28.2764ZM8.61326 15.7964C7.92603 15.7964 7.28462 16.3636 7.2388 17.0618C7.2388 17.1927 7.28462 17.2364 7.37625 17.28C7.97184 17.4545 8.84233 17.1055 9.11723 16.5818C9.39212 15.9273 9.30049 15.7964 8.61326 15.7964Z" fill="#009797"/>
<path fill-rule="evenodd" clip-rule="evenodd" d="M34.6851 46.6474C34.6851 46.6911 34.6851 46.6038 34.6851 46.6474C33.2191 46.6474 31.7072 46.6474 30.2411 46.6474C29.9662 46.6474 29.8287 46.6038 29.6913 46.3856C29.5996 46.1674 29.4164 45.9929 29.2331 45.862C28.6833 45.382 28.6833 44.7711 28.7292 44.1165C28.8208 42.982 29.508 42.1529 30.2411 41.3238C30.5618 40.9747 30.8367 40.6256 31.1574 40.2765C31.2948 40.1456 31.3864 40.102 31.5697 40.1456C32.5318 40.4511 33.5398 40.4511 34.5935 40.4074C35.464 40.3638 36.3345 40.2329 37.205 40.0147C37.5715 39.9274 37.938 39.7965 38.2587 39.622C38.5336 39.4911 38.6252 39.5784 38.7627 39.7529C39.1292 40.3638 39.3583 41.0184 39.4499 41.7165C39.6332 42.8947 39.5874 44.0293 39.5415 45.2074C39.5415 45.5129 39.4957 45.862 39.5874 46.1674C39.6332 46.3856 39.4957 46.6038 39.2667 46.6038L34.6851 46.6474Z" fill="#009797"/>
<path fill-rule="evenodd" clip-rule="evenodd" d="M40.4062 27.491C41.5058 27.3601 42.4679 27.6219 43.3384 28.2764C42.3305 28.0583 41.3226 27.8401 40.4062 27.491Z" fill="#009797"/>
<path fill-rule="evenodd" clip-rule="evenodd" d="M46.9637 28.2765C46.8262 28.2765 46.6888 28.2765 46.643 28.1456C46.5972 28.0583 46.643 27.9274 46.7346 27.8401C46.8262 27.7528 46.9179 27.6656 47.0095 27.5783C47.1928 27.491 47.6051 27.5783 47.6509 27.7529C47.6967 27.971 47.4676 28.0147 47.3302 28.1019C47.2386 28.2328 47.1011 28.2765 46.9637 28.2765Z" fill="#009797"/>
<path fill-rule="evenodd" clip-rule="evenodd" d="M10.3031 31.1564C10.8987 31.1128 11.3569 31.331 11.7234 31.6364C11.9066 31.811 12.0899 31.811 12.2732 31.7237C12.6397 31.5928 13.0062 31.4619 13.3727 31.331C14.0141 31.1564 14.5639 31.2873 15.0221 31.7673C15.4344 32.2037 15.4802 32.771 15.2053 33.3383C14.8846 33.9055 14.4723 34.4292 13.9683 34.8655C13.6476 35.171 13.2811 35.4764 12.9146 35.7819C12.3648 36.2183 11.7692 36.3055 11.2652 35.8692C10.4406 35.171 9.61588 34.4292 9.0661 33.5128C8.56213 32.6837 8.88284 31.6801 9.79914 31.2437C9.9824 31.1564 10.1657 31.1564 10.3031 31.1564Z" fill="#009797"/>
</svg>
