<svg width="48" height="62" viewBox="0 0 48 62" fill="none" xmlns="http://www.w3.org/2000/svg">
<path d="M16.8106 22.4698C17.7413 22.4698 18.6264 22.0668 19.2388 21.364C19.5685 20.9859 19.529 20.4123 19.1509 20.0827C18.7729 19.7529 18.1991 19.7924 17.8696 20.1706C17.6021 20.4774 17.2162 20.6534 16.8107 20.6534C16.4051 20.6534 16.0191 20.4774 15.7516 20.1706C15.422 19.7923 14.8482 19.7531 14.4702 20.0827C14.0921 20.4123 14.0526 20.9859 14.3823 21.364C14.9948 22.0668 15.8798 22.4698 16.8106 22.4698ZM31.189 22.4698C32.1196 22.4698 33.0047 22.0668 33.6173 21.3641C33.9469 20.9859 33.9075 20.4123 33.5295 20.0827C33.1516 19.7531 32.5777 19.7925 32.2481 20.1705C31.9806 20.4774 31.5945 20.6534 31.189 20.6534C30.7834 20.6534 30.3975 20.4774 30.13 20.1706C29.8004 19.7923 29.2268 19.7531 28.8486 20.0827C28.4704 20.4123 28.4311 20.9859 28.7607 21.364C29.3733 22.0668 30.2584 22.4698 31.189 22.4698ZM25.3479 23.1473C25.3479 22.3532 24.7443 21.7096 23.9998 21.7096C23.2552 21.7096 22.6516 22.3533 22.6516 23.1473C22.6516 23.9413 23.2552 24.5851 23.9998 24.5851C24.7444 24.5851 25.3479 23.9413 25.3479 23.1473ZM41.1596 15.1671C38.5721 8.06957 31.3517 3.09104 23.0333 3.50639C23.2582 2.53958 24.125 1.81641 25.1592 1.81641C25.6608 1.81641 26.0674 1.40989 26.0674 0.908203C26.0674 0.406512 25.6608 0 25.1592 0C23.0584 0 21.3318 1.62786 21.1716 3.68839C18.3454 4.10992 15.6738 5.1638 13.3275 6.79832C12.9159 7.08507 12.8148 7.65119 13.1015 8.06266C13.3881 8.47414 13.9541 8.57525 14.3658 8.28875C16.4686 6.82375 18.8629 5.87583 21.3977 5.49112C22.0252 7.3958 23.8203 8.77494 25.9324 8.77494C26.434 8.77494 26.8406 8.36843 26.8406 7.86673C26.8406 7.36516 26.434 6.95853 25.9324 6.95853C24.772 6.95853 23.7659 6.28646 23.2818 5.31129C32.6984 4.92609 40.3553 12.1343 40.3553 20.8998C40.3553 29.7771 32.7286 35.2372 23.9998 35.2372C15.1837 35.2372 7.64424 29.7119 7.64424 20.8998C7.64424 17.3226 8.94503 13.8276 11.3068 11.0584C11.6323 10.6768 11.5868 10.1035 11.2052 9.77808C10.8234 9.45246 10.2503 9.49799 9.92492 9.87968C8.57594 11.4613 7.53732 13.2559 6.84284 15.1671C3.30606 14.9954 0.331512 17.8347 0.331512 21.3778C0.331512 25.0892 3.58542 27.9994 7.29622 27.5509C8.43765 29.9621 10.2118 32.0542 12.5677 33.6817C11.883 34.7835 11.3667 35.9697 11.0263 37.2224C10.4094 37.6092 10.0385 38.2292 9.95047 38.8935C9.86898 39.5089 9.82756 40.1376 9.82756 40.7622C9.82756 46.2036 10.6093 52.581 13.8164 56.9527C16.238 60.2548 19.7593 62 23.9998 62C27.3848 62 30.3806 60.8537 32.6633 58.6851C33.027 58.3396 33.0417 57.7646 32.6962 57.4011C32.3508 57.0376 31.7758 57.0229 31.4123 57.3682C29.4458 59.2364 26.9518 60.1836 23.9998 60.1836C20.3615 60.1836 17.3465 58.695 15.2809 55.8786C14.6981 55.0842 14.1781 54.1695 13.7307 53.1528C19.8285 48.2251 27.685 44.2851 35.707 42.4141C36.024 42.3401 36.3243 42.5909 36.3105 42.9188C36.1158 47.5339 35.2753 51.2989 33.8122 54.1093C33.5806 54.5542 33.7536 55.1026 34.1985 55.3342C34.6434 55.5659 35.1919 55.3929 35.4234 54.9479C37.0101 51.8997 37.9191 47.8783 38.1252 42.9953C38.1531 42.3362 37.9061 41.7135 37.4434 41.256C37.4452 41.0831 37.4461 40.9202 37.4461 40.7622C37.4461 38.2343 36.7513 35.8062 35.4311 33.6825C37.7898 32.0532 39.5632 29.9597 40.7036 27.5509C44.4182 27.9999 47.6683 25.0858 47.6683 21.3778C47.6682 17.8388 44.6986 14.9975 41.1596 15.1671ZM2.1478 21.378C2.1478 19.0362 3.98624 17.1161 6.29562 16.9839C5.59207 19.9025 5.6749 22.9677 6.59085 25.7787C4.13906 25.8025 2.1478 23.8136 2.1478 21.378ZM13.0539 51.3695C12.1178 48.489 11.6438 44.9287 11.6438 40.7626C11.6438 40.2175 11.6799 39.6691 11.751 39.1324C11.7939 38.8093 12.1084 38.6186 12.4013 38.7001C15.235 39.4869 20.4884 41.1552 25.6073 43.8862C19.8218 46.4249 15.4972 49.4463 13.0539 51.3695ZM35.6265 40.5934C35.5158 40.603 35.4049 40.6196 35.2944 40.6454C32.5929 41.2754 30.0714 42.0878 27.7515 42.9963C22.1521 39.7948 16.1744 37.8687 12.9988 36.9812C13.2804 36.1599 13.6561 35.3768 14.1168 34.6363C20.0125 37.8635 27.9876 37.8641 33.8847 34.6354C34.9984 36.4251 35.5963 38.466 35.6265 40.5934ZM41.4088 25.7787C42.3408 22.9186 42.3932 19.83 41.7088 16.9842C44.0158 17.1188 45.8517 19.0378 45.8517 21.378C45.8517 23.8104 43.8633 25.8025 41.4088 25.7787Z" fill="white"/>
</svg>
