<svg width="94" height="94" viewBox="0 0 94 94" fill="none" xmlns="http://www.w3.org/2000/svg">
<g clip-path="url(#clip0_2006_4372)">
<rect width="94" height="94" fill="#008F4E"/>
<g clip-path="url(#clip1_2006_4372)">
<path d="M51.844 45.4922C53.7539 45.4922 55.3078 43.9383 55.3078 42.0284C55.3078 41.5269 54.9013 41.1202 54.3996 41.1202C53.8979 41.1202 53.4914 41.5269 53.4914 42.0284C53.4914 42.9368 52.7523 43.6758 51.844 43.6758C50.9357 43.6758 50.1965 42.9368 50.1965 42.0284C50.1965 41.5269 49.79 41.1202 49.2883 41.1202C48.7866 41.1202 48.3801 41.5269 48.3801 42.0284C48.38 43.9383 49.9339 45.4922 51.844 45.4922Z" fill="white"/>
<path d="M57.7134 39.3873C58.2151 39.3873 58.6216 38.9806 58.6216 38.4791V37.129C58.9889 37.0126 59.2549 36.669 59.2549 36.2632C59.2549 35.7616 58.8484 35.355 58.3467 35.355H57.7134C57.2117 35.355 56.8052 35.7616 56.8052 36.2632V38.4792C56.8052 38.9806 57.2117 39.3873 57.7134 39.3873Z" fill="white"/>
<path d="M45.9752 35.3549H45.3419C44.8402 35.3549 44.4337 35.7615 44.4337 36.2631C44.4337 36.6688 44.6998 37.0125 45.067 37.1289V38.479C45.067 38.9805 45.4735 39.3872 45.9752 39.3872C46.4769 39.3872 46.8834 38.9805 46.8834 38.479V36.2629C46.8834 35.7615 46.4769 35.3549 45.9752 35.3549Z" fill="white"/>
<path d="M63.6823 51.2761H57.867V49.8795C58.8377 49.3674 59.7359 48.7359 60.5411 48.0034C61.6692 48.8805 63.0291 49.3209 64.3899 49.3209C65.9975 49.3209 67.605 48.709 68.8288 47.4852L69.4412 46.8727C71.8888 44.4252 71.8888 40.4428 69.4412 37.9952C69.228 37.782 68.9984 37.5863 68.7573 37.4061C68.8331 37.057 68.8727 36.7029 68.8727 36.352V36.3269C68.8727 35.1199 68.4439 33.9801 67.6598 33.0758V30.8213C67.6597 23.0128 61.637 16 52.159 16C42.7196 16 37.0439 23.3573 37.0439 30.7045V32.1911C35.6154 33.1383 34.8161 34.7496 34.8161 36.3268V36.3519C34.8161 37.6296 35.3205 38.8862 36.2003 39.7996C36.9847 40.6141 38.0292 41.126 39.1953 41.281C39.7138 43.6145 40.8753 45.764 42.5904 47.51C43.6167 48.555 44.7948 49.4014 46.0785 50.0327V51.2761H42.1339L41.2274 49.706C38.5101 44.9997 32.4183 43.2725 27.6006 46.0547C25.4455 47.299 23.8423 49.2888 23.0862 51.6576C22.9336 52.1355 23.1974 52.6465 23.6752 52.7991C24.1522 52.9512 24.6639 52.6879 24.8165 52.2101C25.4348 50.2729 26.7463 48.6455 28.5088 47.6279C32.4534 45.3499 37.4351 46.7705 39.6544 50.6143L40.8228 52.638C40.8227 52.6378 40.8229 52.6381 40.8228 52.638C43.0397 56.4776 42.3345 55.2565 47.35 63.9437C48.0924 65.2292 48.4716 66.6891 48.4357 68.2071H48.051L44.8713 65.2414C44.0497 64.4752 42.7827 64.4771 41.9597 65.2344C41.9588 65.2354 41.9579 65.2364 41.957 65.2373C41.2539 65.8867 41.0565 66.9739 41.5601 67.8785L41.7432 68.2071H39.5055C38.0755 68.2071 36.9122 69.3705 36.9122 70.8006V75.4068C36.9122 75.4219 36.9123 75.437 36.9126 75.4522C35.3756 74.759 34.083 73.6007 33.218 72.1027L32.8804 71.518C33.1381 71.2811 33.0688 71.3398 36.142 67.7913C37.1549 66.6213 37.0212 64.8464 35.8581 63.8389L35.0327 63.1241C35.873 63.013 36.693 62.7382 37.4452 62.3039C38.9599 61.4295 40.0432 60.0176 40.4958 58.3282C40.9484 56.6389 40.7161 54.8745 39.8417 53.3598L38.4939 51.0253C36.6888 47.8988 32.6762 46.8233 29.5498 48.6287C28.0352 49.5031 26.9519 50.9151 26.4992 52.6045C26.0467 54.2937 26.279 56.0582 27.1534 57.5728L28.5011 59.9074C28.7141 60.2762 28.96 60.6171 29.2336 60.9321C29.0594 61.056 28.8901 61.2061 28.7399 61.3794C28.7398 61.3796 28.7402 61.3792 28.7399 61.3794L28.7387 61.3806L27.9523 62.2888C27.7436 61.742 27.3168 61.2829 26.8269 61.0329L25.5225 58.7735C25.0197 57.9024 24.6852 56.9621 24.5288 55.9786C24.45 55.4833 23.985 55.1456 23.4891 55.2244C22.9937 55.3033 22.6561 55.7688 22.7348 56.264C22.9265 57.4677 23.335 58.6176 23.9493 59.6817L24.7461 61.0619C24.0135 61.4551 23.5321 62.2337 23.5587 63.124L23.6521 66.2349C23.6328 67.3867 24.1202 68.4783 24.9918 69.2332L27.7116 71.5885C28.7261 72.467 30.0664 72.7334 31.291 72.398L31.6449 73.0108C33.1484 75.6148 35.7088 77.3788 38.6797 77.8629C38.9394 77.9505 39.2165 78 39.5054 78H58.6885C59.1902 78 59.5967 77.5934 59.5967 77.0918C59.5967 76.5902 59.1902 76.1836 58.6885 76.1836H48.6012V70.0234H59.4407C59.9424 70.0234 60.3489 69.6168 60.3489 69.1152C60.3489 68.6137 59.9424 68.207 59.4407 68.207H50.2568C50.2931 66.3829 49.8293 64.6046 48.923 63.0352L43.1826 53.0925H46.0785C46.0878 56.3138 48.7099 58.9702 51.9727 58.9702C55.213 58.9702 57.8577 56.3391 57.867 53.0925H63.6823C66.1319 53.0925 68.1248 55.0854 68.1248 57.535V74.0645C68.1248 75.2329 67.1741 76.1836 66.0057 76.1836H62.9253C62.4236 76.1836 62.0171 76.5902 62.0171 77.0918C62.0171 77.5934 62.4236 78 62.9253 78H66.0057C68.1758 78 69.9412 76.2345 69.9412 74.0645V57.5349C69.9411 54.0837 67.1334 51.2761 63.6823 51.2761ZM28.2535 53.0744C28.5806 51.8538 29.3634 50.8336 30.4578 50.2017C32.7169 48.8974 35.6162 49.6741 36.9207 51.9334L38.2684 54.2679C38.9003 55.3624 39.0681 56.6372 38.7411 57.858C38.414 59.0786 37.6311 60.0988 36.5368 60.7307C35.3844 61.3959 34.0115 61.5431 32.745 61.143C32.3333 60.7864 31.9229 60.5667 31.3947 60.4644C30.8542 60.0741 30.4104 59.582 30.0738 58.9991L28.726 56.6645C28.0944 55.57 27.9264 54.2951 28.2535 53.0744ZM28.9009 70.2152L26.1811 67.86C25.6464 67.3969 25.4876 66.8597 25.4683 66.2028L25.3744 63.0693C25.3669 62.8243 25.5534 62.6211 25.7985 62.6066C26.0131 62.5942 26.2109 62.7726 26.2706 62.9822C26.2706 62.9822 26.666 64.3847 26.666 64.3849C26.7568 64.7074 27.0179 64.9537 27.3451 65.0258C27.754 65.1155 28.0852 64.9098 28.25 64.7195C29.169 63.6584 29.4041 63.3895 30.0967 62.5871C30.4889 62.1342 31.1101 62.1315 31.5009 62.4684C31.5014 62.4688 31.5017 62.469 31.5022 62.4695L34.6688 65.2118C35.0756 65.5642 35.1257 66.1897 34.7687 66.6018L31.8212 70.0054C31.0837 70.8573 29.7778 70.9747 28.9009 70.2152ZM38.7285 70.8004C38.7285 70.3719 39.077 70.0233 39.5054 70.0233H43.2884C43.9802 70.0233 44.4186 69.2781 44.0819 68.6732L43.1471 66.9945C43.1468 66.994 43.1466 66.9934 43.1463 66.9929C43.0705 66.855 43.0833 66.6688 43.1898 66.5707C43.3088 66.4612 43.5005 66.4467 43.6324 66.5696L45.006 67.8508L46.7848 69.51V76.1836H39.5054C39.0821 76.1836 38.7285 75.8321 38.7285 75.4065V70.8004ZM67.0562 36.3269V36.352C67.0562 37.6673 66.2509 38.9751 64.7369 39.3838C64.7361 39.3839 64.7354 39.3842 64.7348 39.3843C64.7355 39.3745 64.7357 39.3647 64.7364 39.3547C64.7567 39.0576 64.7678 38.7248 64.7678 38.4625C64.7686 34.9782 64.7692 34.8935 64.7676 34.3765H66.3806C66.8187 34.9314 67.0562 35.6109 67.0562 36.3269ZM68.1567 45.5883L67.5442 46.2008C65.9841 47.7608 63.5471 47.9214 61.8062 46.6835C63.1516 45.0617 64.0308 43.1981 64.4571 41.2844C66.0838 41.0838 67.2837 40.2436 68.0185 39.1473C69.8898 40.8655 69.9455 43.7995 68.1567 45.5883ZM65.8433 30.8213V32.5602C64.8439 32.5602 56.6525 32.5602 55.6086 32.5602C50.9489 32.5602 46.8834 28.842 46.8834 23.7217V18.7649C48.5049 18.0948 50.0774 17.8164 52.159 17.8164C61.0474 17.8164 65.8433 24.5169 65.8433 30.8213ZM38.8603 30.7045C38.8603 26.1833 41.2552 22.0002 45.0671 19.6823V23.1996C41.7977 25.1948 39.8362 28.4616 39.1791 31.3882C39.0754 31.4006 38.9691 31.4163 38.8603 31.4364V30.7045ZM36.6325 36.3519V36.3268C36.6325 35.0603 37.4268 33.7281 38.9194 33.3026C38.9191 33.3094 38.9187 33.3165 38.9182 33.3233C38.8857 33.7942 38.8803 34.1877 38.8848 36.4403C38.8895 38.7066 38.8836 38.5285 38.8947 38.8798C38.8999 39.0392 38.9082 39.2136 38.9194 39.3761C37.4268 38.9505 36.6325 37.6184 36.6325 36.3519ZM40.8407 40.1967C40.7471 39.6012 40.7038 39.0133 40.7038 38.4625V34.3527C40.7078 33.9971 40.7154 33.7198 40.7289 33.4788C40.9476 30.1818 42.6216 27.2192 45.1714 25.3196C45.9026 30.4634 50.3313 34.3765 55.6087 34.3765H62.9513C62.9528 34.7434 62.9524 34.9173 62.9515 38.4625C62.9515 44.6166 57.8711 49.7676 51.4116 49.5356C45.992 49.3143 41.6497 45.2857 40.8407 40.1967ZM47.8948 53.076C47.8948 51.0506 47.8948 53.6491 47.8948 50.7613C49.1847 51.1653 50.5509 51.362 51.8682 51.362C53.3314 51.362 54.7383 51.1167 56.0503 50.6657V53.076C56.0503 55.3245 54.2211 57.1538 51.9725 57.1538C49.7239 57.1538 47.8948 55.3245 47.8948 53.076Z" fill="white"/>
<path d="M31.7362 56.5964C31.7867 56.3695 31.7506 56.1236 31.6162 55.9119L31.5467 55.8025C31.2777 55.3792 30.7164 55.254 30.2931 55.5232C29.8696 55.7924 29.7448 56.3535 30.0137 56.7767L30.0832 56.8861C30.3522 57.3095 30.9135 57.4346 31.3368 57.1655C31.5485 57.0309 31.6857 56.8232 31.7362 56.5964Z" fill="white"/>
<path d="M36.295 53.8609C36.3455 53.6339 36.3094 53.3875 36.1745 53.1758L36.105 53.0665C35.8355 52.6434 35.2741 52.5188 34.8511 52.7883C34.4282 53.0578 34.3033 53.6192 34.5729 54.0422L34.6425 54.1514C34.912 54.5745 35.4734 54.6991 35.8964 54.4296C36.1077 54.2951 36.2445 54.0877 36.295 53.8609Z" fill="white"/>
<path d="M36.5507 58.1613C36.5877 58.1065 36.6127 58.047 36.6262 57.9861C36.6707 57.7862 36.5922 57.5705 36.4122 57.4491C36.1772 57.2906 35.8583 57.3527 35.6999 57.5876C35.4733 57.9235 35.1687 58.1172 34.7684 58.18C34.4885 58.2239 34.2971 58.4859 34.3408 58.7664C34.3847 59.0463 34.6472 59.2377 34.9272 59.1938C35.6151 59.0861 36.1614 58.7387 36.5507 58.1613Z" fill="white"/>
</g>
</g>
<defs>
<clipPath id="clip0_2006_4372">
<rect width="94" height="94" rx="47" fill="white"/>
</clipPath>
<clipPath id="clip1_2006_4372">
<rect width="62" height="62" fill="white" transform="translate(16 16)"/>
</clipPath>
</defs>
</svg>
