<svg width="62" height="62" viewBox="0 0 62 62" fill="none" xmlns="http://www.w3.org/2000/svg">
<g clip-path="url(#clip0_2006_4374)">
<path d="M35.844 29.4922C37.7539 29.4922 39.3078 27.9383 39.3078 26.0284C39.3078 25.5269 38.9013 25.1202 38.3996 25.1202C37.8979 25.1202 37.4914 25.5269 37.4914 26.0284C37.4914 26.9368 36.7523 27.6758 35.844 27.6758C34.9357 27.6758 34.1965 26.9368 34.1965 26.0284C34.1965 25.5269 33.79 25.1202 33.2883 25.1202C32.7866 25.1202 32.3801 25.5269 32.3801 26.0284C32.38 27.9383 33.9339 29.4922 35.844 29.4922Z" fill="white"/>
<path d="M41.7134 23.3873C42.2151 23.3873 42.6216 22.9806 42.6216 22.4791V21.129C42.9889 21.0126 43.2549 20.669 43.2549 20.2632C43.2549 19.7616 42.8484 19.355 42.3467 19.355H41.7134C41.2117 19.355 40.8052 19.7616 40.8052 20.2632V22.4792C40.8052 22.9806 41.2117 23.3873 41.7134 23.3873Z" fill="white"/>
<path d="M29.9752 19.3549H29.3419C28.8402 19.3549 28.4337 19.7615 28.4337 20.2631C28.4337 20.6688 28.6998 21.0125 29.067 21.1289V22.479C29.067 22.9805 29.4735 23.3872 29.9752 23.3872C30.4769 23.3872 30.8834 22.9805 30.8834 22.479V20.2629C30.8834 19.7615 30.4769 19.3549 29.9752 19.3549Z" fill="white"/>
<path d="M47.6823 35.2761H41.867V33.8795C42.8377 33.3674 43.7359 32.7359 44.5411 32.0034C45.6692 32.8805 47.0291 33.3209 48.3899 33.3209C49.9975 33.3209 51.605 32.709 52.8288 31.4852L53.4412 30.8727C55.8888 28.4252 55.8888 24.4428 53.4412 21.9952C53.228 21.782 52.9984 21.5863 52.7573 21.4061C52.8331 21.057 52.8727 20.7029 52.8727 20.352V20.3269C52.8727 19.1199 52.4439 17.9801 51.6598 17.0758V14.8213C51.6597 7.01278 45.637 0 36.159 0C26.7196 0 21.0439 7.35729 21.0439 14.7045V16.1911C19.6154 17.1383 18.8161 18.7496 18.8161 20.3268V20.3519C18.8161 21.6296 19.3205 22.8862 20.2003 23.7996C20.9847 24.6141 22.0292 25.126 23.1953 25.281C23.7138 27.6145 24.8753 29.764 26.5904 31.51C27.6167 32.555 28.7948 33.4014 30.0785 34.0327V35.2761H26.1339L25.2274 33.706C22.5101 28.9997 16.4183 27.2725 11.6006 30.0547C9.44546 31.299 7.8423 33.2888 7.08619 35.6576C6.93361 36.1355 7.19736 36.6465 7.67519 36.7991C8.15218 36.9512 8.66392 36.6879 8.8165 36.2101C9.43481 34.2729 10.7463 32.6455 12.5088 31.6279C16.4534 29.3499 21.4351 30.7705 23.6544 34.6143L24.8228 36.638C24.8227 36.6378 24.8229 36.6381 24.8228 36.638C27.0397 40.4776 26.3345 39.2565 31.35 47.9437C32.0924 49.2292 32.4716 50.6891 32.4357 52.2071H32.051L28.8713 49.2414C28.0497 48.4752 26.7827 48.4771 25.9597 49.2344C25.9588 49.2354 25.9579 49.2364 25.957 49.2373C25.2539 49.8867 25.0565 50.9739 25.5601 51.8785L25.7432 52.2071H23.5055C22.0755 52.2071 20.9122 53.3705 20.9122 54.8006V59.4068C20.9122 59.4219 20.9123 59.437 20.9126 59.4522C19.3756 58.759 18.083 57.6007 17.218 56.1027L16.8804 55.518C17.1381 55.2811 17.0688 55.3398 20.142 51.7913C21.1549 50.6213 21.0212 48.8464 19.8581 47.8389L19.0327 47.1241C19.873 47.013 20.693 46.7382 21.4452 46.3039C22.9599 45.4295 24.0432 44.0176 24.4958 42.3282C24.9484 40.6389 24.7161 38.8745 23.8417 37.3598L22.4939 35.0253C20.6888 31.8988 16.6762 30.8233 13.5498 32.6287C12.0352 33.5031 10.9519 34.9151 10.4992 36.6045C10.0467 38.2937 10.279 40.0582 11.1534 41.5728L12.5011 43.9074C12.7141 44.2762 12.96 44.6171 13.2336 44.9321C13.0594 45.056 12.8901 45.2061 12.7399 45.3794C12.7398 45.3796 12.7402 45.3792 12.7399 45.3794L12.7387 45.3806L11.9523 46.2888C11.7436 45.742 11.3168 45.2829 10.8269 45.0329L9.52248 42.7735C9.0197 41.9024 8.68524 40.9621 8.52878 39.9786C8.44995 39.4833 7.98495 39.1456 7.48907 39.2244C6.99368 39.3033 6.65607 39.7688 6.73478 40.264C6.92647 41.4677 7.33504 42.6176 7.94935 43.6817L8.74615 45.0619C8.01353 45.4551 7.53206 46.2337 7.5587 47.124L7.65206 50.2349C7.63281 51.3867 8.12021 52.4783 8.99184 53.2332L11.7116 55.5885C12.7261 56.467 14.0664 56.7334 15.291 56.398L15.6449 57.0108C17.1484 59.6148 19.7088 61.3788 22.6797 61.8629C22.9394 61.9505 23.2165 62 23.5054 62H42.6885C43.1902 62 43.5967 61.5934 43.5967 61.0918C43.5967 60.5902 43.1902 60.1836 42.6885 60.1836H32.6012V54.0234H43.4407C43.9424 54.0234 44.3489 53.6168 44.3489 53.1152C44.3489 52.6137 43.9424 52.207 43.4407 52.207H34.2568C34.2931 50.3829 33.8293 48.6046 32.923 47.0352L27.1826 37.0925H30.0785C30.0878 40.3138 32.7099 42.9702 35.9727 42.9702C39.213 42.9702 41.8577 40.3391 41.867 37.0925H47.6823C50.1319 37.0925 52.1248 39.0854 52.1248 41.535V58.0645C52.1248 59.2329 51.1741 60.1836 50.0057 60.1836H46.9253C46.4236 60.1836 46.0171 60.5902 46.0171 61.0918C46.0171 61.5934 46.4236 62 46.9253 62H50.0057C52.1758 62 53.9412 60.2345 53.9412 58.0645V41.5349C53.9411 38.0837 51.1334 35.2761 47.6823 35.2761ZM12.2535 37.0744C12.5806 35.8538 13.3634 34.8336 14.4578 34.2017C16.7169 32.8974 19.6162 33.6741 20.9207 35.9334L22.2684 38.2679C22.9003 39.3624 23.0681 40.6372 22.7411 41.858C22.414 43.0786 21.6311 44.0988 20.5368 44.7307C19.3844 45.3959 18.0115 45.5431 16.745 45.143C16.3333 44.7864 15.9229 44.5667 15.3947 44.4644C14.8542 44.0741 14.4104 43.582 14.0738 42.9991L12.726 40.6645C12.0944 39.57 11.9264 38.2951 12.2535 37.0744ZM12.9009 54.2152L10.1811 51.86C9.64636 51.3969 9.4876 50.8597 9.46835 50.2028L9.37438 47.0693C9.36687 46.8243 9.55336 46.6211 9.79845 46.6066C10.0131 46.5942 10.2109 46.7726 10.2706 46.9822C10.2706 46.9822 10.666 48.3847 10.666 48.3849C10.7568 48.7074 11.0179 48.9537 11.3451 49.0258C11.754 49.1155 12.0852 48.9098 12.25 48.7195C13.169 47.6584 13.4041 47.3895 14.0967 46.5871C14.4889 46.1342 15.1101 46.1315 15.5009 46.4684C15.5014 46.4688 15.5017 46.469 15.5022 46.4695L18.6688 49.2118C19.0756 49.5642 19.1257 50.1897 18.7687 50.6018L15.8212 54.0054C15.0837 54.8573 13.7778 54.9747 12.9009 54.2152ZM22.7285 54.8004C22.7285 54.3719 23.077 54.0233 23.5054 54.0233H27.2884C27.9802 54.0233 28.4186 53.2781 28.0819 52.6732L27.1471 50.9945C27.1468 50.994 27.1466 50.9934 27.1463 50.9929C27.0705 50.855 27.0833 50.6688 27.1898 50.5707C27.3088 50.4612 27.5005 50.4467 27.6324 50.5696L29.006 51.8508L30.7848 53.51V60.1836H23.5054C23.0821 60.1836 22.7285 59.8321 22.7285 59.4065V54.8004ZM51.0562 20.3269V20.352C51.0562 21.6673 50.2509 22.9751 48.7369 23.3838C48.7361 23.3839 48.7354 23.3842 48.7348 23.3843C48.7355 23.3745 48.7357 23.3647 48.7364 23.3547C48.7567 23.0576 48.7678 22.7248 48.7678 22.4625C48.7686 18.9782 48.7692 18.8935 48.7676 18.3765H50.3806C50.8187 18.9314 51.0562 19.6109 51.0562 20.3269ZM52.1567 29.5883L51.5442 30.2008C49.9841 31.7608 47.5471 31.9214 45.8062 30.6835C47.1516 29.0617 48.0308 27.1981 48.4571 25.2844C50.0838 25.0838 51.2837 24.2436 52.0185 23.1473C53.8898 24.8655 53.9455 27.7995 52.1567 29.5883ZM49.8433 14.8213V16.5602C48.8439 16.5602 40.6525 16.5602 39.6086 16.5602C34.9489 16.5602 30.8834 12.842 30.8834 7.72166V2.76493C32.5049 2.0948 34.0774 1.81641 36.159 1.81641C45.0474 1.81641 49.8433 8.51688 49.8433 14.8213ZM22.8603 14.7045C22.8603 10.1833 25.2552 6.0002 29.0671 3.68234V7.19963C25.7977 9.19477 23.8362 12.4616 23.1791 15.3882C23.0754 15.4006 22.9691 15.4163 22.8603 15.4364V14.7045ZM20.6325 20.3519V20.3268C20.6325 19.0603 21.4268 17.7281 22.9194 17.3026C22.9191 17.3094 22.9187 17.3165 22.9182 17.3233C22.8857 17.7942 22.8803 18.1877 22.8848 20.4403C22.8895 22.7066 22.8836 22.5285 22.8947 22.8798C22.8999 23.0392 22.9082 23.2136 22.9194 23.3761C21.4268 22.9505 20.6325 21.6184 20.6325 20.3519ZM24.8407 24.1967C24.7471 23.6012 24.7038 23.0133 24.7038 22.4625V18.3527C24.7078 17.9971 24.7154 17.7198 24.7289 17.4788C24.9476 14.1818 26.6216 11.2192 29.1714 9.31962C29.9026 14.4634 34.3313 18.3765 39.6087 18.3765H46.9513C46.9528 18.7434 46.9524 18.9173 46.9515 22.4625C46.9515 28.6166 41.8711 33.7676 35.4116 33.5356C29.992 33.3143 25.6497 29.2857 24.8407 24.1967ZM31.8948 37.076C31.8948 35.0506 31.8948 37.6491 31.8948 34.7613C33.1847 35.1653 34.5509 35.362 35.8682 35.362C37.3314 35.362 38.7383 35.1167 40.0503 34.6657V37.076C40.0503 39.3245 38.2211 41.1538 35.9725 41.1538C33.7239 41.1538 31.8948 39.3245 31.8948 37.076Z" fill="white"/>
<path d="M15.7362 40.5964C15.7867 40.3695 15.7506 40.1236 15.6162 39.9119L15.5467 39.8025C15.2777 39.3792 14.7164 39.254 14.2931 39.5232C13.8696 39.7924 13.7448 40.3535 14.0137 40.7767L14.0832 40.8861C14.3522 41.3095 14.9135 41.4346 15.3368 41.1655C15.5485 41.0309 15.6857 40.8232 15.7362 40.5964Z" fill="white"/>
<path d="M20.295 37.8609C20.3455 37.6339 20.3094 37.3875 20.1745 37.1758L20.105 37.0665C19.8355 36.6434 19.2741 36.5188 18.8511 36.7883C18.4282 37.0578 18.3033 37.6192 18.5729 38.0422L18.6425 38.1514C18.912 38.5745 19.4734 38.6991 19.8964 38.4296C20.1077 38.2951 20.2445 38.0877 20.295 37.8609Z" fill="white"/>
<path d="M20.5507 42.1613C20.5877 42.1065 20.6127 42.047 20.6262 41.9861C20.6707 41.7862 20.5922 41.5705 20.4122 41.4491C20.1772 41.2906 19.8583 41.3527 19.6999 41.5876C19.4733 41.9235 19.1687 42.1172 18.7684 42.18C18.4885 42.2239 18.2971 42.4859 18.3408 42.7664C18.3847 43.0463 18.6472 43.2377 18.9272 43.1938C19.6151 43.0861 20.1614 42.7387 20.5507 42.1613Z" fill="white"/>
</g>
<defs>
<clipPath id="clip0_2006_4374">
<rect width="62" height="62" fill="white"/>
</clipPath>
</defs>
</svg>
