<svg width="94" height="94" viewBox="0 0 94 94" fill="none" xmlns="http://www.w3.org/2000/svg">
<g clip-path="url(#clip0_2006_9959)">
<rect width="94" height="94" fill="#008F4E"/>
<path d="M60.5322 52.3802C60.8856 52.069 61.1882 51.7045 61.4289 51.2997L61.515 51.1503C61.9404 50.4113 62.0554 49.5339 61.8347 48.7103C61.6141 47.8867 61.0759 47.1842 60.3381 46.7568L58.078 45.4522C57.3589 45.0399 56.5083 44.9213 55.7038 45.1211C54.8994 45.3209 54.2031 45.8237 53.7605 46.5245C53.5032 46.4108 53.2504 46.2807 52.9911 46.183C52.6458 45.6608 51.697 43.8439 50.207 40.6846C49.8041 39.8427 49.172 39.1314 48.3831 38.6326C47.5942 38.1337 46.6807 37.8675 45.7473 37.8645H44.7951L44.5865 36.5357C47.6526 36.3702 50.5636 35.7775 51.2164 31.1598C51.2469 30.6737 51.1613 30.1873 50.9667 29.7408C50.8837 29.5377 50.8246 29.3256 50.7907 29.1088L50.8191 28.4281C50.935 26.978 50.858 25.519 50.5901 24.0891C50.5868 24.073 50.5756 24.0612 50.5716 24.0454C50.6474 23.643 50.5957 23.227 50.4236 22.8555L50.1209 22.2046C50.1075 22.1747 50.0924 22.1456 50.0755 22.1175C49.1638 20.5817 47.838 19.3337 46.2499 18.5164C44.6618 17.6992 42.8756 17.3457 41.096 17.4965C39.3163 17.6473 37.6151 18.2963 36.1872 19.3691C34.7592 20.442 33.6623 21.8953 33.0221 23.5626C33.0154 23.581 32.9899 23.6577 32.9852 23.6762C32.6841 24.7671 32.5008 25.8871 32.4384 27.0171L31.6408 41.5924C31.6306 41.777 31.6734 41.9606 31.7642 42.1217C31.8551 42.2827 31.9901 42.4143 32.1534 42.501C32.3167 42.5877 32.5014 42.6259 32.6856 42.611C32.8699 42.5961 33.046 42.5287 33.1932 42.4169L33.5982 42.1094C32.8009 43.4409 32.3795 44.9636 32.3787 46.5156C32.3787 46.5588 32.3816 46.6019 32.3872 46.6447L33.3579 53.8739C33.7719 56.9688 33.4017 60.1181 32.2813 63.0326C30.9456 66.5149 30.793 70.3401 31.8471 73.9178L32.2397 75.2413C32.3528 75.6147 32.5826 75.942 32.8954 76.1753C33.2081 76.4085 33.5874 76.5354 33.9776 76.5374H54.2995C54.7803 76.5368 55.2413 76.3456 55.5813 76.0056C55.9213 75.6656 56.1125 75.2046 56.1131 74.7238V73.6595C56.11 73.4934 56.1461 73.3289 56.2184 73.1794C56.2908 73.0298 56.3973 72.8994 56.5293 72.7986C58.4804 71.3823 60.0694 69.5254 61.1671 67.3789C62.2648 65.2323 62.84 62.857 62.8461 60.4461C62.8493 57.5933 62.0473 54.7975 60.5322 52.3802ZM55.3629 47.5983C55.5324 47.3048 55.8117 47.0906 56.1392 47.0028C56.4667 46.9151 56.8156 46.961 57.1092 47.1305L59.3693 48.4351C59.6629 48.6052 59.8769 48.8849 59.9643 49.2127C60.0518 49.5406 60.0055 49.8897 59.8357 50.1834L59.7496 50.3329C59.5799 50.6266 59.354 50.884 59.0849 51.0904C58.8157 51.2968 58.5085 51.4481 58.1808 51.5358C57.8531 51.6234 57.5114 51.6457 57.1751 51.6013C56.8388 51.5569 56.5146 51.4467 56.2209 51.277C55.9272 51.1073 55.6698 50.8814 55.4634 50.6122C55.257 50.343 55.1057 50.0358 55.018 49.7082C54.9303 49.3805 54.908 49.0388 54.9524 48.7025C54.9968 48.3662 55.107 48.0419 55.2767 47.7483L55.3629 47.5983ZM43.4256 34.646C43.2889 34.6513 43.1548 34.6854 43.0322 34.7462C42.9096 34.8069 42.8012 34.8929 42.7142 34.9985C42.6271 35.1041 42.5634 35.227 42.5273 35.3589C42.4911 35.4909 42.4832 35.629 42.5042 35.7643L42.8334 37.8645H41.0293C40.1328 37.8648 39.2417 38.005 38.3884 38.2802C39.7955 36.8854 40.7354 35.0885 41.0785 33.1372C41.0888 33.0813 41.0938 33.0246 41.0937 32.9678L41.0946 32.5743C41.1712 32.0074 41.0994 31.4304 40.8861 30.8997C40.6728 30.3689 40.3255 29.9026 39.878 29.5464C39.703 29.3248 39.5994 29.0553 39.5808 28.7735C39.5622 28.4918 39.6296 28.211 39.7739 27.9684C39.8354 27.855 39.9273 27.761 40.0393 27.6971C40.1513 27.6332 40.2789 27.6018 40.4078 27.6065H40.4097C40.6433 27.6073 40.8725 27.6693 41.0747 27.7862C41.2768 27.9031 41.4449 28.071 41.562 28.273L42.2838 29.5227C42.4013 29.7244 42.5874 29.8771 42.8082 29.9529C43.0289 30.0288 43.2695 30.0229 43.4862 29.9362C45.4546 28.9466 47.2767 27.6897 48.9009 26.2012C48.9387 26.9521 48.9156 27.6558 48.8843 28.3392L48.855 29.0459C48.8657 29.5042 48.9613 29.9565 49.1369 30.3799C49.2009 30.5464 49.2546 30.7167 49.2977 30.8898C48.8172 34.2941 47.0528 34.5103 43.4256 34.646ZM43.824 51.4713C46.0188 54.8597 49.4382 57.2689 53.3676 58.1954C53.84 58.2998 54.3257 58.3308 54.8075 58.2872C55.2069 58.2771 55.6043 58.346 55.9769 58.49C56.3495 58.6341 56.6899 58.8503 56.9787 59.1263L57.2455 59.3855C57.4186 59.5543 57.5446 59.7654 57.6109 59.9979C57.6773 60.2304 57.6818 60.4762 57.6239 60.7109L57.3694 61.7232C57.3033 61.9924 57.1573 62.2352 56.9507 62.42C56.744 62.6047 56.4863 62.7226 56.2115 62.7582L55.5975 62.8386C54.5611 62.9775 53.5113 62.7085 52.6695 62.0884C52.5734 62.0182 52.4654 61.9663 52.3507 61.9351C47.3085 60.6938 42.9642 57.5041 40.2698 53.0652L43.824 51.4713ZM37.6378 52.1228C36.8192 50.6723 36.1446 49.1452 35.6236 47.5633L35.2339 46.393C35.0733 45.9099 35.0095 45.3999 35.0461 44.8922C35.0827 44.3844 35.2191 43.8888 35.4473 43.4338C35.6756 42.9787 35.9912 42.5731 36.3763 42.2401C36.7614 41.9071 37.2083 41.6533 37.6916 41.4932C38.1748 41.333 38.6849 41.2696 39.1926 41.3067C39.7003 41.3437 40.1958 41.4805 40.6507 41.7091C41.1055 41.9378 41.5109 42.2538 41.8435 42.6392C42.1762 43.0246 42.4296 43.4717 42.5894 43.9551L42.9782 45.1339C43.422 46.4637 44.0162 47.7385 44.7492 48.9336L37.6378 52.1228ZM34.372 27.1236C34.4262 26.1442 34.5834 25.1732 34.8413 24.2268C35.3541 22.9085 36.2259 21.7603 37.3579 20.9121C38.4899 20.064 39.8369 19.5499 41.2461 19.4282C42.6553 19.3064 44.0705 19.5818 45.3312 20.2232C46.592 20.8645 47.6478 21.8462 48.3792 23.057L48.6601 23.7235L48.1019 24.3398C46.6713 25.6107 45.1304 26.7517 43.4975 27.7494L43.2402 27.3043C42.9528 26.8087 42.5406 26.397 42.0447 26.1101C41.5487 25.8232 40.9863 25.6712 40.4134 25.6691H40.4077C39.909 25.6638 39.4191 25.8007 38.9953 26.0639C38.5716 26.327 38.2316 26.7054 38.0152 27.1548C37.6952 27.7489 37.5683 28.4279 37.6521 29.0974C37.7358 29.767 38.0261 30.3938 38.4826 30.8907C39.1684 31.6027 39.2659 31.8032 39.1722 32.3221C39.1624 32.378 39.1574 32.4347 39.1571 32.4915L39.1561 32.8765C38.7133 35.0362 37.4356 36.9337 35.601 38.1563L33.689 39.6076L34.372 27.1236ZM55.3922 71.2301C55.0112 71.5083 54.7034 71.8748 54.4949 72.298C54.3591 72.2848 54.2241 72.2752 54.0876 72.2594C53.992 72.2498 53.8965 72.2778 53.8212 72.3375C53.746 72.3972 53.697 72.4839 53.6846 72.5791C53.6739 72.6749 53.7015 72.771 53.7614 72.8465C53.8213 72.922 53.9086 72.9708 54.0044 72.9821C54.0871 72.9915 54.1693 72.9968 54.252 73.0054C54.2031 73.22 54.1775 73.4394 54.1756 73.6595V74.5999H34.0702L33.705 73.3672C32.7714 70.1994 32.9064 66.8123 34.0891 63.7289C35.3264 60.5106 35.7354 57.0331 35.2784 53.6157L34.9411 51.105C35.3793 52.0528 35.8712 52.9747 36.4146 53.8664C36.5372 54.0678 36.7292 54.2176 36.9544 54.2874C37.1797 54.3573 37.4227 54.3425 37.6378 54.2457L38.4853 53.8656C39.9223 56.3037 41.8277 58.4331 44.0916 60.1311C46.3556 61.8291 48.9333 63.0622 51.6761 63.7591C52.8957 64.5976 54.3829 64.9539 55.8501 64.7591L56.465 64.6787C57.1257 64.5939 57.7453 64.3111 58.2422 63.8675C58.7392 63.4239 59.0902 62.8403 59.2492 62.1934L59.5037 61.1812C59.643 60.6173 59.6326 60.0269 59.4735 59.4683C59.3143 58.9098 59.012 58.4025 58.5964 57.9968L58.3296 57.7375C57.8562 57.2766 57.2944 56.9161 56.6781 56.678C56.0617 56.4398 55.4036 56.3288 54.7432 56.3516C54.4533 56.3727 54.1619 56.3641 53.8738 56.326C50.5115 55.5361 47.5659 53.5181 45.615 50.6681L46.5798 50.2354C46.71 50.1769 46.8258 50.0904 46.9187 49.982C47.0115 49.8735 47.0793 49.7459 47.1171 49.6082C47.1549 49.4705 47.1618 49.3262 47.1372 49.1855C47.1127 49.0449 47.0574 48.9114 46.9752 48.7946C46.0518 47.4835 45.3245 46.0447 44.8163 44.5237L44.4284 43.3473C44.1647 42.5516 43.7315 41.8226 43.1588 41.2105C42.586 40.5984 41.8873 40.1179 41.1109 39.802H45.7472C46.314 39.8038 46.8687 39.9654 47.3478 40.2682C47.8269 40.571 48.2109 41.0027 48.4558 41.5138C51.3431 47.6371 51.6581 47.7544 52.1047 47.9214C52.4267 48.0369 52.7452 48.1702 53.0604 48.3118C52.9534 48.9575 52.9881 49.6188 53.1622 50.2498C53.3362 50.8807 53.6453 51.4663 54.0682 51.9659C54.4911 52.4655 55.0175 52.8672 55.6111 53.1431C56.2047 53.4189 56.8511 53.5624 57.5056 53.5636C57.903 53.5635 58.2987 53.5113 58.6825 53.4084C58.7408 53.3928 58.7923 53.3634 58.8496 53.3456C60.1973 55.4685 60.9115 57.9316 60.9086 60.4461C60.903 62.551 60.4004 64.6248 59.4418 66.4987C58.4832 68.3726 57.0957 69.9937 55.3922 71.2301ZM47.7065 71.0777C47.6796 71.1451 47.6331 71.2028 47.5731 71.2434C47.5131 71.284 47.4422 71.3058 47.3697 71.3057C47.3233 71.3057 47.2774 71.2967 47.2344 71.2793C46.6801 71.0569 46.1408 70.8176 45.6328 70.5688C45.5897 70.5479 45.5512 70.5187 45.5194 70.4829C45.4877 70.4471 45.4633 70.4054 45.4477 70.3602C45.4321 70.3149 45.4256 70.2671 45.4285 70.2193C45.4315 70.1715 45.4438 70.1248 45.4649 70.0818C45.4859 70.0388 45.5153 70.0004 45.5512 69.9688C45.5871 69.9372 45.629 69.913 45.6743 69.8976C45.7196 69.8822 45.7675 69.8759 45.8152 69.879C45.863 69.8822 45.9097 69.8948 45.9526 69.916C46.4445 70.1572 46.9677 70.389 47.505 70.6057C47.5493 70.6234 47.5896 70.6497 47.6237 70.683C47.6578 70.7163 47.685 70.7561 47.7037 70.7999C47.7224 70.8438 47.7323 70.8909 47.7328 70.9385C47.7333 70.9862 47.7243 71.0335 47.7065 71.0777ZM43.8419 69.1724C43.7897 69.2534 43.7074 69.3103 43.6132 69.3307C43.5191 69.3511 43.4206 69.3333 43.3396 69.2812C42.8457 68.9633 42.3623 68.6228 41.9044 68.2689C41.8667 68.2397 41.835 68.2034 41.8113 68.162C41.7876 68.1205 41.7722 68.0748 41.7662 68.0275C41.7601 67.9801 41.7634 67.9321 41.776 67.886C41.7885 67.8399 41.81 67.7968 41.8392 67.759C41.8684 67.7212 41.9047 67.6896 41.9461 67.6659C41.9876 67.6422 42.0333 67.6268 42.0806 67.6208C42.128 67.6147 42.176 67.618 42.2221 67.6306C42.2682 67.6431 42.3113 67.6646 42.3491 67.6937C42.7899 68.0353 43.2563 68.3635 43.7331 68.6701C43.8142 68.7223 43.8711 68.8045 43.8915 68.8987C43.9119 68.9929 43.8941 69.0914 43.8419 69.1724ZM51.8464 72.2764C51.8289 72.3575 51.7841 72.4301 51.7196 72.4823C51.655 72.5344 51.5746 72.5629 51.4916 72.563C51.4659 72.563 51.4402 72.5602 51.415 72.5545C50.8474 72.4325 50.2798 72.2896 49.7178 72.1288C49.6718 72.1157 49.6289 72.0937 49.5915 72.064C49.5541 72.0343 49.5229 71.9975 49.4997 71.9558C49.4766 71.914 49.4618 71.8681 49.4564 71.8207C49.451 71.7732 49.455 71.7251 49.4682 71.6792C49.4814 71.6333 49.5035 71.5905 49.5333 71.5531C49.563 71.5158 49.5999 71.4847 49.6417 71.4616C49.6835 71.4385 49.7294 71.4239 49.7769 71.4185C49.8244 71.4132 49.8724 71.4173 49.9183 71.4306C50.4651 71.5877 51.0151 71.7258 51.5682 71.845C51.6148 71.855 51.659 71.8741 51.6982 71.9012C51.7375 71.9283 51.771 71.9629 51.7968 72.003C51.8226 72.043 51.8403 72.0878 51.8488 72.1347C51.8574 72.1817 51.8565 72.2298 51.8464 72.2764ZM40.4551 66.0013C40.5218 66.0708 40.5582 66.1639 40.5563 66.2603C40.5543 66.3566 40.5142 66.4482 40.4447 66.515C40.3752 66.5817 40.282 66.6181 40.1857 66.6162C40.0893 66.6142 39.9977 66.5741 39.931 66.5046C39.702 66.2671 39.48 66.0237 39.265 65.7742C39.2025 65.7011 39.1715 65.6063 39.1788 65.5104C39.1861 65.4146 39.2311 65.3255 39.3039 65.2627C39.3767 65.1999 39.4714 65.1685 39.5673 65.1754C39.6632 65.1822 39.7524 65.2268 39.8156 65.2993C40.0218 65.5396 40.235 65.7736 40.4551 66.0013Z" fill="white"/>
</g>
<defs>
<clipPath id="clip0_2006_9959">
<rect width="94" height="94" rx="47" fill="white"/>
</clipPath>
</defs>
</svg>
