<svg width="33" height="33" viewBox="0 0 33 33" fill="none" xmlns="http://www.w3.org/2000/svg">
<path d="M26.9948 24.438C27.2766 24.7198 27.4349 25.102 27.4349 25.5005C27.4349 25.899 27.2766 26.2812 26.9948 26.563C26.713 26.8448 26.3308 27.0031 25.9323 27.0031C25.5338 27.0031 25.1516 26.8448 24.8698 26.563L16.9335 18.6242L8.99479 26.5605C8.713 26.8423 8.3308 27.0006 7.93229 27.0006C7.53377 27.0006 7.15158 26.8423 6.86979 26.5605C6.588 26.2787 6.42969 25.8965 6.42969 25.498C6.42969 25.0995 6.588 24.7173 6.86979 24.4355L14.8085 16.4992L6.87229 8.56049C6.5905 8.2787 6.43219 7.89651 6.43219 7.49799C6.43219 7.09948 6.5905 6.71728 6.87229 6.43549C7.15408 6.1537 7.53627 5.99539 7.93479 5.99539C8.3333 5.99539 8.7155 6.1537 8.99729 6.43549L16.9335 14.3742L24.8723 6.43424C25.1541 6.15245 25.5363 5.99414 25.9348 5.99414C26.3333 5.99414 26.7155 6.15245 26.9973 6.43424C27.2791 6.71603 27.4374 7.09823 27.4374 7.49674C27.4374 7.89526 27.2791 8.27745 26.9973 8.55924L19.0585 16.4992L26.9948 24.438Z" fill="black" fill-opacity="0.4"/>
</svg>
