<svg width="18" height="16" viewBox="0 0 18 16" fill="none" xmlns="http://www.w3.org/2000/svg">
<path d="M5.90625 4.625C5.07186 4.625 4.25621 4.87243 3.56244 5.33599C2.86867 5.79955 2.32794 6.45843 2.00864 7.2293C1.68933 8.00018 1.60578 8.84843 1.76856 9.66679C1.93135 10.4851 2.33314 11.2369 2.92315 11.8269C3.51315 12.4169 4.26486 12.8187 5.08321 12.9814C5.90157 13.1442 6.74982 13.0607 7.5207 12.7414C8.29157 12.4221 8.95045 11.8813 9.41401 11.1876C9.87758 10.4938 10.125 9.67814 10.125 8.84375C10.1237 7.72526 9.67886 6.65294 8.88796 5.86204C8.09707 5.07115 7.02475 4.62627 5.90625 4.625ZM5.90625 12.5C5.18311 12.5 4.47622 12.2856 3.87495 11.8838C3.27368 11.4821 2.80505 10.911 2.52832 10.2429C2.25158 9.57484 2.17918 8.83969 2.32026 8.13045C2.46133 7.42121 2.80956 6.76973 3.32089 6.25839C3.83223 5.74705 4.48371 5.39883 5.19295 5.25775C5.9022 5.11668 6.63735 5.18908 7.30544 5.46582C7.97353 5.74255 8.54456 6.21118 8.94631 6.81245C9.34807 7.41371 9.5625 8.12061 9.5625 8.84375C9.56139 9.81311 9.17582 10.7424 8.49038 11.4279C7.80494 12.1133 6.87561 12.4989 5.90625 12.5Z" fill="#434343" fill-opacity="0.5"/>
<path d="M7.875 7.15625C7.94959 7.15625 8.02113 7.12662 8.07387 7.07387C8.12662 7.02113 8.15625 6.94959 8.15625 6.875C8.15625 6.80041 8.12662 6.72887 8.07387 6.67613C8.02113 6.62338 7.94959 6.59375 7.875 6.59375H3.9375C3.86291 6.59375 3.79137 6.62338 3.73863 6.67613C3.68588 6.72887 3.65625 6.80041 3.65625 6.875C3.65625 6.94959 3.68588 7.02113 3.73863 7.07387C3.79137 7.12662 3.86291 7.15625 3.9375 7.15625H5.34375C5.51764 7.15697 5.68705 7.2114 5.82882 7.31209C5.97059 7.41278 6.07779 7.55481 6.13575 7.71875H3.9375C3.86291 7.71875 3.79137 7.74838 3.73863 7.80113C3.68588 7.85387 3.65625 7.92541 3.65625 8C3.65625 8.07459 3.68588 8.14613 3.73863 8.19887C3.79137 8.25162 3.86291 8.28125 3.9375 8.28125H6.13575C6.07779 8.44519 5.97059 8.58722 5.82882 8.68791C5.68705 8.7886 5.51764 8.84303 5.34375 8.84375H3.9375C3.93469 8.84375 3.93244 8.84516 3.92991 8.84516C3.90799 8.84703 3.88638 8.85147 3.8655 8.85837C3.85107 8.86074 3.83686 8.86432 3.82303 8.86906C3.80872 8.87722 3.79517 8.88663 3.78253 8.89719C3.76499 8.90751 3.74867 8.91978 3.73388 8.93375C3.73191 8.936 3.72909 8.93656 3.72741 8.93853C3.71984 8.94951 3.71316 8.96108 3.70744 8.97312C3.69505 8.9896 3.68457 9.00744 3.67622 9.02628C3.66958 9.05919 3.66292 9.0921 3.65625 9.125C3.65625 9.12781 3.65794 9.13034 3.65794 9.13316C3.66418 9.16905 3.67215 9.20463 3.68184 9.23975C3.68952 9.25327 3.69826 9.26616 3.708 9.27828C3.71871 9.29653 3.73145 9.31351 3.74597 9.32891C3.74794 9.33059 3.7485 9.33341 3.75075 9.33538L6.282 11.5854C6.3097 11.6099 6.34196 11.6287 6.37694 11.6408C6.41192 11.6528 6.44892 11.6579 6.48585 11.6556C6.52278 11.6534 6.55891 11.6439 6.59216 11.6277C6.62542 11.6115 6.65516 11.5889 6.67969 11.5612C6.70421 11.5335 6.72304 11.5012 6.7351 11.4662C6.74715 11.4313 6.7522 11.3943 6.74996 11.3573C6.74771 11.3204 6.73821 11.2843 6.72201 11.251C6.7058 11.2178 6.6832 11.188 6.6555 11.1635L4.67719 9.40625H5.34375C5.66781 9.40584 5.98182 9.29372 6.23285 9.0888C6.48389 8.88387 6.6566 8.59867 6.72187 8.28125H7.875C7.94959 8.28125 8.02113 8.25162 8.07387 8.19887C8.12662 8.14613 8.15625 8.07459 8.15625 8C8.15625 7.92541 8.12662 7.85387 8.07387 7.80113C8.02113 7.74838 7.94959 7.71875 7.875 7.71875H6.72187C6.67848 7.5141 6.58957 7.32184 6.46172 7.15625H7.875Z" fill="#434343" fill-opacity="0.5"/>
<path d="M17.1562 6.3125H16.875V4.0625C16.8746 3.73844 16.7625 3.42443 16.5575 3.1734C16.3526 2.92236 16.0674 2.74965 15.75 2.68438V2.375C15.7496 2.00218 15.6013 1.64475 15.3376 1.38112C15.074 1.1175 14.7166 0.969197 14.3438 0.96875H1.40625C1.03343 0.969197 0.676001 1.1175 0.412374 1.38112C0.148748 1.64475 0.000446585 2.00218 0 2.375L0 13.625C0.000446585 13.9978 0.148748 14.3552 0.412374 14.6189C0.676001 14.8825 1.03343 15.0308 1.40625 15.0312H15.4688C15.8416 15.0308 16.199 14.8825 16.4626 14.6189C16.7263 14.3552 16.8746 13.9978 16.875 13.625V11.375H17.1562C17.38 11.375 17.5946 11.2861 17.7529 11.1279C17.9111 10.9696 18 10.755 18 10.5312V7.15625C18 6.93247 17.9111 6.71786 17.7529 6.55963C17.5946 6.40139 17.38 6.3125 17.1562 6.3125ZM1.40625 1.53125H14.3438C14.5675 1.53125 14.7821 1.62014 14.9404 1.77838C15.0986 1.93661 15.1875 2.15122 15.1875 2.375V2.65625H1.40625C1.10096 2.65728 0.804484 2.75868 0.5625 2.94481V2.375C0.5625 2.15122 0.651395 1.93661 0.809629 1.77838C0.967862 1.62014 1.18247 1.53125 1.40625 1.53125ZM16.3125 13.625C16.3125 13.8488 16.2236 14.0634 16.0654 14.2216C15.9071 14.3799 15.6925 14.4688 15.4688 14.4688H1.40625C1.18247 14.4688 0.967862 14.3799 0.809629 14.2216C0.651395 14.0634 0.5625 13.8488 0.5625 13.625V4.0625C0.5625 3.83872 0.651395 3.62411 0.809629 3.46588C0.967862 3.30764 1.18247 3.21875 1.40625 3.21875H15.4688C15.6925 3.21875 15.9071 3.30764 16.0654 3.46588C16.2236 3.62411 16.3125 3.83872 16.3125 4.0625V6.3125H14.625C13.9537 6.3125 13.3098 6.57918 12.8351 7.05389C12.3604 7.52859 12.0938 8.17242 12.0938 8.84375C12.0938 9.51508 12.3604 10.1589 12.8351 10.6336C13.3098 11.1083 13.9537 11.375 14.625 11.375H16.3125V13.625ZM17.4375 10.5312C17.4375 10.6058 17.4079 10.6774 17.3551 10.7301C17.3024 10.7829 17.2308 10.8125 17.1562 10.8125H14.625C14.1029 10.8125 13.6021 10.6051 13.2329 10.2359C12.8637 9.86665 12.6562 9.3659 12.6562 8.84375C12.6562 8.32161 12.8637 7.82085 13.2329 7.45163C13.6021 7.08242 14.1029 6.875 14.625 6.875H17.1562C17.2308 6.875 17.3024 6.90463 17.3551 6.95738C17.4079 7.01012 17.4375 7.08166 17.4375 7.15625V10.5312Z" fill="#434343" fill-opacity="0.5"/>
<path d="M14.625 8C14.4581 8 14.295 8.04949 14.1562 8.1422C14.0175 8.23491 13.9093 8.36669 13.8455 8.52086C13.7816 8.67504 13.7649 8.84469 13.7975 9.00836C13.83 9.17203 13.9104 9.32237 14.0284 9.44037C14.1464 9.55837 14.2967 9.63873 14.4604 9.67129C14.6241 9.70384 14.7937 9.68713 14.9479 9.62327C15.1021 9.55941 15.2338 9.45127 15.3266 9.31251C15.4193 9.17376 15.4688 9.01063 15.4688 8.84375C15.4688 8.61997 15.3799 8.40536 15.2216 8.24713C15.0634 8.0889 14.8488 8 14.625 8ZM14.625 9.125C14.5694 9.125 14.515 9.10851 14.4687 9.0776C14.4225 9.0467 14.3864 9.00277 14.3652 8.95138C14.3439 8.89999 14.3383 8.84344 14.3492 8.78888C14.36 8.73432 14.3868 8.68421 14.4261 8.64488C14.4655 8.60554 14.5156 8.57876 14.5701 8.5679C14.6247 8.55705 14.6812 8.56262 14.7326 8.58391C14.784 8.6052 14.8279 8.64125 14.8589 8.6875C14.8898 8.73375 14.9063 8.78812 14.9063 8.84375C14.9063 8.91834 14.8766 8.98988 14.8239 9.04262C14.7711 9.09537 14.6996 9.125 14.625 9.125Z" fill="#434343" fill-opacity="0.5"/>
</svg>
