<svg width="18" height="18" viewBox="0 0 18 18" fill="none" xmlns="http://www.w3.org/2000/svg">
<path d="M5.90625 5.625C5.07186 5.625 4.25621 5.87243 3.56244 6.33599C2.86867 6.79955 2.32794 7.45843 2.00864 8.2293C1.68933 9.00018 1.60578 9.84843 1.76856 10.6668C1.93135 11.4851 2.33314 12.2369 2.92315 12.8269C3.51315 13.4169 4.26486 13.8187 5.08321 13.9814C5.90157 14.1442 6.74982 14.0607 7.5207 13.7414C8.29157 13.4221 8.95045 12.8813 9.41401 12.1876C9.87758 11.4938 10.125 10.6781 10.125 9.84375C10.1237 8.72526 9.67886 7.65294 8.88796 6.86204C8.09707 6.07115 7.02475 5.62627 5.90625 5.625ZM5.90625 13.5C5.18311 13.5 4.47622 13.2856 3.87495 12.8838C3.27368 12.4821 2.80505 11.911 2.52832 11.2429C2.25158 10.5748 2.17918 9.83969 2.32026 9.13045C2.46133 8.42121 2.80956 7.76973 3.32089 7.25839C3.83223 6.74705 4.48371 6.39883 5.19295 6.25775C5.9022 6.11668 6.63735 6.18908 7.30544 6.46582C7.97353 6.74255 8.54456 7.21118 8.94631 7.81245C9.34807 8.41371 9.5625 9.12061 9.5625 9.84375C9.56139 10.8131 9.17582 11.7424 8.49038 12.4279C7.80494 13.1133 6.87561 13.4989 5.90625 13.5Z" fill="white"/>
<path d="M7.875 8.15625C7.94959 8.15625 8.02113 8.12662 8.07387 8.07387C8.12662 8.02113 8.15625 7.94959 8.15625 7.875C8.15625 7.80041 8.12662 7.72887 8.07387 7.67613C8.02113 7.62338 7.94959 7.59375 7.875 7.59375H3.9375C3.86291 7.59375 3.79137 7.62338 3.73863 7.67613C3.68588 7.72887 3.65625 7.80041 3.65625 7.875C3.65625 7.94959 3.68588 8.02113 3.73863 8.07387C3.79137 8.12662 3.86291 8.15625 3.9375 8.15625H5.34375C5.51764 8.15697 5.68705 8.2114 5.82882 8.31209C5.97059 8.41278 6.07779 8.55481 6.13575 8.71875H3.9375C3.86291 8.71875 3.79137 8.74838 3.73863 8.80113C3.68588 8.85387 3.65625 8.92541 3.65625 9C3.65625 9.07459 3.68588 9.14613 3.73863 9.19887C3.79137 9.25162 3.86291 9.28125 3.9375 9.28125H6.13575C6.07779 9.44519 5.97059 9.58722 5.82882 9.68791C5.68705 9.7886 5.51764 9.84303 5.34375 9.84375H3.9375C3.93469 9.84375 3.93244 9.84516 3.92991 9.84516C3.90799 9.84703 3.88638 9.85147 3.8655 9.85837C3.85107 9.86074 3.83686 9.86432 3.82303 9.86906C3.80872 9.87722 3.79517 9.88663 3.78253 9.89719C3.76499 9.90751 3.74867 9.91978 3.73388 9.93375C3.73191 9.936 3.72909 9.93656 3.72741 9.93853C3.71984 9.94951 3.71316 9.96108 3.70744 9.97312C3.69505 9.9896 3.68457 10.0074 3.67622 10.0263C3.66958 10.0592 3.66292 10.0921 3.65625 10.125C3.65625 10.1278 3.65794 10.1303 3.65794 10.1332C3.66418 10.1691 3.67215 10.2046 3.68184 10.2398C3.68952 10.2533 3.69826 10.2662 3.708 10.2783C3.71871 10.2965 3.73145 10.3135 3.74597 10.3289C3.74794 10.3306 3.7485 10.3334 3.75075 10.3354L6.282 12.5854C6.3097 12.6099 6.34196 12.6287 6.37694 12.6408C6.41192 12.6528 6.44892 12.6579 6.48585 12.6556C6.52278 12.6534 6.55891 12.6439 6.59216 12.6277C6.62542 12.6115 6.65516 12.5889 6.67969 12.5612C6.70421 12.5335 6.72304 12.5012 6.7351 12.4662C6.74715 12.4313 6.7522 12.3943 6.74996 12.3573C6.74771 12.3204 6.73821 12.2843 6.72201 12.251C6.7058 12.2178 6.6832 12.188 6.6555 12.1635L4.67719 10.4062H5.34375C5.66781 10.4058 5.98182 10.2937 6.23285 10.0888C6.48389 9.88387 6.6566 9.59867 6.72187 9.28125H7.875C7.94959 9.28125 8.02113 9.25162 8.07387 9.19887C8.12662 9.14613 8.15625 9.07459 8.15625 9C8.15625 8.92541 8.12662 8.85387 8.07387 8.80113C8.02113 8.74838 7.94959 8.71875 7.875 8.71875H6.72187C6.67848 8.5141 6.58957 8.32184 6.46172 8.15625H7.875Z" fill="white"/>
<path d="M17.1562 7.3125H16.875V5.0625C16.8746 4.73844 16.7625 4.42443 16.5575 4.1734C16.3526 3.92236 16.0674 3.74965 15.75 3.68438V3.375C15.7496 3.00218 15.6013 2.64475 15.3376 2.38112C15.074 2.1175 14.7166 1.9692 14.3438 1.96875H1.40625C1.03343 1.9692 0.676001 2.1175 0.412374 2.38112C0.148748 2.64475 0.000446585 3.00218 0 3.375L0 14.625C0.000446585 14.9978 0.148748 15.3552 0.412374 15.6189C0.676001 15.8825 1.03343 16.0308 1.40625 16.0312H15.4688C15.8416 16.0308 16.199 15.8825 16.4626 15.6189C16.7263 15.3552 16.8746 14.9978 16.875 14.625V12.375H17.1562C17.38 12.375 17.5946 12.2861 17.7529 12.1279C17.9111 11.9696 18 11.755 18 11.5312V8.15625C18 7.93247 17.9111 7.71786 17.7529 7.55963C17.5946 7.40139 17.38 7.3125 17.1562 7.3125ZM1.40625 2.53125H14.3438C14.5675 2.53125 14.7821 2.62014 14.9404 2.77838C15.0986 2.93661 15.1875 3.15122 15.1875 3.375V3.65625H1.40625C1.10096 3.65728 0.804484 3.75868 0.5625 3.94481V3.375C0.5625 3.15122 0.651395 2.93661 0.809629 2.77838C0.967862 2.62014 1.18247 2.53125 1.40625 2.53125ZM16.3125 14.625C16.3125 14.8488 16.2236 15.0634 16.0654 15.2216C15.9071 15.3799 15.6925 15.4688 15.4688 15.4688H1.40625C1.18247 15.4688 0.967862 15.3799 0.809629 15.2216C0.651395 15.0634 0.5625 14.8488 0.5625 14.625V5.0625C0.5625 4.83872 0.651395 4.62411 0.809629 4.46588C0.967862 4.30764 1.18247 4.21875 1.40625 4.21875H15.4688C15.6925 4.21875 15.9071 4.30764 16.0654 4.46588C16.2236 4.62411 16.3125 4.83872 16.3125 5.0625V7.3125H14.625C13.9537 7.3125 13.3098 7.57918 12.8351 8.05389C12.3604 8.52859 12.0938 9.17242 12.0938 9.84375C12.0938 10.5151 12.3604 11.1589 12.8351 11.6336C13.3098 12.1083 13.9537 12.375 14.625 12.375H16.3125V14.625ZM17.4375 11.5312C17.4375 11.6058 17.4079 11.6774 17.3551 11.7301C17.3024 11.7829 17.2308 11.8125 17.1562 11.8125H14.625C14.1029 11.8125 13.6021 11.6051 13.2329 11.2359C12.8637 10.8667 12.6562 10.3659 12.6562 9.84375C12.6562 9.32161 12.8637 8.82085 13.2329 8.45163C13.6021 8.08242 14.1029 7.875 14.625 7.875H17.1562C17.2308 7.875 17.3024 7.90463 17.3551 7.95738C17.4079 8.01012 17.4375 8.08166 17.4375 8.15625V11.5312Z" fill="white"/>
<path d="M14.625 9C14.4581 9 14.295 9.04949 14.1562 9.1422C14.0175 9.23491 13.9093 9.36669 13.8455 9.52086C13.7816 9.67504 13.7649 9.84469 13.7975 10.0084C13.83 10.172 13.9104 10.3224 14.0284 10.4404C14.1464 10.5584 14.2967 10.6387 14.4604 10.6713C14.6241 10.7038 14.7937 10.6871 14.9479 10.6233C15.1021 10.5594 15.2338 10.4513 15.3266 10.3125C15.4193 10.1738 15.4688 10.0106 15.4688 9.84375C15.4688 9.61997 15.3799 9.40536 15.2216 9.24713C15.0634 9.0889 14.8488 9 14.625 9ZM14.625 10.125C14.5694 10.125 14.515 10.1085 14.4687 10.0776C14.4225 10.0467 14.3864 10.0028 14.3652 9.95138C14.3439 9.89999 14.3383 9.84344 14.3492 9.78888C14.36 9.73432 14.3868 9.68421 14.4261 9.64488C14.4655 9.60554 14.5156 9.57876 14.5701 9.5679C14.6247 9.55705 14.6812 9.56262 14.7326 9.58391C14.784 9.6052 14.8279 9.64125 14.8589 9.6875C14.8898 9.73375 14.9063 9.78812 14.9063 9.84375C14.9063 9.91834 14.8766 9.98988 14.8239 10.0426C14.7711 10.0954 14.6996 10.125 14.625 10.125Z" fill="white"/>
</svg>
