<svg width="18" height="19" viewBox="0 0 18 19" fill="none" xmlns="http://www.w3.org/2000/svg">
<g clip-path="url(#clip0_4171_56464)">
<path d="M15.7286 2.85684H13.3241C12.2668 1.65801 10.7203 0.900391 9 0.900391C7.27966 0.900391 5.73318 1.65801 4.67585 2.85684H2.27145C1.01897 2.85684 0 3.8758 0 5.12828V14.3568C0 15.6093 1.01897 16.6282 2.27145 16.6282H3.05367C3.19932 16.6282 3.31734 16.5102 3.31734 16.3646C3.31734 16.219 3.19932 16.1009 3.05367 16.1009H2.27145C1.30975 16.1009 0.527344 15.3185 0.527344 14.3568V5.12828C0.527344 4.16658 1.30975 3.38418 2.27145 3.38418H4.26234C4.10924 3.60454 3.97104 3.83597 3.84933 4.07711H2.27145C1.69165 4.07711 1.21992 4.54866 1.21992 5.12828V14.3568C1.21992 14.9366 1.69165 15.4083 2.27145 15.4083H15.7286C16.3084 15.4083 16.7801 14.9366 16.7801 14.3568V5.12828C16.7801 4.54866 16.3084 4.07711 15.7286 4.07711H14.1507C14.029 3.83597 13.8908 3.60454 13.7377 3.38418H15.7286C16.6903 3.38418 17.4727 4.16658 17.4727 5.12828V14.3568C17.4727 15.3185 16.6903 16.1009 15.7286 16.1009H4.28062C4.13497 16.1009 4.01695 16.219 4.01695 16.3646C4.01695 16.5102 4.13497 16.6282 4.28062 16.6282H5.60939L5.12564 17.7005C5.00639 17.9647 5.0291 18.2679 5.18643 18.5115C5.34368 18.755 5.61069 18.9004 5.90062 18.9004H12.0994C12.3893 18.9004 12.6563 18.755 12.8136 18.5115C12.9709 18.2679 12.9936 17.9647 12.8744 17.7005L12.3906 16.6282H15.7285C16.981 16.6282 18 15.6093 18 14.3568V5.12828C18 3.8758 16.981 2.85684 15.7286 2.85684ZM9 1.42773C11.8884 1.42773 14.2383 3.77761 14.2383 6.66602C14.2383 9.55442 11.8884 11.9043 9 11.9043C6.1116 11.9043 3.76172 9.55442 3.76172 6.66602C3.76172 3.77761 6.1116 1.42773 9 1.42773ZM15.7286 4.60445C16.0176 4.60445 16.2527 4.83944 16.2527 5.12828V14.3568C16.2527 14.6458 16.0176 14.881 15.7286 14.881H2.27145C1.98239 14.881 1.74727 14.6459 1.74727 14.3568V5.12828C1.74727 4.83944 1.98239 4.60445 2.27145 4.60445H3.61571C3.36966 5.24497 3.23438 5.93993 3.23438 6.66602C3.23438 9.8452 5.82082 12.4316 9 12.4316C12.1792 12.4316 14.7656 9.8452 14.7656 6.66602C14.7656 5.93993 14.6303 5.24497 14.3843 4.60445H15.7286ZM12.3706 18.2253C12.31 18.3192 12.2111 18.373 12.0994 18.373H5.90062C5.78886 18.373 5.69 18.3192 5.62936 18.2253C5.56871 18.1315 5.56031 18.0192 5.60626 17.9173L6.10211 16.8184C6.15417 16.7029 6.26973 16.6283 6.3964 16.6283H11.6036C11.7303 16.6283 11.8458 16.7029 11.8979 16.8184L12.3937 17.9173C12.4397 18.0192 12.4313 18.1315 12.3706 18.2253Z" fill="white"/>
<path d="M8.99543 10.6164C9.67352 10.6164 10.2252 10.0647 10.2252 9.38664V7.55395C10.2252 7.40833 10.1072 7.29028 9.96152 7.29028C9.81587 7.29028 9.69785 7.40833 9.69785 7.55395V9.38664C9.69785 9.77396 9.38274 10.0891 8.99543 10.0891C8.80787 10.0891 8.63149 10.016 8.49877 9.88326C8.36609 9.75058 8.29297 9.57417 8.29297 9.38664V6.93871C8.29297 6.5514 8.60807 6.23629 8.99539 6.23629C9.21723 6.23629 9.4212 6.33772 9.55508 6.51463C9.64297 6.63071 9.80827 6.65367 9.92446 6.56574C10.0406 6.47785 10.0634 6.31248 9.97558 6.19639C9.74113 5.88663 9.38387 5.70898 8.99539 5.70898C8.3173 5.70898 7.76562 6.26066 7.76562 6.93875V9.38668C7.76562 9.71511 7.89359 10.0239 8.12587 10.2562C8.35822 10.4885 8.667 10.6164 8.99543 10.6164Z" fill="white"/>
<path d="M8.99536 5.17434C9.67345 5.17434 10.2251 4.62267 10.2251 3.94461C10.2251 3.26655 9.67345 2.71484 8.99536 2.71484C8.31726 2.71484 7.76562 3.26652 7.76562 3.94457C7.76562 4.62263 8.31726 5.17434 8.99536 5.17434ZM8.99536 3.24219C9.38267 3.24219 9.69774 3.55729 9.69774 3.94457C9.69774 4.33186 9.38264 4.64696 8.99536 4.64696C8.60807 4.64696 8.29297 4.33186 8.29297 3.94457C8.29297 3.55729 8.60804 3.24219 8.99536 3.24219Z" fill="white"/>
</g>
<defs>
<clipPath id="clip0_4171_56464">
<rect width="18" height="18" fill="white" transform="translate(0 0.900391)"/>
</clipPath>
</defs>
</svg>
