<svg width="18" height="19" viewBox="0 0 18 19" fill="none" xmlns="http://www.w3.org/2000/svg">
<g clip-path="url(#clip0_4162_109778)">
<path d="M14.0685 2.86035C13.9229 2.86035 13.8049 2.97841 13.8049 3.12402V4.33705H12.5918C12.4461 4.33705 12.3281 4.45511 12.3281 4.60073C12.3281 4.74634 12.4461 4.8644 12.5918 4.8644H13.8049V6.07746C13.8049 6.22308 13.9229 6.34114 14.0685 6.34114C14.2142 6.34114 14.3322 6.22308 14.3322 6.07746V4.8644H15.5453C15.6909 4.8644 15.8089 4.74634 15.8089 4.60073C15.8089 4.45511 15.6909 4.33705 15.5453 4.33705H14.3322V3.12402C14.3322 2.97841 14.2142 2.86035 14.0685 2.86035Z" fill="white"/>
<path d="M14.5579 13.3466C14.4878 12.4462 13.905 11.6405 13.0368 11.2442C11.9353 10.7412 10.7707 10.389 9.57535 10.1974C9.57173 10.1968 9.20065 10.1427 9.14676 10.1358C9.1444 10.1307 9.14292 9.33073 9.14292 9.33073C9.24649 9.23549 9.51456 8.96954 9.51456 8.96954C10.0009 8.48814 10.6062 7.889 10.6243 6.98468C10.6244 6.98292 10.6244 6.98116 10.6244 6.9794V6.79427C10.7486 6.79198 10.8829 6.76537 11.0045 6.6901C11.1174 6.62025 11.2629 6.47962 11.3152 6.20442L11.4567 5.42514C11.5133 5.11365 11.3983 4.80407 11.1566 4.61728C11.1437 4.60726 11.1304 4.59766 11.1168 4.58842C11.1245 4.54848 11.1286 4.50735 11.1286 4.46544V3.02923C11.1286 1.69438 10.0425 0.608398 8.70772 0.608398H6.17752C4.84266 0.608398 3.75668 1.69438 3.75668 3.02923V4.46544C3.75668 4.50735 3.76069 4.54848 3.76839 4.58842C3.75482 4.59766 3.74153 4.60726 3.72859 4.61728C3.48693 4.8041 3.3719 5.11365 3.4285 5.42514L3.57042 6.20656C3.62239 6.47962 3.76779 6.62025 3.88068 6.6901C4.00232 6.76541 4.13658 6.79198 4.26083 6.79427V6.9794C4.26083 6.98116 4.26086 6.98292 4.2609 6.98468C4.27897 7.88893 4.88422 8.48807 5.37061 8.96947C5.37061 8.96947 5.63868 9.23546 5.74228 9.33073C5.74228 9.33073 5.7408 10.1306 5.73845 10.1358C5.68452 10.1427 5.31344 10.1968 5.30982 10.1973C4.11454 10.389 2.94991 10.7412 1.84836 11.2441C0.980172 11.6405 0.39735 12.4461 0.327248 13.3466L0.291002 13.8123C0.279717 13.9575 0.388244 14.0843 0.53344 14.0957C0.678742 14.1067 0.805445 13.9984 0.816801 13.8532L0.853047 13.3875C0.908278 12.6781 1.37361 12.0406 2.06738 11.7239C2.51732 11.5184 2.97818 11.3392 3.44762 11.1869L4.26902 11.7761L3.91429 11.9885C3.70275 12.1152 3.60941 12.367 3.68728 12.6009L5.50747 18.0663H1.00482C0.870238 18.0663 0.74575 18.0119 0.654343 17.9131C0.562936 17.8143 0.518358 17.686 0.5288 17.5518L0.733972 14.9171C0.745258 14.7719 0.63673 14.645 0.491534 14.6337C0.345775 14.6226 0.219529 14.731 0.208173 14.8761L0.00300068 17.5109C-0.0186557 17.7892 0.0776729 18.0663 0.267271 18.2712C0.456834 18.4761 0.72564 18.5936 1.00482 18.5936H13.8804C14.1595 18.5936 14.4284 18.4761 14.6179 18.2712C14.8075 18.0663 14.9038 17.7892 14.8821 17.5109L14.5579 13.3466ZM10.0847 11.7981C10.092 11.9742 10.1866 12.1335 10.3379 12.2241L10.6961 12.4386L9.41096 16.2976L9.77746 10.7672C10.1206 10.8301 10.4608 10.9068 10.7973 10.9971L10.3018 11.3526C10.1586 11.4554 10.0774 11.6219 10.0847 11.7981ZM10.8144 5.02049C10.8211 5.02488 10.8277 5.02953 10.8342 5.03448C10.9181 5.09938 10.9588 5.21575 10.9379 5.33092L10.7968 6.10802C10.7772 6.2106 10.7394 6.23405 10.727 6.24175C10.7028 6.25673 10.6672 6.2651 10.6244 6.26692V5.09713C10.6281 5.09618 10.6318 5.09523 10.6356 5.09428C10.6999 5.07829 10.7599 5.05315 10.8144 5.02049ZM4.28399 3.02923C4.28399 1.98516 5.13341 1.13574 6.17748 1.13574H8.70769C9.75176 1.13574 10.6012 1.98516 10.6012 3.02923V4.46544C10.6012 4.52078 10.5631 4.56887 10.5086 4.58237C10.4035 4.60846 10.3063 4.64396 10.2177 4.68865V3.98847C10.2177 3.72512 10.0034 3.51087 9.74006 3.51087H7.76089C7.11581 3.51087 6.53587 3.22326 6.03717 2.65605C5.90548 2.50625 5.69978 2.45376 5.51341 2.52217C5.00744 2.70766 4.66752 3.19447 4.66752 3.73352V4.68865C4.57885 4.64396 4.48168 4.60842 4.37653 4.58237C4.32203 4.56887 4.28399 4.52078 4.28399 4.46544V3.02923ZM4.1582 6.24172C4.14576 6.23402 4.10793 6.2106 4.08881 6.11016L3.94727 5.33092C3.92635 5.21575 3.96709 5.09938 4.05108 5.03445C4.05748 5.02949 4.06406 5.02485 4.07077 5.02045C4.12526 5.05315 4.18527 5.07825 4.24961 5.09421C4.25334 5.09513 4.25706 5.09608 4.26076 5.09706V6.26685C4.21801 6.26506 4.18239 6.25669 4.1582 6.24172ZM4.78814 6.9767V5.36776C4.80332 5.36973 4.81862 5.37072 4.83402 5.37072C4.88074 5.37072 4.92792 5.36158 4.97295 5.3428C5.10778 5.28655 5.1949 5.15588 5.1949 5.00991V3.73352C5.1949 3.42608 5.38189 3.14736 5.66364 3.02958C6.26203 3.69889 6.96752 4.03822 7.76093 4.03822H9.69034V5.00991C9.69034 5.15588 9.77746 5.28655 9.91225 5.3428C9.97209 5.3678 10.0358 5.37571 10.0971 5.36776V6.97666C10.0822 7.66576 9.60505 8.13802 9.14363 8.5947L9.06421 8.67341C8.63122 9.10317 8.18351 9.54754 7.44262 9.55767C6.7017 9.54754 6.25395 9.10313 5.82096 8.67331L5.74158 8.59463C5.28015 8.13798 4.80304 7.66576 4.78814 6.9767ZM7.43942 10.085C7.44047 10.085 7.44153 10.085 7.44258 10.085C7.44364 10.085 7.44469 10.085 7.44575 10.085C7.91843 10.0794 8.29748 9.93757 8.61558 9.74038V10.1181C8.61558 10.3281 8.73057 10.5206 8.91574 10.6204C8.93487 10.6307 8.95512 10.6386 8.97604 10.6439C8.98289 10.6456 8.98982 10.6471 8.99678 10.6483C8.57047 11.0215 8.02442 11.2289 7.44258 11.2289C6.86078 11.2289 6.31473 11.0215 5.88843 10.6483C5.91676 10.6435 5.94411 10.6341 5.96946 10.6204C6.15463 10.5206 6.26963 10.3282 6.26963 10.1181V9.74045C6.58772 9.93757 6.96678 10.0794 7.43942 10.085ZM4.189 12.4387L4.54721 12.2241C4.69852 12.1335 4.79316 11.9743 4.80048 11.7981C4.80775 11.6219 4.72658 11.4554 4.58332 11.3526L4.08786 10.9971C4.42434 10.9068 4.76458 10.8301 5.10767 10.7672L5.47418 16.2976L4.189 12.4387ZM5.66121 11.145C6.16331 11.539 6.78421 11.7562 7.44258 11.7562C8.10096 11.7562 8.72189 11.539 9.22399 11.1449L8.76531 18.0663H6.11993L5.66121 11.145ZM14.2309 17.9131C14.1394 18.0119 14.015 18.0663 13.8804 18.0663H9.37777L11.1979 12.601C11.2759 12.3671 11.1825 12.1152 10.971 11.9885L10.6162 11.7761L11.4376 11.1869C11.907 11.3392 12.3679 11.5184 12.8178 11.7238C13.5116 12.0406 13.9769 12.6781 14.0321 13.3875L14.3564 17.5518C14.3668 17.686 14.3222 17.8143 14.2309 17.9131Z" fill="white"/>
<path d="M12.6557 14.6582H11.0954C10.8188 14.6582 10.5938 14.8832 10.5938 15.1598V15.7605C10.5938 16.0371 10.8188 16.2622 11.0954 16.2622H12.6557C12.9323 16.2622 13.1574 16.0371 13.1574 15.7605V15.1598C13.1574 14.8832 12.9323 14.6582 12.6557 14.6582ZM12.63 15.7348H11.1211V15.1855H12.63V15.7348Z" fill="white"/>
<path d="M16.2973 1.4209H11.449C11.3034 1.4209 11.1854 1.53895 11.1854 1.68457C11.1854 1.83019 11.3034 1.94824 11.449 1.94824H16.2973C16.9485 1.94824 17.4784 2.47812 17.4784 3.12942V6.55916C17.4784 7.21046 16.9486 7.74034 16.2973 7.74034H15.4093C15.3479 7.74034 15.2884 7.76179 15.2411 7.80095L13.0881 9.58443L13.2376 8.02922C13.2447 7.95525 13.2203 7.8817 13.1703 7.82668C13.1204 7.77166 13.0495 7.7403 12.9752 7.7403H11.0762C10.9305 7.7403 10.8125 7.85836 10.8125 8.00398C10.8125 8.14959 10.9305 8.26765 11.0762 8.26765H12.6849L12.5422 9.75184C12.5252 9.92861 12.6156 10.0965 12.7725 10.1797C12.8373 10.214 12.9076 10.2309 12.9774 10.2309C13.0769 10.2309 13.1756 10.1967 13.2559 10.1302L15.5043 8.26761H16.2973C17.2393 8.26761 18.0058 7.50117 18.0058 6.55909V3.12942C18.0057 2.18734 17.2393 1.4209 16.2973 1.4209Z" fill="white"/>
</g>
<defs>
<clipPath id="clip0_4162_109778">
<rect width="18" height="18" fill="white" transform="translate(0 0.600586)"/>
</clipPath>
</defs>
</svg>
