<svg width="18" height="19" viewBox="0 0 18 19" fill="none" xmlns="http://www.w3.org/2000/svg">
<path d="M14.7583 16.3996H14.0383V13.1596C14.0383 12.6823 13.8486 12.2244 13.5111 11.8869C13.1735 11.5493 12.7157 11.3596 12.2383 11.3596H5.75828C5.28089 11.3596 4.82305 11.5493 4.48549 11.8869C4.14792 12.2244 3.95828 12.6823 3.95828 13.1596V16.3996H3.23828V13.1596C3.23828 12.4913 3.50378 11.8503 3.97637 11.3777C4.44896 10.9051 5.08994 10.6396 5.75828 10.6396H12.2383C12.9066 10.6396 13.5476 10.9051 14.0202 11.3777C14.4928 11.8503 14.7583 12.4913 14.7583 13.1596V16.3996Z" fill="white"/>
<path d="M9.03906 10C8.24794 10 7.47458 9.76541 6.81678 9.32588C6.15899 8.88635 5.6463 8.26164 5.34355 7.53073C5.0408 6.79983 4.96158 5.99556 5.11592 5.21964C5.27026 4.44372 5.65123 3.73098 6.21064 3.17157C6.77005 2.61216 7.48278 2.2312 8.2587 2.07686C9.03463 1.92252 9.83889 2.00173 10.5698 2.30448C11.3007 2.60723 11.9254 3.11992 12.3649 3.77772C12.8045 4.43552 13.0391 5.20888 13.0391 6C13.0391 7.06087 12.6176 8.07828 11.8675 8.82843C11.1173 9.57857 10.0999 10 9.03906 10ZM9.03906 2.72727C8.39178 2.72727 7.75903 2.91922 7.22083 3.27883C6.68264 3.63844 6.26316 4.14957 6.01546 4.74758C5.76775 5.3456 5.70294 6.00363 5.82922 6.63848C5.9555 7.27332 6.2672 7.85647 6.7249 8.31417C7.1826 8.77187 7.76574 9.08357 8.40059 9.20984C9.03543 9.33612 9.69347 9.27131 10.2915 9.02361C10.8895 8.7759 11.4006 8.35643 11.7602 7.81823C12.1198 7.28003 12.3118 6.64728 12.3118 6C12.3118 5.13202 11.967 4.29959 11.3532 3.68583C10.7395 3.07208 9.90704 2.72727 9.03906 2.72727Z" fill="white"/>
</svg>
