<svg width="30" height="30" viewBox="0 0 30 30" fill="none" xmlns="http://www.w3.org/2000/svg">
<rect width="30" height="30" rx="3" fill="black"/>
<path d="M19.216 9H10.784C9.24886 9 8 10.4617 8 12.2581V17.7419C8 19.5386 9.24886 21 10.784 21H19.216C20.7511 21 22 19.5383 22 17.7419V12.2581C22 10.4617 20.7511 9 19.216 9ZM21.4286 17.7422C21.4286 19.1713 20.436 20.3336 19.216 20.3336H10.784C9.564 20.3336 8.57143 19.1709 8.57143 17.7422V12.2581C8.57143 10.8294 9.564 9.66669 10.784 9.66669H19.216C20.436 9.66669 21.4286 10.8294 21.4286 12.2581V17.7422Z" fill="white"/>
<path d="M17.5316 14.8795L13.5731 12.1744C13.5296 12.145 13.4803 12.1294 13.4301 12.1293C13.3799 12.1291 13.3305 12.1444 13.2869 12.1735C13.2434 12.2027 13.2071 12.2447 13.1819 12.2953C13.1566 12.346 13.1432 12.4035 13.1431 12.4621V17.8719C13.1432 17.9603 13.1734 18.0449 13.2269 18.1074C13.2805 18.1699 13.3531 18.2051 13.4288 18.2052C13.4795 18.2052 13.5293 18.1895 13.5731 18.1596L17.5316 15.4552C17.5747 15.4258 17.6105 15.3838 17.6353 15.3333C17.6602 15.2828 17.6733 15.2256 17.6733 15.1673C17.6733 15.1091 17.6602 15.0519 17.6353 15.0014C17.6105 14.9509 17.5747 14.9089 17.5316 14.8795ZM13.7145 17.2902V13.0434L16.8219 15.1672L13.7145 17.2902Z" fill="white"/>
</svg>
