<svg width="30" height="30" viewBox="0 0 30 30" fill="none" xmlns="http://www.w3.org/2000/svg">
<rect width="30" height="30" rx="3" fill="url(#paint0_linear_1198_27535)"/>
<g clip-path="url(#clip0_1198_27535)">
<path d="M21.9856 12.116C21.9528 11.3722 21.8325 10.8608 21.6602 10.4176C21.4824 9.94723 21.2089 9.5261 20.8506 9.17601C20.5005 8.82047 20.0766 8.5442 19.6117 8.36921C19.166 8.19689 18.6573 8.0766 17.9134 8.0438C17.164 8.00823 16.926 8 15.0253 8C13.1245 8 12.8866 8.00823 12.14 8.04102C11.3961 8.07382 10.8847 8.19422 10.4416 8.36644C9.97116 8.5442 9.55002 8.8177 9.19993 9.17601C8.8444 9.5261 8.56824 9.95001 8.39314 10.4149C8.22082 10.8608 8.10052 11.3694 8.06773 12.1133C8.03215 12.8627 8.02393 13.1006 8.02393 15.0014C8.02393 16.9021 8.03215 17.14 8.06495 17.8867C8.09775 18.6306 8.21815 19.142 8.39047 19.5851C8.56824 20.0555 8.8444 20.4766 9.19993 20.8267C9.55002 21.1823 9.97393 21.4585 10.4389 21.6335C10.8847 21.8058 11.3933 21.9261 12.1373 21.9589C12.8838 21.9918 13.1219 22 15.0226 22C16.9234 22 17.1613 21.9918 17.9079 21.9589C18.6518 21.9261 19.1632 21.8058 19.6062 21.6335C20.5471 21.2698 21.291 20.5259 21.6548 19.5851C21.827 19.1393 21.9474 18.6306 21.9802 17.8867C22.013 17.14 22.0212 16.9021 22.0212 15.0014C22.0212 13.1006 22.0184 12.8627 21.9856 12.116ZM20.7249 17.832C20.6948 18.5157 20.5799 18.8849 20.4842 19.1311C20.249 19.741 19.7649 20.225 19.155 20.4603C18.9088 20.556 18.537 20.6709 17.8559 20.7009C17.1175 20.7338 16.896 20.7419 15.0281 20.7419C13.1601 20.7419 12.9359 20.7338 12.2001 20.7009C11.5164 20.6709 11.1472 20.556 10.901 20.4603C10.5975 20.3481 10.3212 20.1703 10.097 19.9379C9.86454 19.7109 9.68677 19.4374 9.5746 19.1339C9.47887 18.8877 9.36403 18.5157 9.33401 17.8348C9.30111 17.0964 9.29299 16.8748 9.29299 15.0068C9.29299 13.1389 9.30111 12.9146 9.33401 12.179C9.36403 11.4952 9.47887 11.126 9.5746 10.8799C9.68677 10.5763 9.86454 10.3001 10.0998 10.0758C10.3267 9.84329 10.6002 9.66552 10.9038 9.55345C11.1499 9.45773 11.5219 9.34288 12.2029 9.31276C12.9413 9.27996 13.1629 9.27173 15.0307 9.27173C16.9015 9.27173 17.1229 9.27996 17.8587 9.31276C18.5424 9.34288 18.9116 9.45773 19.1578 9.55345C19.4613 9.66552 19.7375 9.84329 19.9618 10.0758C20.1943 10.3028 20.372 10.5763 20.4842 10.8799C20.5799 11.126 20.6948 11.4979 20.7249 12.179C20.7577 12.9174 20.7659 13.1389 20.7659 15.0068C20.7659 16.8748 20.7577 17.0936 20.7249 17.832Z" fill="white"/>
<path d="M15.0256 11.405C13.0401 11.405 11.4292 13.0158 11.4292 15.0014C11.4292 16.987 13.0401 18.5978 15.0256 18.5978C17.0112 18.5978 18.622 16.987 18.622 15.0014C18.622 13.0158 17.0112 11.405 15.0256 11.405ZM15.0256 17.3343C13.7375 17.3343 12.6927 16.2896 12.6927 15.0014C12.6927 13.7132 13.7375 12.6685 15.0256 12.6685C16.3138 12.6685 17.3585 13.7132 17.3585 15.0014C17.3585 16.2896 16.3138 17.3343 15.0256 17.3343Z" fill="white"/>
<path d="M19.6036 11.2627C19.6036 11.7263 19.2277 12.1023 18.7639 12.1023C18.3003 12.1023 17.9243 11.7263 17.9243 11.2627C17.9243 10.7989 18.3003 10.4231 18.7639 10.4231C19.2277 10.4231 19.6036 10.7989 19.6036 11.2627Z" fill="white"/>
</g>
<defs>
<linearGradient id="paint0_linear_1198_27535" x1="2.51755" y1="27.4824" x2="27.4826" y2="2.51752" gradientUnits="userSpaceOnUse">
<stop stop-color="#FFD600"/>
<stop offset="0.5" stop-color="#FF0100"/>
<stop offset="1" stop-color="#D800B9"/>
</linearGradient>
<clipPath id="clip0_1198_27535">
<rect width="14" height="14" fill="white" transform="translate(8 8)"/>
</clipPath>
</defs>
</svg>
