<svg width="30" height="30" viewBox="0 0 30 30" fill="none" xmlns="http://www.w3.org/2000/svg">
<rect width="30" height="30" rx="3" fill="#0E76A8"/>
<g clip-path="url(#clip0_1198_27540)">
<path d="M21.9963 22V21.9995H21.9998V16.865C21.9998 14.3531 21.459 12.4182 18.5225 12.4182C17.1108 12.4182 16.1635 13.1929 15.7767 13.9273H15.7359V12.6527H12.9517V21.9995H15.8508V17.3713C15.8508 16.1527 16.0818 14.9744 17.5909 14.9744C19.0778 14.9744 19.1 16.365 19.1 17.4495V22H21.9963Z" fill="white"/>
<path d="M8.23096 12.6532H11.1336V21.9999H8.23096V12.6532Z" fill="white"/>
<path d="M9.68117 8C8.75308 8 8 8.75308 8 9.68117C8 10.6092 8.75308 11.3781 9.68117 11.3781C10.6092 11.3781 11.3623 10.6092 11.3623 9.68117C11.3617 8.75308 10.6087 8 9.68117 8V8Z" fill="white"/>
</g>
<defs>
<clipPath id="clip0_1198_27540">
<rect width="14" height="14" fill="white" transform="translate(8 8)"/>
</clipPath>
</defs>
</svg>
