<svg width="18" height="19" viewBox="0 0 18 19" fill="none" xmlns="http://www.w3.org/2000/svg">
<path fill-rule="evenodd" clip-rule="evenodd" d="M3.54 2.01611C3.6 2.90611 3.75 3.77611 3.99 4.60611L2.79 5.80611C2.38 4.60611 2.12 3.33611 2.03 2.01611H3.54ZM13.4 14.0361C14.25 14.2761 15.12 14.4261 16 14.4861V15.9761C14.68 15.8861 13.41 15.6261 12.2 15.2261L13.4 14.0361ZM4.5 0.0161133H1C0.45 0.0161133 0 0.466113 0 1.01611C0 10.4061 7.61 18.0161 17 18.0161C17.55 18.0161 18 17.5661 18 17.0161V13.5261C18 12.9761 17.55 12.5261 17 12.5261C15.76 12.5261 14.55 12.3261 13.43 11.9561C13.33 11.9161 13.22 11.9061 13.12 11.9061C12.86 11.9061 12.61 12.0061 12.41 12.1961L10.21 14.3961C7.38 12.9461 5.06 10.6361 3.62 7.80611L5.82 5.60611C6.1 5.32611 6.18 4.93611 6.07 4.58611C5.7 3.46611 5.5 2.26611 5.5 1.01611C5.5 0.466113 5.05 0.0161133 4.5 0.0161133Z" fill="#00898F"/>
</svg>
