<svg width="24" height="25" viewBox="0 0 24 25" fill="none" xmlns="http://www.w3.org/2000/svg">
<path fill-rule="evenodd" clip-rule="evenodd" d="M12 2.01611C15.87 2.01611 19 5.14611 19 9.01611C19 14.2661 12 22.0161 12 22.0161C12 22.0161 5 14.2661 5 9.01611C5 5.14611 8.13 2.01611 12 2.01611ZM7 9.01611C7 11.8661 9.92 16.2261 12 18.8961C14.12 16.2061 17 11.8961 17 9.01611C17 6.25611 14.76 4.01611 12 4.01611C9.24 4.01611 7 6.25611 7 9.01611ZM12 11.5161C10.6193 11.5161 9.5 10.3968 9.5 9.01611C9.5 7.6354 10.6193 6.51611 12 6.51611C13.3807 6.51611 14.5 7.6354 14.5 9.01611C14.5 10.3968 13.3807 11.5161 12 11.5161Z" fill="#00898F"/>
</svg>
